<svg width="30" height="25" fill="none" xmlns="http://www.w3.org/2000/svg"><path d="M8.903 14.265c.416-.47.077-1.206-.556-1.206H6.451a8.42 8.42 0 0 1-.02-.559c0-4.659 3.844-8.45 8.569-8.45 2.27 0 4.337.876 5.872 2.303l2.674-3.085A12.684 12.684 0 0 0 15 0c-3.386 0-6.57 1.3-8.964 3.661-2.394 2.361-3.712 5.5-3.712 8.839 0 .187.004.374.013.56H.739c-.633 0-.972.734-.556 1.205l3.603 4.076.757.856 2.718-3.074 1.642-1.858Zm20.914-2.378-2.688-3.04-1.672-1.891-2.388 2.7-1.972 2.231c-.416.471-.077 1.206.556 1.206h1.894c-.31 4.384-4.025 7.856-8.547 7.856a8.602 8.602 0 0 1-5.245-1.772l-2.674 3.085A12.691 12.691 0 0 0 15.001 25c3.385 0 6.568-1.3 8.963-3.661 2.252-2.22 3.552-5.13 3.698-8.246h1.599c.633 0 .972-.735.556-1.206Z" fill="#FF6500"/></svg>