<svg width="23" height="26" fill="none" xmlns="http://www.w3.org/2000/svg"><path d="M11.071 25.53c1.51 0 2.811-.906 3.382-2.2H7.69a3.696 3.696 0 0 0 3.381 2.2Zm7.627-12.913v-1.606c0-3.414-2.284-6.307-5.412-7.252V2.7A2.21 2.21 0 0 0 11.07.5a2.21 2.21 0 0 0-2.214 2.2v1.06c-3.129.944-5.413 3.837-5.413 7.251v1.607c0 2.998-1.15 5.841-3.239 8.005a.732.732 0 0 0 .533 1.241h20.666a.742.742 0 0 0 .68-.445.728.728 0 0 0-.147-.796 11.475 11.475 0 0 1-3.239-8.006ZM11.81 3.47a7.738 7.738 0 0 0-1.476 0V2.7c0-.404.331-.733.738-.733s.738.329.738.733v.769Z" fill="#FF6500"/></svg>