<svg width="24" height="20" fill="none" xmlns="http://www.w3.org/2000/svg"><g clip-path="url(#a)"><path d="m23.956 9.322-1.587 8a3.338 3.338 0 0 1-1.145 1.923 3.29 3.29 0 0 1-2.095.755H3.306a3.292 3.292 0 0 1-2.338-.976A3.347 3.347 0 0 1 0 16.667V3.333C0 2.45.348 1.601.968.976A3.292 3.292 0 0 1 3.306 0h4.407c.217.002.427.067.607.189l3.03 2.033h6.28c.878 0 1.718.351 2.338.977.62.625.969 1.473.969 2.357h-2.204c0-.295-.116-.578-.323-.786a1.097 1.097 0 0 0-.78-.326h-6.61a1.096 1.096 0 0 1-.607-.188l-3.03-2.034H3.306c-.292 0-.573.117-.78.326a1.116 1.116 0 0 0-.322.785v13.334c0 .294.116.577.323.785.206.209.487.326.779.326h.198L5.18 9.344a3.338 3.338 0 0 1 1.146-1.922 3.289 3.289 0 0 1 2.094-.755h13.377a2.188 2.188 0 0 1 1.708.81 2.23 2.23 0 0 1 .452 1.845Z" fill="#FF6500"/></g><defs><clipPath id="a"><path fill="#fff" d="M0 0h24v20H0z"/></clipPath></defs></svg>