<svg width="56" height="56" fill="none" xmlns="http://www.w3.org/2000/svg"><circle cx="28" cy="28" r="28" fill="#FF6500" fill-opacity=".13"/><path d="M20 23a3 3 0 1 1 6 0 3 3 0 0 1-6 0Zm3-5a5 5 0 1 0 0 10 5 5 0 0 0 0-10Zm10 6a2 2 0 1 1 4 0 2 2 0 0 1-4 0Zm2-4a4 4 0 1 0 0 8 4 4 0 0 0 0-8ZM15 33a3 3 0 0 1 3-3h10a3 3 0 0 1 3 3v.224c0 .092-.007.183-.02.274a5.7 5.7 0 0 1-1.048 2.684C28.838 37.692 26.758 39 23 39c-3.758 0-5.836-1.308-6.934-2.818a5.7 5.7 0 0 1-1.046-2.684 3.987 3.987 0 0 1-.02-.274V33Zm2 .18v.014l.008.098a3.7 3.7 0 0 0 .676 1.714C18.336 35.902 19.756 37 23 37c3.244 0 4.664-1.098 5.316-1.994a3.7 3.7 0 0 0 .676-1.714l.008-.1V33a1 1 0 0 0-1-1H18a1 1 0 0 0-1 1v.18ZM35 37c-1.176 0-2.14-.18-2.92-.476a8 8 0 0 0 .722-1.864c.536.202 1.248.34 2.198.34 2.238 0 3.156-.764 3.56-1.332a2.4 2.4 0 0 0 .436-1.12l.004-.056a.5.5 0 0 0-.5-.492h-5.6a5 5 0 0 0-.9-2h6.5a2.5 2.5 0 0 1 2.5 2.5v.034a2.012 2.012 0 0 1-.016.218 4.4 4.4 0 0 1-.796 2.08C39.344 36.014 37.762 37 35 37Z" fill="#FF6500"/></svg>