<svg width="56" height="56" fill="none" xmlns="http://www.w3.org/2000/svg"><circle cx="28" cy="28" r="28" fill="#FF6500" fill-opacity=".13"/><path d="M17.166 22.584a2.167 2.167 0 0 1 2.167-2.167h17.333a2.167 2.167 0 0 1 2.167 2.167v10.833a2.167 2.167 0 0 1-2.167 2.167H19.333a2.167 2.167 0 0 1-2.167-2.167V22.584Z" stroke="#FF6500" stroke-width="1.733" stroke-linecap="round" stroke-linejoin="round"/><path d="M28 31.25a3.25 3.25 0 1 0 0-6.5 3.25 3.25 0 0 0 0 6.5Zm-10.834-6.5a4.333 4.333 0 0 0 4.333-4.333m13 15.167a4.333 4.333 0 0 1 4.334-4.334" stroke="#FF6500" stroke-width="1.733" stroke-linecap="round" stroke-linejoin="round"/></svg>