<svg width="56" height="56" fill="none" xmlns="http://www.w3.org/2000/svg"><circle cx="28" cy="28" r="28" fill="#FF6500" fill-opacity=".13"/><path d="M36 23.993C36 19.592 32.405 16 28 16c-4.405 0-8 3.592-8 7.993 0 .634.07 1.268.247 1.901.211 1.022.599 1.655 1.128 2.536.105.21.246.422.387.669.176.281.317.563.494.81.704 1.161 1.127 1.83 1.127 3.204v3.31c0 .845.6 1.514 1.41 1.654C25.145 39.873 26.203 41 28 41s2.89-1.127 3.207-2.922a1.698 1.698 0 0 0 1.41-1.656v-3.31c0-1.373.423-2.077 1.128-3.204.14-.246.317-.528.493-.81.14-.246.282-.457.388-.668.528-.88.916-1.514 1.127-2.536A7.045 7.045 0 0 0 36 23.993Zm-4.758 9.965h-6.414v-.81c0-.176 0-.317-.035-.458h6.45c0 .141-.036.282-.036.458v.81h.035Zm-.317 2.781h-5.85a.278.278 0 0 1-.282-.281v-1.092h6.414v1.092c.035.14-.106.281-.282.281ZM28 39.627c-.388 0-1.374 0-1.762-1.48h3.56c-.388 1.48-1.41 1.48-1.798 1.48Zm6.379-14.014c-.176.774-.458 1.303-.952 2.112-.14.212-.246.423-.387.67-.177.281-.318.563-.459.774-.422.704-.81 1.338-1.057 2.078h-6.978c-.246-.74-.599-1.374-1.057-2.078-.141-.247-.317-.493-.458-.775-.141-.246-.282-.493-.388-.669-.493-.845-.775-1.338-.951-2.148a6.125 6.125 0 0 1-.212-1.584c0-3.627 2.96-6.584 6.59-6.584s6.59 2.957 6.59 6.584c-.07.528-.14 1.056-.281 1.62Z" fill="#FF6500"/></svg>