<svg width="14" height="14" viewBox="0 0 14 14" fill="none" xmlns="http://www.w3.org/2000/svg">
<path d="M5.41567 7.00391C5.41567 7.41002 5.577 7.7995 5.86416 8.08666C6.15133 8.37383 6.5408 8.53516 6.94692 8.53516C7.35303 8.53516 7.74251 8.37383 8.02968 8.08666C8.31684 7.7995 8.47817 7.41002 8.47817 7.00391C8.47817 6.59779 8.31684 6.20831 8.02968 5.92115C7.74251 5.63398 7.35303 5.47266 6.94692 5.47266C6.5408 5.47266 6.15133 5.63398 5.86416 5.92115C5.577 6.20831 5.41567 6.59779 5.41567 7.00391ZM12.8832 6.65117C11.5872 3.9209 9.62797 2.54688 7.00161 2.54688C4.37387 2.54688 2.41606 3.9209 1.11996 6.65254C1.06798 6.76262 1.04102 6.88285 1.04102 7.00459C1.04102 7.12633 1.06798 7.24656 1.11996 7.35664C2.41606 10.0869 4.37524 11.4609 7.00161 11.4609C9.62934 11.4609 11.5872 10.0869 12.8832 7.35527C12.9885 7.13379 12.9885 6.87676 12.8832 6.65117ZM6.94692 9.41016C5.61801 9.41016 4.54067 8.33281 4.54067 7.00391C4.54067 5.675 5.61801 4.59766 6.94692 4.59766C8.27582 4.59766 9.35317 5.675 9.35317 7.00391C9.35317 8.33281 8.27582 9.41016 6.94692 9.41016Z" fill="black" fill-opacity="0.25"/>
</svg>
