<?xml version="1.0" encoding="utf-8"?>
<!-- Generator: Adobe Illustrator 27.5.0, SVG Export Plug-In . SVG Version: 6.00 Build 0)  -->
<!DOCTYPE svg PUBLIC "-//W3C//DTD SVG 1.1//EN" "http://www.w3.org/Graphics/SVG/1.1/DTD/svg11.dtd" [
	<!ENTITY ns_extend "http://ns.adobe.com/Extensibility/1.0/">
	<!ENTITY ns_ai "http://ns.adobe.com/AdobeIllustrator/10.0/">
	<!ENTITY ns_graphs "http://ns.adobe.com/Graphs/1.0/">
	<!ENTITY ns_vars "http://ns.adobe.com/Variables/1.0/">
	<!ENTITY ns_imrep "http://ns.adobe.com/ImageReplacement/1.0/">
	<!ENTITY ns_sfw "http://ns.adobe.com/SaveForWeb/1.0/">
	<!ENTITY ns_custom "http://ns.adobe.com/GenericCustomNamespace/1.0/">
	<!ENTITY ns_adobe_xpath "http://ns.adobe.com/XPath/1.0/">
]>
<svg version="1.1" id="Слой_3" xmlns:x="&ns_extend;" xmlns:i="&ns_ai;" xmlns:graph="&ns_graphs;"
	 xmlns="http://www.w3.org/2000/svg" xmlns:xlink="http://www.w3.org/1999/xlink" x="0px" y="0px" viewBox="0 0 510.2 80.2"
	 style="enable-background:new 0 0 510.2 80.2;" xml:space="preserve">
<style type="text/css">
	.st0{fill:url(#SVGID_1_);}
	.st1{fill:url(#SVGID_00000009579138048028718490000010286211950243009722_);}
	.st2{fill:url(#SVGID_00000065039975539628665660000008811707656881640081_);}
	.st3{fill:url(#SVGID_00000112606466134618411940000014831021440966286220_);}
	.st4{fill:url(#SVGID_00000033341499612728770670000016779576395046533566_);}
	.st5{fill:url(#SVGID_00000129195430542093125950000016768451673848284344_);}
	.st6{fill:url(#SVGID_00000062178330076026561600000002634146512925778357_);}
	.st7{fill:url(#SVGID_00000015322245909745356330000014785887867827433888_);}
</style>
<metadata>
	<sfw  xmlns="&ns_sfw;">
		<slices></slices>
		<sliceSourceBounds  bottomLeftOrigin="true" height="80.2" width="510.2" x="273.8" y="-1197.9"></sliceSourceBounds>
	</sfw>
</metadata>
<g>
	<g>
		<g>
			<g>
				<linearGradient id="SVGID_1_" gradientUnits="userSpaceOnUse" x1="86.7624" y1="47.5555" x2="235.0788" y2="47.5555">
					<stop  offset="0" style="stop-color:#E629CA"/>
					<stop  offset="1" style="stop-color:#4C01EE"/>
				</linearGradient>
				<polygon class="st0" points="130.5,51.4 130.5,43.5 146.3,43.5 146.3,37.4 122.7,37.4 122.7,57.7 149.1,57.7 149.1,51.4 				"/>
				
					<linearGradient id="SVGID_00000169554219574493285050000013696909265566989206_" gradientUnits="userSpaceOnUse" x1="86.7624" y1="26.8124" x2="235.0788" y2="26.8124">
					<stop  offset="0" style="stop-color:#E629CA"/>
					<stop  offset="1" style="stop-color:#4C01EE"/>
				</linearGradient>
				
					<rect x="122.7" y="23.6" style="fill:url(#SVGID_00000169554219574493285050000013696909265566989206_);" width="25.8" height="6.3"/>
			</g>
			<g>
				
					<linearGradient id="SVGID_00000051344826314915208530000005075616032959218821_" gradientUnits="userSpaceOnUse" x1="86.7624" y1="26.8124" x2="235.0788" y2="26.8124">
					<stop  offset="0" style="stop-color:#E629CA"/>
					<stop  offset="1" style="stop-color:#4C01EE"/>
				</linearGradient>
				
					<rect x="155.3" y="23.6" style="fill:url(#SVGID_00000051344826314915208530000005075616032959218821_);" width="25.8" height="6.3"/>
				
					<linearGradient id="SVGID_00000104673728316086301160000008455394291431428259_" gradientUnits="userSpaceOnUse" x1="86.7624" y1="47.5555" x2="235.0788" y2="47.5555">
					<stop  offset="0" style="stop-color:#E629CA"/>
					<stop  offset="1" style="stop-color:#4C01EE"/>
				</linearGradient>
				<polygon style="fill:url(#SVGID_00000104673728316086301160000008455394291431428259_);" points="163.2,51.4 163.2,43.5 
					179,43.5 179,37.4 155.3,37.4 155.3,57.7 181.7,57.7 181.7,51.4 				"/>
			</g>
			
				<linearGradient id="SVGID_00000018224010798916925490000010880857766339914626_" gradientUnits="userSpaceOnUse" x1="86.7624" y1="40.6896" x2="235.0788" y2="40.6896">
				<stop  offset="0" style="stop-color:#E629CA"/>
				<stop  offset="1" style="stop-color:#4C01EE"/>
			</linearGradient>
			<path style="fill:url(#SVGID_00000018224010798916925490000010880857766339914626_);" d="M188,23.6h7.9v27.7H213v6.4h-25V23.6z"
				/>
			
				<linearGradient id="SVGID_00000042723206493226397130000010861208198039761794_" gradientUnits="userSpaceOnUse" x1="86.7624" y1="40.6902" x2="235.0788" y2="40.6902">
				<stop  offset="0" style="stop-color:#E629CA"/>
				<stop  offset="1" style="stop-color:#4C01EE"/>
			</linearGradient>
			<path style="fill:url(#SVGID_00000042723206493226397130000010861208198039761794_);" d="M220.6,57.2c-2.5-0.7-4.5-1.7-6.1-2.8
				l2.7-5.9c1.5,1.1,3.2,1.9,5.2,2.6c2,0.7,4,1,6,1c2.2,0,3.9-0.3,5-1c1.1-0.7,1.6-1.5,1.6-2.7c0-0.8-0.3-1.5-0.9-2
				c-0.6-0.5-1.4-1-2.4-1.3c-1-0.3-2.3-0.7-4-1.1c-2.6-0.6-4.7-1.2-6.4-1.9c-1.7-0.6-3.1-1.6-4.3-3c-1.2-1.4-1.8-3.2-1.8-5.5
				c0-2,0.5-3.8,1.6-5.4c1.1-1.6,2.7-2.9,4.8-3.8c2.2-0.9,4.8-1.4,7.9-1.4c2.2,0,4.3,0.3,6.4,0.8c2.1,0.5,3.9,1.3,5.5,2.2l-2.4,6
				c-3.1-1.8-6.3-2.7-9.4-2.7c-2.2,0-3.8,0.4-4.9,1.1c-1.1,0.7-1.6,1.7-1.6,2.8c0,1.2,0.6,2,1.8,2.6c1.2,0.6,3.1,1.1,5.6,1.7
				c2.6,0.6,4.7,1.2,6.4,1.9c1.7,0.6,3.1,1.6,4.3,2.9c1.2,1.3,1.8,3.1,1.8,5.4c0,1.9-0.5,3.7-1.6,5.3c-1.1,1.6-2.7,2.9-4.9,3.8
				s-4.8,1.4-7.9,1.4C225.7,58.3,223.1,58,220.6,57.2z"/>
		</g>
		
			<linearGradient id="SVGID_00000008856406032804193300000010887745533845983381_" gradientUnits="userSpaceOnUse" x1="86.7624" y1="40.6895" x2="235.0789" y2="40.6895">
			<stop  offset="0" style="stop-color:#E629CA"/>
			<stop  offset="1" style="stop-color:#4C01EE"/>
		</linearGradient>
		<path style="fill:url(#SVGID_00000008856406032804193300000010887745533845983381_);" d="M109.4,46.8c2.2-1,4-2.4,5.2-4.2
			c1.2-1.8,1.8-4,1.8-6.5c0-2.5-0.6-4.7-1.8-6.6c-1.2-1.9-2.9-3.3-5.1-4.3c-2.2-1-4.8-1.5-7.9-1.5H86.9v34.1h7.9v-9.5h6.9h0.4
			l6.6,9.5h8.5L109.4,46.8z M107.7,37.6L97,43.4c-1.2,0.6-2.6-0.2-2.6-1.6V30.2c0-1.4,1.4-2.2,2.6-1.6l10.7,5.8
			C109,35.1,109,36.9,107.7,37.6z"/>
	</g>
	<path d="M268.7,57.2c-2.5-0.7-4.5-1.7-6.1-2.8l2.7-5.9c1.5,1.1,3.2,1.9,5.2,2.6c2,0.7,4,1,6,1c2.2,0,3.9-0.3,5-1
		c1.1-0.7,1.6-1.5,1.6-2.7c0-0.8-0.3-1.5-0.9-2c-0.6-0.5-1.4-1-2.4-1.3c-1-0.3-2.3-0.7-4-1.1c-2.6-0.6-4.7-1.2-6.4-1.9
		c-1.7-0.6-3.1-1.6-4.3-3s-1.8-3.2-1.8-5.5c0-2,0.5-3.8,1.6-5.4c1.1-1.6,2.7-2.9,4.8-3.8c2.2-0.9,4.8-1.4,7.9-1.4
		c2.2,0,4.3,0.3,6.4,0.8c2.1,0.5,3.9,1.3,5.5,2.2l-2.4,6c-3.1-1.8-6.3-2.7-9.4-2.7c-2.2,0-3.8,0.4-4.9,1.1c-1.1,0.7-1.6,1.7-1.6,2.8
		c0,1.2,0.6,2,1.8,2.6c1.2,0.6,3.1,1.1,5.6,1.7c2.6,0.6,4.7,1.2,6.4,1.9c1.7,0.6,3.1,1.6,4.3,2.9c1.2,1.3,1.8,3.1,1.8,5.4
		c0,1.9-0.5,3.7-1.6,5.3c-1.1,1.6-2.7,2.9-4.9,3.8c-2.2,0.9-4.8,1.4-7.9,1.4C273.8,58.3,271.2,58,268.7,57.2z"/>
	<path d="M303.3,56.1c-2.8-1.5-5-3.6-6.6-6.3s-2.4-5.7-2.4-9.1s0.8-6.4,2.4-9.1s3.8-4.8,6.6-6.3c2.8-1.5,6-2.3,9.5-2.3
		c3,0,5.6,0.5,8,1.6c2.4,1,4.4,2.5,6,4.5l-5.1,4.7c-2.3-2.7-5.2-4-8.6-4c-2.1,0-4,0.5-5.6,1.4c-1.7,0.9-2.9,2.2-3.9,3.9
		c-0.9,1.7-1.4,3.5-1.4,5.6c0,2.1,0.5,4,1.4,5.6c0.9,1.7,2.2,2.9,3.9,3.9c1.7,0.9,3.5,1.4,5.6,1.4c3.4,0,6.3-1.3,8.6-4l5.1,4.7
		c-1.6,2-3.6,3.5-6,4.5c-2.4,1-5.1,1.6-8,1.6C309.2,58.3,306.1,57.6,303.3,56.1z"/>
	<path d="M353.8,50.4H338l-3,7.3h-8.1l15.2-34.1h7.8l15.2,34.1h-8.3L353.8,50.4z M351.4,44.4l-5.4-13l-5.4,13H351.4z"/>
	<path d="M400,23.6v34.1h-6.5l-17-20.7v20.7h-7.8V23.6h6.5l16.9,20.7V23.6H400z"/>
	<path d="M439.3,23.6v34.1h-6.5l-17-20.7v20.7H408V23.6h6.5l16.9,20.7V23.6H439.3z"/>
	<g>
		<polygon points="455.2,51.4 455.2,43.5 471,43.5 471,37.4 447.4,37.4 447.4,57.7 473.8,57.7 473.8,51.4 		"/>
		<rect x="447.4" y="23.6" width="25.8" height="6.3"/>
	</g>
	<path d="M501.8,57.7l-6.6-9.5h-0.4h-6.9v9.5H480V23.6h14.8c3,0,5.6,0.5,7.9,1.5c2.2,1,3.9,2.4,5.1,4.3c1.2,1.9,1.8,4,1.8,6.6
		s-0.6,4.7-1.8,6.5c-1.2,1.8-2.9,3.2-5.2,4.2l7.6,11H501.8z M499.8,31.6c-1.2-1-3-1.5-5.4-1.5h-6.4V42h6.4c2.4,0,4.2-0.5,5.4-1.6
		c1.2-1,1.9-2.5,1.9-4.4C501.6,34.1,501,32.6,499.8,31.6z"/>
	
		<linearGradient id="SVGID_00000129195135073578414710000001431517466324734102_" gradientUnits="userSpaceOnUse" x1="0" y1="40.0975" x2="68.6571" y2="40.0975">
		<stop  offset="0" style="stop-color:#E629CA"/>
		<stop  offset="1" style="stop-color:#4C01EE"/>
	</linearGradient>
	<path style="fill:url(#SVGID_00000129195135073578414710000001431517466324734102_);" d="M63.6,31L16.4,1.6C9.2-2.8,0,2.3,0,10.7
		V34h17.1V20.3l31.8,19.8L17.1,59.9V47C7.2,49.7,0,58.7,0,69.5l0,0c0,8.4,9.2,13.5,16.4,9.1l47.2-29.4C70.3,45,70.3,35.2,63.6,31z"
		/>
</g>
</svg>
