<svg width="18" height="18" viewBox="0 0 18 18" fill="none" xmlns="http://www.w3.org/2000/svg">
<g clip-path="url(#clip0_6345_11188)">
<path d="M14.3551 9.70578C14.3851 9.48078 14.4001 9.24828 14.4001 9.00078C14.4001 8.76078 14.3851 8.52078 14.3476 8.29578L15.8701 7.11078C16.0051 7.00578 16.0426 6.80328 15.9601 6.65328L14.5201 4.16328C14.4301 3.99828 14.2426 3.94578 14.0776 3.99828L12.2851 4.71828C11.9101 4.43328 11.5126 4.19328 11.0701 4.01328L10.8001 2.10828C10.7701 1.92828 10.6201 1.80078 10.4401 1.80078H7.56008C7.38008 1.80078 7.23758 1.92828 7.20758 2.10828L6.93758 4.01328C6.49508 4.19328 6.09008 4.44078 5.72258 4.71828L3.93008 3.99828C3.76508 3.93828 3.57758 3.99828 3.48758 4.16328L2.05508 6.65328C1.96508 6.81078 1.99508 7.00578 2.14508 7.11078L3.66758 8.29578C3.63008 8.52078 3.60008 8.76828 3.60008 9.00078C3.60008 9.23328 3.61508 9.48078 3.65258 9.70578L2.13008 10.8908C1.99508 10.9958 1.95758 11.1983 2.04008 11.3483L3.48008 13.8383C3.57008 14.0033 3.75758 14.0558 3.92258 14.0033L5.71508 13.2833C6.09008 13.5683 6.48758 13.8083 6.93008 13.9883L7.20008 15.8933C7.23758 16.0733 7.38008 16.2008 7.56008 16.2008H10.4401C10.6201 16.2008 10.7701 16.0733 10.7926 15.8933L11.0626 13.9883C11.5051 13.8083 11.9101 13.5683 12.2776 13.2833L14.0701 14.0033C14.2351 14.0633 14.4226 14.0033 14.5126 13.8383L15.9526 11.3483C16.0426 11.1833 16.0051 10.9958 15.8626 10.8908L14.3551 9.70578ZM9.00008 11.7008C7.51508 11.7008 6.30008 10.4858 6.30008 9.00078C6.30008 7.51578 7.51508 6.30078 9.00008 6.30078C10.4851 6.30078 11.7001 7.51578 11.7001 9.00078C11.7001 10.4858 10.4851 11.7008 9.00008 11.7008Z" fill="black" fill-opacity="0.45"/>
</g>
<defs>
<clipPath id="clip0_6345_11188">
<rect width="18" height="18" fill="white"/>
</clipPath>
</defs>
</svg>
