<svg width="23" height="19" fill="none" xmlns="http://www.w3.org/2000/svg"><g clip-path="url(#a)"><path d="M21.083 2.85h-4.791V1.9c0-1.048-.86-1.9-1.917-1.9h-5.75a1.91 1.91 0 0 0-1.917 1.9v.95H1.917A1.91 1.91 0 0 0 0 4.75V7.6c0 1.048.86 1.9 1.917 1.9h7.666v-.475a.47.47 0 0 1 .296-.439.482.482 0 0 1 .184-.036h2.874a.482.482 0 0 1 .443.293c.024.058.037.12.037.182V9.5h7.666A1.91 1.91 0 0 0 23 7.6V4.75c0-1.048-.86-1.9-1.917-1.9Zm-6.708 0h-5.75V1.9h5.75v.95Zm8.36 7.163a.483.483 0 0 0-.503.046 1.903 1.903 0 0 1-1.149.391h-7.666v1.425a.473.473 0 0 1-.296.439.483.483 0 0 1-.184.036h-2.874a.482.482 0 0 1-.443-.293.47.47 0 0 1-.037-.182V10.45H1.917c-.411 0-.808-.135-1.149-.39a.478.478 0 0 0-.768.378V17.1C0 18.148.86 19 1.917 19h19.166A1.91 1.91 0 0 0 23 17.1v-6.662a.472.472 0 0 0-.266-.425Z" fill="#FF6500"/></g><defs><clipPath id="a"><path fill="#fff" d="M0 0h23v19H0z"/></clipPath></defs></svg>