<svg width="23" height="23" fill="none" xmlns="http://www.w3.org/2000/svg"><g clip-path="url(#a)"><path d="M11.911 22.986c1.759-.25 3.3-2.085 4.27-4.796a20.871 20.871 0 0 0-4.27-.503v5.3Zm2.81-.431c.104-.03.207-.06.31-.094.087-.028.172-.058.258-.088.101-.034.202-.07.302-.109.086-.032.17-.067.255-.101l.293-.123a12.272 12.272 0 0 0 1.056-.534 10.59 10.59 0 0 0 .508-.305 9.89 9.89 0 0 0 .493-.334l.227-.165c.083-.064.167-.129.249-.195.073-.058.146-.116.218-.176.082-.068.161-.139.24-.21l.21-.186c.078-.074.154-.15.23-.225.067-.065.134-.13.199-.197l.036-.039a13.823 13.823 0 0 0-2.817-1.083 10.2 10.2 0 0 1-2.627 4.266c.033-.01.067-.016.1-.025.088-.024.174-.052.26-.077Zm8.28-10.635h-4.93a21.322 21.322 0 0 1-.83 5.687c1.085.29 2.133.707 3.12 1.242A11.483 11.483 0 0 0 23 11.92Zm-11.09-.822h5.338a20.561 20.561 0 0 0-.809-5.484c-1.486.339-3.005.52-4.529.54v4.944Zm0-11.066v5.3a20.89 20.89 0 0 0 4.27-.503c-.97-2.711-2.511-4.547-4.27-4.797Zm0 16.833c1.524.02 3.043.201 4.53.54.515-1.783.787-3.628.808-5.485h-5.338v4.945Zm8.45-12.695c-.987.535-2.035.951-3.12 1.241a21.26 21.26 0 0 1 .83 5.687h4.93a11.488 11.488 0 0 0-2.64-6.928Zm-.555-.624-.036-.038c-.065-.067-.132-.132-.198-.197-.076-.075-.153-.151-.231-.224-.068-.064-.139-.124-.209-.187-.08-.07-.159-.142-.24-.21-.072-.06-.145-.117-.217-.175a8.901 8.901 0 0 0-.477-.36 9.99 9.99 0 0 0-1-.643 11.384 11.384 0 0 0-.277-.153c-.082-.041-.164-.086-.247-.127a9.065 9.065 0 0 0-.287-.139 8.923 8.923 0 0 0-.25-.114c-.098-.043-.197-.082-.295-.123a11.758 11.758 0 0 0-.814-.298 10.24 10.24 0 0 0-.311-.095 9.707 9.707 0 0 0-.258-.073c-.033-.01-.067-.016-.1-.025a10.201 10.201 0 0 1 2.627 4.266 13.797 13.797 0 0 0 2.82-1.085ZM0 11.098h4.929a21.26 21.26 0 0 1 .83-5.687 14.284 14.284 0 0 1-3.12-1.241A11.485 11.485 0 0 0 0 11.098Zm11.089 11.888v-5.3c-1.437.021-2.868.19-4.27.504.97 2.71 2.511 4.546 4.27 4.796Zm0-11.066H5.75c.02 1.857.293 3.702.809 5.485 1.486-.34 3.004-.52 4.529-.54V11.92Zm0-11.888c-1.759.25-3.3 2.086-4.27 4.797a20.86 20.86 0 0 0 4.27.503v-5.3Zm0 6.122a21.652 21.652 0 0 1-4.529-.54 20.553 20.553 0 0 0-.81 5.484h5.339V6.154ZM8.638.364c-.033.01-.067.016-.1.025-.087.023-.173.05-.26.074a9.835 9.835 0 0 0-.568.182c-.1.036-.201.07-.3.109a11.44 11.44 0 0 0-.257.102l-.292.123a11.977 11.977 0 0 0-1.299.674c-.089.054-.177.11-.265.165a10.382 10.382 0 0 0-.493.334l-.227.164c-.084.064-.164.13-.25.195-.072.059-.146.117-.217.177-.083.068-.16.138-.24.208-.07.063-.141.124-.21.189-.078.073-.154.148-.23.223-.066.066-.134.13-.199.198-.012.012-.023.026-.036.038a13.8 13.8 0 0 0 2.817 1.084A10.196 10.196 0 0 1 8.638.365Zm-5.21 19.343c.077.075.153.151.231.225.068.063.139.123.209.186.08.071.159.142.24.21.072.06.144.117.217.175.082.067.164.133.252.197.074.056.149.11.224.165a12.217 12.217 0 0 0 .493.334 10.246 10.246 0 0 0 .785.461c.082.041.164.086.247.127a9.599 9.599 0 0 0 .538.253c.097.044.195.082.294.124a11.073 11.073 0 0 0 .556.21c.086.03.171.06.258.088.103.033.205.064.311.094.086.025.171.05.258.073.033.01.067.016.1.025a10.204 10.204 0 0 1-2.627-4.266c-.976.257-1.92.621-2.817 1.084l.036.039c.062.066.128.13.195.196Zm-.789-.858a14.298 14.298 0 0 1 3.12-1.242 21.323 21.323 0 0 1-.83-5.687H0a11.487 11.487 0 0 0 2.639 6.929Z" fill="#FF6500"/></g><defs><clipPath id="a"><path fill="#fff" d="M0 0h23v23H0z"/></clipPath></defs></svg>