<svg width="24" height="24" fill="none" xmlns="http://www.w3.org/2000/svg"><g clip-path="url(#a)"><path fill-rule="evenodd" clip-rule="evenodd" d="M24 12a.852.852 0 0 0-.253-.606L22.302 9.95l.784-1.887a.847.847 0 0 0 0-.657.843.843 0 0 0-.465-.462l-1.887-.78.002-2.042c0-.23-.09-.447-.25-.609a.867.867 0 0 0-.609-.25l-2.041.003-.78-1.888a.843.843 0 0 0-.463-.464.846.846 0 0 0-.657 0l-1.887.783L12.606.253a.852.852 0 0 0-1.212 0L9.95 1.698 8.064.915a.846.846 0 0 0-.657 0 .843.843 0 0 0-.462.464l-.78 1.888-2.042-.003a.867.867 0 0 0-.609.25.867.867 0 0 0-.25.609l.003 2.041-1.888.78a.843.843 0 0 0-.464.463.846.846 0 0 0 0 .657l.783 1.887-1.445 1.443a.852.852 0 0 0 0 1.212l1.445 1.443-.783 1.887a.846.846 0 0 0 0 .657c.085.21.252.376.464.462l1.888.78-.003 2.042c0 .23.091.447.25.609.162.16.38.25.609.25l2.041-.003.78 1.888a.843.843 0 0 0 .463.465.847.847 0 0 0 .657 0l1.887-.784 1.443 1.445a.852.852 0 0 0 1.212 0l1.443-1.445 1.887.784a.85.85 0 0 0 .657 0 .844.844 0 0 0 .462-.465l.78-1.887 2.042.002c.23 0 .447-.09.609-.25a.866.866 0 0 0 .25-.609l-.003-2.041 1.888-.78a.844.844 0 0 0 .465-.463.846.846 0 0 0 0-.657l-.784-1.887 1.445-1.443A.852.852 0 0 0 24 12Zm-16.14.913a1.295 1.295 0 0 1 0-1.826 1.295 1.295 0 0 1 1.827 0l1.53 1.53 2.978-3.972a1.292 1.292 0 0 1 2.066 1.548l-3.873 5.162a1.294 1.294 0 0 1-1.948.137l-2.58-2.579Z" fill="#FF6500"/></g><defs><clipPath id="a"><path fill="#fff" d="M0 0h24v24H0z"/></clipPath></defs></svg>