<svg width="14" height="14" viewBox="0 0 14 14" fill="none" xmlns="http://www.w3.org/2000/svg">
<path d="M5.41591 7.00391C5.41591 7.41002 5.57724 7.7995 5.8644 8.08666C6.15157 8.37383 6.54105 8.53516 6.94716 8.53516C7.35327 8.53516 7.74275 8.37383 8.02992 8.08666C8.31708 7.7995 8.47841 7.41002 8.47841 7.00391C8.47841 6.59779 8.31708 6.20831 8.02992 5.92115C7.74275 5.63398 7.35327 5.47266 6.94716 5.47266C6.54105 5.47266 6.15157 5.63398 5.8644 5.92115C5.57724 6.20831 5.41591 6.59779 5.41591 7.00391ZM12.8835 6.65117C11.5874 3.9209 9.62822 2.54688 7.00185 2.54688C4.37411 2.54688 2.4163 3.9209 1.12021 6.65254C1.06822 6.76262 1.04126 6.88285 1.04126 7.00459C1.04126 7.12633 1.06822 7.24656 1.12021 7.35664C2.4163 10.0869 4.37548 11.4609 7.00185 11.4609C9.62958 11.4609 11.5874 10.0869 12.8835 7.35527C12.9888 7.13379 12.9888 6.87676 12.8835 6.65117ZM6.94716 9.41016C5.61826 9.41016 4.54091 8.33281 4.54091 7.00391C4.54091 5.675 5.61826 4.59766 6.94716 4.59766C8.27607 4.59766 9.35341 5.675 9.35341 7.00391C9.35341 8.33281 8.27607 9.41016 6.94716 9.41016Z" fill="black" fill-opacity="0.25"/>
</svg>
