<svg width="40" height="40" fill="none" xmlns="http://www.w3.org/2000/svg"><circle cx="20" cy="20" r="20" fill="#FF6500" fill-opacity=".13"/><path d="m23.79 26.273-.22.914a42.55 42.55 0 0 1-1.59.605c-.396.139-.855.208-1.379.208-.804 0-1.43-.199-1.875-.594a1.93 1.93 0 0 1-.67-1.509c0-.236.017-.479.05-.726.034-.248.088-.527.162-.838l.83-2.967c.074-.284.137-.553.187-.808a3.55 3.55 0 0 0 .076-.695c0-.379-.078-.644-.233-.793-.154-.148-.45-.224-.887-.224-.215 0-.436.035-.66.102a9.165 9.165 0 0 0-.581.193l.222-.915a20.634 20.634 0 0 1 1.56-.573c.497-.16.967-.24 1.412-.24.798 0 1.414.195 1.847.585.432.39.649.896.649 1.519 0 .129-.015.356-.045.68-.03.326-.085.624-.166.895l-.827 2.955a7.912 7.912 0 0 0-.181.814 4.195 4.195 0 0 0-.081.69c0 .393.087.66.26.803.175.142.476.213.904.213.201 0 .43-.036.684-.107a3.79 3.79 0 0 0 .552-.187ZM24 13.868c0 .515-.192.955-.578 1.316a1.957 1.957 0 0 1-1.392.545 1.98 1.98 0 0 1-1.4-.544 1.733 1.733 0 0 1-.583-1.317c0-.514.195-.954.584-1.32A1.97 1.97 0 0 1 22.03 12c.543 0 1.007.183 1.392.548.386.366.578.807.578 1.32Z" fill="#FF6500"/></svg>