<svg width="40" height="40" fill="none" xmlns="http://www.w3.org/2000/svg"><circle cx="20" cy="20" r="20" fill="#FF6500" fill-opacity=".13"/><g clip-path="url(#a)"><path d="M14.105 16h11.79c.53.002.986.375 1.087.89L20 20.744l-6.982-3.854a1.108 1.108 0 0 1 1.087-.89Zm11.79 9h-11.79A1.103 1.103 0 0 1 13 23.905v-6.19l6.82 3.767a.39.39 0 0 0 .18.047.351.351 0 0 0 .18-.047L27 17.715v6.19A1.1 1.1 0 0 1 25.895 25Z" fill="#FF6500"/></g><defs><clipPath id="a"><path fill="#fff" transform="translate(13 16)" d="M0 0h14v9H0z"/></clipPath></defs></svg>