<svg width="329" height="187" fill="none" xmlns="http://www.w3.org/2000/svg"><g filter="url(#a)"><rect x="20" y="7" width="246.625" height="46.176" rx="11.544" fill="#fff"/></g><g filter="url(#b)"><path d="M66.1 42.494c1.146-6.272 7.158-10.428 13.43-9.283l219.901 40.15c6.272 1.145 10.428 7.158 9.283 13.43l-4.147 22.712c-1.145 6.272-7.158 10.428-13.43 9.283l-219.9-40.15c-6.272-1.144-10.429-7.157-9.283-13.43L66.1 42.495Z" fill="#fff"/></g><rect x="85.527" y="47.108" width="71.364" height="4.198" rx="2.099" transform="rotate(10.347 85.527 47.108)" fill="#E4EAF4"/><rect x="159.859" y="60.68" width="37.781" height="4.198" rx="2.099" transform="rotate(10.347 159.859 60.68)" fill="#E4EAF4"/><rect x="201.156" y="68.22" width="60.869" height="4.198" rx="2.099" transform="rotate(10.347 201.156 68.22)" fill="#E4EAF4"/><rect x="84.019" y="55.367" width="51.424" height="4.198" rx="2.099" transform="rotate(10.347 84.02 55.367)" fill="#E4EAF4"/><rect x="82.512" y="63.626" width="23.088" height="4.198" rx="2.099" transform="rotate(10.347 82.512 63.626)" fill="#E4EAF4"/><rect x="109.354" y="68.527" width="35.682" height="4.198" rx="2.099" transform="rotate(10.347 109.354 68.527)" fill="#E4EAF4"/><rect x="148.586" y="75.69" width="50.374" height="4.198" rx="2.099" transform="rotate(10.347 148.586 75.69)" fill="#E4EAF4"/><rect x="202.27" y="85.492" width="39.88" height="4.198" rx="2.099" transform="rotate(10.347 202.27 85.492)" fill="#E4EAF4"/><rect x="138.736" y="65.357" width="51.424" height="4.198" rx="2.099" transform="rotate(10.347 138.736 65.357)" fill="#E4EAF4"/><rect x="193.454" y="75.348" width="83.957" height="4.198" rx="2.099" transform="rotate(10.347 193.454 75.348)" fill="#E4EAF4"/><g filter="url(#c)"><path d="M35.958 121.088c-.7-6.337 3.87-12.042 10.208-12.741l222.187-24.52c6.338-.698 12.042 3.872 12.741 10.209l2.533 22.949c.699 6.337-3.871 12.041-10.209 12.741L51.231 154.245c-6.337.699-12.041-3.871-12.74-10.208l-2.533-22.949Z" fill="#fff"/></g><rect x="55.893" y="119.944" width="71.364" height="4.198" rx="2.099" transform="rotate(-6.297 55.893 119.944)" fill="#FF6601"/><rect x="130.998" y="111.656" width="37.781" height="4.198" rx="2.099" transform="rotate(-6.297 130.998 111.656)" fill="#FF6601"/><rect x="172.723" y="107.051" width="60.869" height="4.198" rx="2.099" transform="rotate(-6.297 172.723 107.051)" fill="#FF6601"/><rect x="56.813" y="128.289" width="51.424" height="4.198" rx="2.099" transform="rotate(-6.297 56.813 128.289)" fill="#FF6601"/><rect x="57.734" y="136.634" width="23.088" height="4.198" rx="2.099" transform="rotate(-6.297 57.734 136.634)" fill="#FF6601"/><rect x="84.856" y="133.641" width="35.682" height="4.198" rx="2.099" transform="rotate(-6.297 84.856 133.641)" fill="#FF6601"/><rect x="124.494" y="129.267" width="50.374" height="4.198" rx="2.099" transform="rotate(-6.297 124.494 129.267)" fill="#FF6601"/><rect x="178.738" y="123.281" width="39.88" height="4.198" rx="2.099" transform="rotate(-6.297 178.738 123.281)" fill="#FF6601"/><rect x="112.1" y="122.188" width="51.424" height="4.198" rx="2.099" transform="rotate(-6.297 112.1 122.188)" fill="#FF6601"/><rect x="167.385" y="116.087" width="83.957" height="4.198" rx="2.099" transform="rotate(-6.297 167.385 116.087)" fill="#FF6601"/><defs><filter id="a" x=".69" y=".283" width="285.245" height="84.797" filterUnits="userSpaceOnUse" color-interpolation-filters="sRGB"><feFlood flood-opacity="0" result="BackgroundImageFix"/><feColorMatrix in="SourceAlpha" values="0 0 0 0 0 0 0 0 0 0 0 0 0 0 0 0 0 0 127 0" result="hardAlpha"/><feOffset dy="12.594"/><feGaussianBlur stdDeviation="9.655"/><feComposite in2="hardAlpha" operator="out"/><feColorMatrix values="0 0 0 0 0.956319 0 0 0 0 0.950608 0 0 0 0 0.979167 0 0 0 1 0"/><feBlend in2="BackgroundImageFix" result="effect1_dropShadow_2184_233"/><feBlend in="SourceGraphic" in2="effect1_dropShadow_2184_233" result="shape"/></filter><filter id="b" x="42.453" y="26.305" width="285.76" height="124.575" filterUnits="userSpaceOnUse" color-interpolation-filters="sRGB"><feFlood flood-opacity="0" result="BackgroundImageFix"/><feColorMatrix in="SourceAlpha" values="0 0 0 0 0 0 0 0 0 0 0 0 0 0 0 0 0 0 127 0" result="hardAlpha"/><feOffset dy="12.594"/><feGaussianBlur stdDeviation="9.655"/><feComposite in2="hardAlpha" operator="out"/><feColorMatrix values="0 0 0 0 0.956319 0 0 0 0 0.950608 0 0 0 0 0.979167 0 0 0 1 0"/><feBlend in2="BackgroundImageFix" result="effect1_dropShadow_2184_233"/><feBlend in="SourceGraphic" in2="effect1_dropShadow_2184_233" result="shape"/></filter><filter id="c" x="16.577" y="77.041" width="286.43" height="109.178" filterUnits="userSpaceOnUse" color-interpolation-filters="sRGB"><feFlood flood-opacity="0" result="BackgroundImageFix"/><feColorMatrix in="SourceAlpha" values="0 0 0 0 0 0 0 0 0 0 0 0 0 0 0 0 0 0 127 0" result="hardAlpha"/><feOffset dy="12.594"/><feGaussianBlur stdDeviation="9.655"/><feComposite in2="hardAlpha" operator="out"/><feColorMatrix values="0 0 0 0 0.956319 0 0 0 0 0.950608 0 0 0 0 0.979167 0 0 0 1 0"/><feBlend in2="BackgroundImageFix" result="effect1_dropShadow_2184_233"/><feBlend in="SourceGraphic" in2="effect1_dropShadow_2184_233" result="shape"/></filter></defs></svg>