<svg width="599" height="482" fill="none" xmlns="http://www.w3.org/2000/svg"><path d="m111.5 212 62.486-45.908A27.001 27.001 0 0 0 185 144.333V64c0-14.912 12.088-27 27-27h153c14.912 0 27 12.088 27 27v79.98a27 27 0 0 1-11.467 22.085L237.03 266.993c-17.635 12.403-14.337 39.452 5.761 47.255l22.06 8.564a26.998 26.998 0 0 1 17.228 25.169V400c0 14.912 12.089 27 27 27h83.525c5.468 0 10.808-1.66 15.312-4.762l73.34-50.496a27.002 27.002 0 0 1 24.144-3.277l10.051 3.48c21.729 7.521 42.314-13.825 34.01-35.266L482 162.5" stroke="#E6E6E6" stroke-width="2"/><g filter="url(#a)"><rect x="100" y="103.635" width="165" height="51" rx="25.5" transform="rotate(-8.586 100 103.635)" fill="#fff" shape-rendering="crispEdges"/><path d="m135.503 119.472 2.412-.364c.099-.015.187.032.185.154l-.002 1.456c-.008.082-.039.148-.137.163l-2.453.37.036 4.525 2.433-.367c.099-.015.187.032.185.154l-.042 1.463c-.008.082-.039.147-.138.162l-2.412.364.017 2.931c-.004.101-.038.147-.137.162l-1.918.29c-.099.014-.187-.033-.185-.155l-.012-2.89-2.373.358.018 2.93c-.005.102-.039.148-.138.163l-1.898.286c-.099.015-.187-.032-.185-.154l-.012-2.89-2.452.37c-.099.015-.187-.033-.185-.154l.042-1.463c.008-.082.038-.147.137-.162l2.433-.368-.036-4.525-2.413.364c-.099.015-.187-.032-.185-.154l.002-1.456c.008-.082.039-.148.138-.163l2.452-.37-.026-2.848c.005-.102.039-.147.138-.162l1.898-.287c.099-.015.187.032.185.154l.02 2.809 2.373-.359-.026-2.848c.005-.102.039-.147.138-.162l1.918-.29c.099-.015.187.033.185.154l.02 2.809Zm-4.602 2.475.036 4.525 2.373-.358-.036-4.526-2.373.359Zm21.556.911c.448 2.967-.811 5.341-4.638 6.122l.474 3.002c.018.119-.036.168-.135.183l-2.056.31c-.099.015-.164-.016-.182-.134l-.434-3.009c-3.847.378-5.768-1.496-6.213-4.442-.445-2.947.848-5.367 4.635-6.141l-.538-3.297c-.018-.118.035-.167.134-.182l2.057-.31c.098-.015.164.015.182.134l.479 3.305c4.021-.425 5.784 1.473 6.235 4.459Zm-10.811 1.673c.328 2.176 1.28 3.387 3.623 3.236l-.584-4.14-.541-3.316c-2.146.526-2.83 2.025-2.498 4.22Zm4.795-4.546.47 3.246.652 4.189c2.242-.561 2.844-2.067 2.527-4.164-.331-2.195-1.424-3.405-3.649-3.271Zm12.522 7.352c-3.224.487-5.357-1.315-5.843-4.538-.487-3.224 1.01-5.634 4.233-6.121 3.204-.484 5.32 1.341 5.807 4.564.484 3.204-.994 5.612-4.197 6.095Zm-.242-1.601c1.72-.26 2.363-1.632 1.993-4.084-.368-2.432-1.418-3.629-3.139-3.369-1.757.286-2.39 1.716-2.023 4.149.37 2.452 1.429 3.566 3.169 3.304Zm3.476-9.385c-.015-.099.035-.167.134-.182l8.939-1.349c.099-.015.167.035.182.134l.209 1.384c.015.099-.035.167-.134.182l-3.283.496.479 3.306.798 5.017c.018.118-.036.167-.135.182l-2.116.319c-.098.015-.164-.015-.182-.134l-.699-5.032-.538-3.297-3.263.493c-.099.015-.167-.035-.182-.134l-.209-1.385Zm15.634 8.137c-3.224.487-5.356-1.315-5.843-4.538-.487-3.224 1.01-5.634 4.233-6.121 3.204-.484 5.32 1.341 5.807 4.564.484 3.204-.993 5.612-4.197 6.095Zm-.242-1.601c1.721-.26 2.363-1.632 1.993-4.084-.368-2.432-1.418-3.629-3.139-3.369-1.757.286-2.39 1.716-2.023 4.149.37 2.452 1.429 3.566 3.169 3.304Zm4.451-9.532c-.018-.118.035-.167.134-.182l6.408-.967c.098-.015.167.035.182.134l.209 1.384c.015.099-.036.167-.135.182l-4.153.627.479 3.306.798 5.017c.018.119-.035.167-.134.182l-2.116.32c-.099.015-.164-.016-.182-.135l-.699-5.032-.791-4.836Zm12.821-2.3c2.808-.424 4.657 1.643 5.105 4.61.445 2.946-.818 5.564-3.547 5.976-1.325.2-2.431-.159-3.267-1.003l.715 4.463c.018.119-.036.167-.135.182l-2.116.32c-.099.015-.164-.016-.182-.135l-1.075-7.523-.922-5.707c-.018-.118.035-.167.134-.182l2.076-.313c.099-.015.164.015.182.134l.149 1.252c.54-1.113 1.518-1.868 2.883-2.074Zm.66 9.063c1.74-.263 2.385-1.755 2.053-3.951-.355-2.353-1.417-3.629-3.098-3.375-1.602.242-2.349 1.589-2.014 3.945.342 2.396 1.457 3.623 3.059 3.381Zm11.947-9.429-.232-1.138c-.018-.119.035-.167.134-.182l2.096-.317c.099-.015.164.016.182.135l.678 4.893.812 4.975c.018.118-.035.167-.134.182l-2.077.313c-.098.015-.164-.015-.182-.134l-.148-1.252c-.54 1.113-1.518 1.868-2.883 2.074-2.828.427-4.657-1.643-5.105-4.61-.445-2.946.818-5.564 3.547-5.976 1.345-.203 2.471.153 3.312 1.037Zm-1.366 7.832c1.602-.242 2.349-1.589 2.011-3.965-.345-2.416-1.458-3.623-3.062-3.401-1.744.243-2.385 1.756-2.051 3.971.356 2.353 1.424 3.668 3.102 3.395Zm18.294-6.525c.448 2.967-.812 5.341-4.638 6.121l.473 3.003c.018.119-.035.167-.134.182l-2.057.311c-.099.015-.164-.016-.182-.134l-.434-3.009c-3.847.378-5.768-1.496-6.213-4.443-.445-2.946.848-5.366 4.635-6.14l-.538-3.297c-.018-.119.035-.167.134-.182l2.057-.311c.099-.015.164.016.182.135l.479 3.305c4.022-.425 5.785 1.473 6.236 4.459Zm-10.812 1.673c.329 2.175 1.28 3.387 3.624 3.235l-.585-4.139-.541-3.316c-2.145.526-2.829 2.025-2.498 4.22Zm4.795-4.547.47 3.246.653 4.19c2.241-.561 2.843-2.068 2.527-4.164-.332-2.195-1.425-3.405-3.65-3.272Zm9.533 4.953 3.018-8.142c.027-.085.081-.134.16-.146l2.492-.376c.099-.015.164.016.182.134l.672 4.854.818 5.014c.018.119-.036.168-.135.182l-2.056.311c-.099.015-.164-.016-.182-.134l-.724-4.927-.317-2.501-3.007 8.079c-.028.085-.081.134-.16.146l-2.512.379c-.099.015-.164-.016-.182-.134l-.734-5.128-.776-4.737c-.018-.119.036-.168.134-.182l2.077-.314c.099-.015.164.016.182.134l.703 4.789.347 2.699Zm11.257-9.508 4.094-.618c.098-.015.164.016.182.134l.692 4.852.798 5.017c.018.118-.036.167-.135.182l-2.096.316c-.099.015-.164-.015-.182-.134l-.492-3.526-1.938.292-1.48 3.865c-.027.085-.081.133-.16.145l-2.116.32c-.118.018-.173-.075-.128-.183l1.772-4.07c-1.589-.205-2.569-1.069-2.819-2.73-.326-2.156 1.061-3.417 4.008-3.862Zm2.639 4.618-.521-3.319-1.938.292c-1.306.197-1.922.938-1.77 1.946.167 1.108.986 1.571 2.271 1.377l1.958-.296Z" fill="#1B1B1B"/></g><g filter="url(#b)"><rect x="338" y="79" width="109" height="51" rx="25.5" fill="#fff" shape-rendering="crispEdges"/><path d="M370.74 99.96h2.44c.1 0 .18.06.16.18l-.22 1.44c-.02.08-.06.14-.16.14h-2.48l-.64 4.48h2.46c.1 0 .18.06.16.18l-.26 1.44c-.02.08-.06.14-.16.14h-2.44l-.42 2.9c-.02.1-.06.14-.16.14h-1.94c-.1 0-.18-.06-.16-.18l.42-2.86h-2.4l-.42 2.9c-.02.1-.06.14-.16.14h-1.92c-.1 0-.18-.06-.16-.18l.42-2.86h-2.48c-.1 0-.18-.06-.16-.18l.26-1.44c.02-.08.06-.14.16-.14h2.46l.64-4.48h-2.44c-.1 0-.18-.06-.16-.18l.22-1.44c.02-.08.06-.14.16-.14h2.48l.4-2.82c.02-.1.06-.14.16-.14h1.92c.1 0 .18.06.16.18l-.4 2.78h2.4l.4-2.82c.02-.1.06-.14.16-.14h1.94c.1 0 .18.06.16.18l-.4 2.78Zm-4.92 1.76-.64 4.48h2.4l.64-4.48h-2.4Zm12.879 9.52c-3.2 0-5.04-2.1-5.04-5.36 0-3.26 1.84-5.42 5.08-5.42 2.6 0 4.24 1.46 4.46 3.68.02.1-.04.16-.14.16h-1.92c-.1 0-.14-.04-.16-.14-.24-1.36-1.1-2.06-2.24-2.06-1.78.02-2.62 1.32-2.62 3.76 0 2.5.86 3.74 2.62 3.76 1.3.02 2.2-.84 2.32-2.36.02-.1.08-.16.18-.16h1.96c.1 0 .16.06.14.14-.2 2.34-1.96 4-4.64 4Zm5.376-10.38c0-.12.06-.16.16-.16h8.7c.1 0 .16.04.16.16l-.04 4.9.04 5.08c0 .12-.06.16-.16.16h-2.14c-.1 0-.16-.04-.16-.16l.06-5.08-.02-3.34h-4.16l-.02 3.34.04 5.08c0 .12-.06.16-.16.16h-2.14c-.1 0-.16-.04-.16-.16l.06-5.08-.06-4.9Zm14.957 10.38c-3.26 0-5.1-2.1-5.1-5.36 0-3.26 1.84-5.42 5.1-5.42 3.24 0 5.06 2.12 5.06 5.38 0 3.24-1.82 5.4-5.06 5.4Zm0-1.62c1.74 0 2.58-1.26 2.58-3.74 0-2.46-.86-3.8-2.6-3.8-1.78.02-2.62 1.34-2.62 3.8 0 2.48.88 3.74 2.64 3.74Zm11.423-9.12c2.84 0 4.36 2.32 4.36 5.32 0 2.98-1.64 5.38-4.4 5.38-1.34 0-2.38-.52-3.08-1.48l.04 4.52c0 .12-.06.16-.16.16h-2.14c-.1 0-.16-.04-.16-.16l.06-7.6-.06-5.78c0-.12.06-.16.16-.16h2.1c.1 0 .16.04.16.16l-.04 1.26c.7-1.02 1.78-1.62 3.16-1.62Zm-.7 9.06c1.76 0 2.62-1.38 2.62-3.6 0-2.38-.86-3.8-2.56-3.8-1.62 0-2.56 1.22-2.58 3.6-.02 2.42.9 3.8 2.52 3.8Zm4.838-8.7c0-.1.06-.16.16-.16h9.04c.1 0 .16.06.16.16v1.4c0 .1-.06.16-.16.16h-3.32l-.02 3.34.04 5.08c0 .12-.06.16-.16.16h-2.14c-.1 0-.16-.04-.16-.16l.06-5.08-.04-3.34h-3.3c-.1 0-.16-.06-.16-.16v-1.4Z" fill="#1B1B1B"/></g><g filter="url(#c)"><rect x="240.646" y="164" width="193" height="51" rx="25.5" transform="rotate(14.357 240.646 164)" fill="#fff" shape-rendering="crispEdges"/><path d="m267.167 192.424 2.364.605c.097.025.159.103.11.214l-.57 1.34c-.039.073-.093.121-.19.096l-2.402-.615-1.731 4.182 2.383.61c.097.025.159.103.11.214l-.609 1.33c-.039.073-.093.121-.189.096l-2.364-.605-1.126 2.706c-.044.092-.093.12-.19.096l-1.879-.482c-.097-.024-.16-.102-.111-.214l1.116-2.666-2.325-.595-1.126 2.705c-.044.092-.092.121-.189.096l-1.86-.476c-.097-.025-.16-.103-.111-.214l1.116-2.667-2.402-.615c-.097-.024-.16-.102-.111-.214l.609-1.33c.04-.073.093-.121.19-.096l2.383.61 1.731-4.182-2.364-.605c-.097-.024-.159-.102-.11-.214l.57-1.34c.039-.073.093-.121.19-.096l2.402.615 1.087-2.633c.044-.092.093-.121.19-.096l1.86.476c.097.025.159.103.11.214l-1.077 2.594 2.326.595 1.086-2.632c.044-.092.093-.121.19-.096l1.879.481c.097.025.16.103.111.214l-1.077 2.594Zm-5.203.485-1.731 4.181 2.325.595 1.731-4.181-2.325-.595Zm14.255 2.699c.059-.068.122-.072.199-.052l1.976.506c.117.029.155.122.048.218l-3.895 3.359 1.924 6.356c.029.131-.03.199-.146.169l-2.383-.61c-.078-.02-.126-.074-.145-.161l-.499-1.924-.885-3.075-1.414-.362-1.067 4.33c-.03.117-.098.14-.195.116l-2.073-.531c-.097-.025-.145-.078-.115-.195l1.317-4.906 1.157-4.762c.03-.116.098-.14.195-.115l2.073.53c.097.025.145.079.116.195l-.981 3.671 1.414.362 3.379-3.119Zm3.563 8.777 5.953-6.321c.059-.067.127-.091.204-.071l2.441.625c.097.024.146.078.116.194l-1.273 4.732-1.202 4.937c-.03.116-.098.14-.195.115l-2.015-.516c-.096-.025-.145-.078-.115-.195l1.254-4.819.683-2.427-5.919 6.268c-.058.068-.126.092-.204.072l-2.461-.63c-.096-.025-.145-.078-.115-.194l1.323-5.009 1.132-4.665c.03-.116.098-.14.195-.115l2.034.521c.097.025.146.078.116.194l-1.22 4.684-.732 2.62Zm15.379.118.919-3.75c.029-.116.097-.14.194-.115l2.054.526c.097.025.145.078.115.194l-1.273 4.733-1.201 4.936c-.03.116-.098.14-.195.115l-2.054-.526c-.097-.024-.145-.078-.115-.194l1.13-4.253-4.243-1.086-1.053 4.272c-.03.117-.098.141-.194.116l-2.054-.526c-.097-.025-.145-.078-.116-.195l1.318-4.906 1.157-4.762c.03-.116.098-.14.195-.115l2.054.525c.096.025.145.079.115.195l-.996 3.73 4.243 1.086Zm6.438 8.378c-3.158-.809-4.42-3.299-3.612-6.458.808-3.158 3.127-4.794 6.285-3.986 3.139.804 4.376 3.309 3.568 6.467-.804 3.139-3.102 4.78-6.241 3.977Zm.401-1.57c1.686.432 2.812-.581 3.427-2.983.61-2.383.109-3.895-1.576-4.326-1.73-.422-2.871.648-3.481 3.031-.615 2.403-.075 3.842 1.63 4.278Zm11.575 1.724 5.953-6.321c.059-.068.127-.091.205-.072l2.441.625c.097.025.145.079.115.195l-1.273 4.732-1.202 4.936c-.029.117-.097.14-.194.116l-2.015-.516c-.097-.025-.145-.079-.116-.195l1.255-4.819.683-2.427-5.919 6.268c-.059.068-.127.092-.205.072l-2.46-.63c-.097-.025-.145-.078-.116-.195l1.324-5.008 1.132-4.665c.03-.116.098-.14.194-.115l2.035.521c.097.024.145.078.115.194l-1.219 4.684-.733 2.62Zm15.307 6.829c-3.1-.793-4.362-3.284-3.554-6.442.809-3.158 3.127-4.795 6.266-3.991 2.518.644 3.745 2.465 3.408 4.671-.006.102-.079.145-.175.12l-1.86-.476c-.097-.025-.126-.074-.121-.175.105-1.377-.555-2.269-1.659-2.552-1.729-.422-2.866.63-3.471 2.993-.619 2.422-.094 3.837 1.606 4.293 1.255.341 2.34-.269 2.833-1.711.044-.092.117-.136.214-.111l1.899.486c.097.025.14.098.101.171-.774 2.217-2.891 3.389-5.487 2.724Zm10.356.979c1.221.312 2.179-.124 2.807-1.367.044-.092.112-.116.19-.096l1.937.496c.097.025.16.103.116.195-.792 1.882-2.816 3.016-5.49 2.331-3.216-.823-4.39-3.415-3.612-6.457.804-3.139 3.166-4.785 6.207-4.006 3.101.794 4.314 3.313 3.504 6.719-.025.097-.098.14-.195.115l-7.285-1.865c-.463 2.214.136 3.503 1.821 3.935Zm1.778-7.349c-1.414-.362-2.456.321-3.135 1.923l4.844 1.24c.27-1.376-.178-2.771-1.709-3.163Zm11.416 1.312c2.752.704 3.649 3.329 2.905 6.235-.739 2.887-2.923 4.805-5.597 4.121-1.298-.332-2.176-1.094-2.616-2.198l-1.082 4.389c-.03.116-.098.14-.195.115l-2.073-.53c-.097-.025-.145-.079-.116-.195l1.943-7.348 1.375-5.614c.03-.116.098-.14.195-.115l2.034.52c.097.025.145.079.116.195l-.352 1.211c.931-.815 2.126-1.128 3.463-.786Zm-2.924 8.603c1.705.437 2.88-.687 3.431-2.838.59-2.305.109-3.894-1.538-4.316-1.57-.401-2.783.547-3.392 2.848-.62 2.34-.071 3.905 1.499 4.306Zm8.248.935 5.954-6.321c.058-.068.126-.092.204-.072l2.441.625c.097.025.145.078.115.195l-1.273 4.732-1.201 4.936c-.03.116-.098.14-.195.115l-2.015-.515c-.097-.025-.145-.079-.115-.195l1.254-4.82.683-2.426-5.919 6.268c-.059.068-.127.091-.204.072l-2.461-.63c-.097-.025-.145-.079-.115-.195l1.323-5.008 1.132-4.665c.03-.116.098-.14.195-.116l2.034.521c.097.025.145.079.115.195l-1.219 4.684-.733 2.62Zm16.514-2.379.23-1.139c.03-.116.098-.14.194-.115l2.054.525c.097.025.145.079.116.195l-1.284 4.771-1.191 4.897c-.03.116-.098.14-.195.116l-2.034-.521c-.097-.025-.145-.079-.116-.195l.352-1.211c-.931.815-2.126 1.128-3.463.786-2.771-.709-3.649-3.328-2.905-6.235.739-2.887 2.923-4.805 5.597-4.121 1.317.338 2.215 1.104 2.645 2.247Zm-4.311 6.679c1.57.402 2.783-.547 3.397-2.867.625-2.359.071-3.905-1.494-4.326-1.7-.455-2.88.688-3.436 2.858-.59 2.305-.119 3.933 1.533 4.335Zm16.925-4.813c.097.024.145.078.115.194l-1.274 4.897-1.162 4.782c-.029.116-.097.14-.194.115l-2.054-.526c-.097-.025-.145-.078-.115-.194l1.239-4.762.81-3.405-3.081-.789c-.469 1.511-1.171 3.767-1.614 5.016-.754 2.058-1.609 3.222-3.586 2.716-.406-.104-.682-.237-.875-.369-.073-.039-.092-.126-.072-.204l.322-1.259c.025-.097.098-.14.209-.091.112.049.242.103.359.133.775.198 1.199-.168 1.731-1.683.498-1.38 1.343-4.198 1.937-6.276.024-.097.097-.14.194-.115l7.111 1.82Zm3.5.875c.097.025.145.078.116.195l-.912 3.4 1.453.372c2.926.749 4.199 2.148 3.638 4.337-.565 2.209-2.378 2.839-5.284 2.095l-1.434-.367-.005.02-2.228-.571c-.097-.024-.145-.078-.116-.194l1.303-4.849 1.201-4.853c.03-.117.098-.141.195-.116l2.073.531Zm5.439 6.821 1.201-4.936c.03-.116.098-.14.195-.115l2.073.531c.097.024.145.078.115.194l-1.298 4.912-1.176 4.757c-.03.116-.098.14-.195.115l-2.073-.531c-.097-.025-.145-.078-.116-.194l1.274-4.733Zm-6.651-1.681-.834 3.337 1.473.377c1.317.337 2.197.046 2.489-1.097.278-1.085-.164-1.858-1.636-2.235l-1.492-.382Z" fill="#1B1B1B"/></g><g filter="url(#d)"><rect x="141" y="272" width="174" height="51" rx="25.5" fill="#fff" shape-rendering="crispEdges"/><path d="M173.74 292.96h2.44c.1 0 .18.06.16.18l-.22 1.44c-.02.08-.06.14-.16.14h-2.48l-.64 4.48h2.46c.1 0 .18.06.16.18l-.26 1.44c-.02.08-.06.14-.16.14h-2.44l-.42 2.9c-.02.1-.06.14-.16.14h-1.94c-.1 0-.18-.06-.16-.18l.42-2.86h-2.4l-.42 2.9c-.02.1-.06.14-.16.14h-1.92c-.1 0-.18-.06-.16-.18l.42-2.86h-2.48c-.1 0-.18-.06-.16-.18l.26-1.44c.02-.08.06-.14.16-.14h2.46l.64-4.48h-2.44c-.1 0-.18-.06-.16-.18l.22-1.44c.02-.08.06-.14.16-.14h2.48l.4-2.82c.02-.1.06-.14.16-.14h1.92c.1 0 .18.06.16.18l-.4 2.78h2.4l.4-2.82c.02-.1.06-.14.16-.14h1.94c.1 0 .18.06.16.18l-.4 2.78Zm-4.92 1.76-.64 4.48h2.4l.64-4.48h-2.4Zm10.699 2.2.08 6.92c0 .12-.06.16-.16.16h-2.16c-.1 0-.16-.04-.16-.16l.08-6.92-.08-6.76c0-.12.06-.16.16-.16h2.16c.1 0 .16.04.16.16l-.08 6.76Zm7.385.12.1 6.8c0 .12-.06.16-.16.16h-2.24c-.1 0-.16-.04-.16-.16l.1-6.8-.06-5.2h-3.9c-.1 0-.16-.06-.16-.16v-1.52c0-.1.06-.16.16-.16h10.28c.1 0 .16.06.16.16v1.52c0 .1-.06.16-.16.16h-3.88l-.08 5.2Zm7.623-3.18c0-.1.06-.16.16-.16h9.04c.1 0 .16.06.16.16v1.4c0 .1-.06.16-.16.16h-3.32l-.02 3.34.04 5.08c0 .12-.06.16-.16.16h-2.14c-.1 0-.16-.04-.16-.16l.06-5.08-.04-3.34h-3.3c-.1 0-.16-.06-.16-.16v-1.4Zm14.284 8.76c1.26 0 2.08-.66 2.38-2.02.02-.1.08-.14.16-.14h2c.1 0 .18.06.16.16-.3 2.02-1.98 3.62-4.74 3.62-3.32 0-5.1-2.22-5.1-5.36 0-3.24 1.88-5.42 5.02-5.42 3.2 0 5 2.14 5.06 5.64 0 .1-.06.16-.16.16h-7.52c.1 2.26 1 3.36 2.74 3.36Zm-.1-7.56c-1.46 0-2.3.92-2.56 2.64h5c-.08-1.4-.86-2.64-2.44-2.64Zm13.427-1.36c.12 0 .16.08.1.2l-2.9 4.78 3.16 5.12c.06.1.02.2-.1.2h-2.38c-.08 0-.14-.06-.18-.12l-2.22-3.84-2.18 3.84c-.04.08-.1.12-.18.12h-2.16c-.12 0-.16-.08-.1-.2l3.2-5.28-2.98-4.62c-.06-.1-.02-.2.1-.2h2.36c.08 0 .14.06.18.12l2.06 3.56 1.94-3.56c.04-.08.1-.12.18-.12h2.1Zm7.577 4.02-.04-3.86c0-.12.06-.16.16-.16h2.12c.1 0 .16.04.16.16l-.06 4.9.06 5.08c0 .12-.06.16-.16.16h-2.12c-.1 0-.16-.04-.16-.16l.04-4.4h-4.38l.04 4.4c0 .12-.06.16-.16.16h-2.12c-.1 0-.16-.04-.16-.16l.06-5.08-.06-4.9c0-.12.06-.16.16-.16h2.12c.1 0 .16.04.16.16l-.04 3.86h4.38Zm8.313 6.52c-3.26 0-5.1-2.1-5.1-5.36 0-3.26 1.84-5.42 5.1-5.42 3.24 0 5.06 2.12 5.06 5.38 0 3.24-1.82 5.4-5.06 5.4Zm0-1.62c1.74 0 2.58-1.26 2.58-3.74 0-2.46-.86-3.8-2.6-3.8-1.78.02-2.62 1.34-2.62 3.8 0 2.48.88 3.74 2.64 3.74Zm14.322-8.92c.1 0 .16.04.16.16l-.02 5.06.06 4.92c0 .12-.06.16-.16.16h-2.12c-.1 0-.16-.04-.16-.16l.02-4.92-.06-3.5h-3.18c-.08 1.58-.2 3.94-.32 5.26-.22 2.18-.76 3.52-2.8 3.52-.42 0-.72-.06-.94-.14-.08-.02-.12-.1-.12-.18v-1.3c0-.1.06-.16.18-.14.12.02.26.04.38.04.8 0 1.12-.46 1.26-2.06.14-1.46.26-4.4.32-6.56 0-.1.06-.16.16-.16h7.34Zm6.089 10.54c-3.26 0-5.1-2.1-5.1-5.36 0-3.26 1.84-5.42 5.1-5.42 3.24 0 5.06 2.12 5.06 5.38 0 3.24-1.82 5.4-5.06 5.4Zm0-1.62c1.74 0 2.58-1.26 2.58-3.74 0-2.46-.86-3.8-2.6-3.8-1.78.02-2.62 1.34-2.62 3.8 0 2.48.88 3.74 2.64 3.74Zm5.824-8.76c0-.12.06-.16.16-.16h6.48c.1 0 .16.06.16.16v1.4c0 .1-.06.16-.16.16h-4.2l-.02 3.34.04 5.08c0 .12-.06.16-.16.16h-2.14c-.1 0-.16-.04-.16-.16l.06-5.08-.06-4.9Zm9.82 7.56 4.2-7.6c.04-.08.1-.12.18-.12h2.52c.1 0 .16.04.16.16l-.06 4.9.06 5.08c0 .12-.06.16-.16.16h-2.08c-.1 0-.16-.04-.16-.16l.02-4.98.06-2.52-4.18 7.54c-.04.08-.1.12-.18.12h-2.54c-.1 0-.16-.04-.16-.16l.04-5.18-.06-4.8c0-.12.06-.16.16-.16h2.1c.1 0 .16.04.16.16l-.02 4.84-.06 2.72Zm10.488 0 4.2-7.6c.04-.08.1-.12.18-.12h2.52c.1 0 .16.04.16.16l-.06 4.9.06 5.08c0 .12-.06.16-.16.16h-2.08c-.1 0-.16-.04-.16-.16l.02-4.98.06-2.52-4.18 7.54c-.04.08-.1.12-.18.12h-2.54c-.1 0-.16-.04-.16-.16l.04-5.18-.06-4.8c0-.12.06-.16.16-.16h2.1c.1 0 .16.04.16.16l-.02 4.84-.06 2.72Z" fill="#1B1B1B"/></g><g filter="url(#e)"><rect x="19" y="193.742" width="129" height="51" rx="25.5" transform="rotate(-.774 19 193.742)" fill="#fff" shape-rendering="crispEdges"/><path d="m52.02 214.258 2.44-.033c.1-.001.18.057.162.178l-.2 1.443c-.02.08-.059.14-.159.142l-2.48.033-.579 4.488 2.46-.033c.1-.001.18.058.162.178l-.24 1.443c-.02.081-.058.141-.158.143l-2.44.032-.381 2.906c-.019.1-.058.141-.158.142l-1.94.026c-.1.002-.18-.057-.162-.178l.381-2.865-2.4.032-.38 2.906c-.02.1-.059.141-.159.142l-1.92.026c-.1.001-.18-.058-.162-.178l.381-2.865-2.48.033c-.1.001-.18-.057-.162-.178l.24-1.443c.02-.08.059-.141.159-.142l2.46-.033.58-4.489-2.44.033c-.1.002-.181-.057-.163-.178l.2-1.442c.02-.081.059-.141.159-.143l2.48-.033.361-2.825c.019-.1.058-.141.158-.142l1.92-.026c.1-.002.18.057.162.178l-.362 2.785 2.4-.033.362-2.825c.018-.1.058-.141.158-.142l1.94-.026c.1-.002.18.057.162.178l-.362 2.785Zm-4.896 1.826-.58 4.488 2.4-.032.58-4.488-2.4.032Zm14.465-1.115c.039-.081.099-.102.179-.103l2.04-.027c.12-.002.18.077.102.198l-2.883 4.26 3.517 5.633c.061.119.023.199-.097.201l-2.46.033c-.08.001-.14-.038-.182-.117l-.983-1.727-1.657-2.738-1.46.02.1 4.459c.002.12-.058.16-.158.162l-2.14.029c-.1.001-.16-.038-.162-.158l-.008-5.08-.127-4.899c-.001-.12.058-.161.158-.162l2.14-.029c.1-.002.16.038.162.158l.011 3.8 1.46-.02 2.448-3.893Zm8.823-.419c2.84-.039 4.391 2.26 4.432 5.26.04 2.98-1.568 5.402-4.327 5.439-1.34.018-2.387-.488-3.1-1.438l.101 4.519c.002.12-.058.161-.158.162l-2.14.029c-.1.001-.16-.038-.162-.158l-.042-7.6-.139-5.779c-.001-.12.058-.161.158-.162l2.1-.028c.1-.002.16.038.162.158l-.023 1.26c.686-1.029 1.758-1.644 3.138-1.662Zm-.577 9.068c1.76-.024 2.6-1.415 2.57-3.635-.031-2.38-.91-3.788-2.61-3.765-1.62.022-2.544 1.254-2.532 3.635.013 2.42.952 3.787 2.572 3.765Zm13.117-7.718-.075-1.159c-.002-.12.058-.161.157-.162l2.12-.029c.1-.001.16.038.163.158l.006 4.941.128 5.038c.002.12-.058.161-.158.163l-2.1.028c-.1.001-.16-.038-.162-.158l.023-1.26c-.686 1.029-1.758 1.644-3.137 1.662-2.86.039-4.391-2.261-4.432-5.26-.04-2.98 1.567-5.402 4.327-5.439 1.36-.019 2.427.487 3.14 1.477Zm-2.418 7.574c1.62-.022 2.544-1.255 2.531-3.655-.013-2.44-.951-3.787-2.571-3.785-1.76.003-2.601 1.415-2.571 3.655.032 2.379.912 3.828 2.611 3.785Zm10.785 1.534c-3.2.043-5.068-2.032-5.112-5.291-.044-3.26 1.767-5.445 5.006-5.488 2.6-.035 4.26 1.402 4.51 3.619.02.1-.038.161-.138.162l-1.92.026c-.1.001-.14-.038-.162-.138-.258-1.357-1.128-2.045-2.268-2.029-1.78.044-2.602 1.355-2.569 3.795.034 2.499.91 3.728 2.67 3.724 1.301.002 2.19-.87 2.289-2.391.018-.101.078-.161.178-.163l1.96-.026c.1-.002.16.058.141.138-.168 2.342-1.905 4.026-4.585 4.062Zm10.235-.138c-3.26.044-5.128-2.031-5.172-5.291-.044-3.259 1.766-5.444 5.026-5.488 3.24-.044 5.088 2.051 5.132 5.311.044 3.24-1.747 5.424-4.986 5.468Zm-.022-1.62c1.74-.023 2.562-1.295 2.529-3.774-.033-2.46-.911-3.788-2.651-3.765-1.78.044-2.602 1.375-2.569 3.835.034 2.48.93 3.728 2.691 3.704Zm4.719-8.824c-.001-.1.058-.161.158-.163l9.039-.122c.1-.001.161.058.162.158l.019 1.4c.002.1-.058.161-.158.162l-3.319.045.025 3.34.108 5.079c.002.12-.058.161-.158.162l-2.139.029c-.1.001-.161-.038-.162-.158l-.009-5.08-.085-3.339-3.3.044c-.1.002-.161-.057-.162-.157l-.019-1.4Zm16.678.935-.075-1.16c-.002-.12.057-.16.157-.162l2.12-.028c.1-.002.161.038.162.158l.007 4.94.128 5.039c.002.12-.058.16-.158.162l-2.1.028c-.1.001-.16-.038-.162-.158l.023-1.26c-.686 1.029-1.758 1.644-3.138 1.662-2.859.039-4.391-2.261-4.431-5.26-.04-2.98 1.567-5.402 4.327-5.439 1.36-.019 2.427.487 3.14 1.478Zm-2.418 7.573c1.62-.022 2.543-1.255 2.531-3.655-.013-2.44-.951-3.787-2.571-3.785-1.76.004-2.601 1.415-2.571 3.655.032 2.38.912 3.828 2.611 3.785Z" fill="#1B1B1B"/></g><g filter="url(#f)"><rect x="451" y="153.292" width="106" height="51" rx="25.5" transform="rotate(-7.75 451 153.292)" fill="#fff" shape-rendering="crispEdges"/><path d="m486.267 169.646 2.418-.329c.099-.013.186.036.182.157l-.023 1.457c-.009.082-.041.147-.14.16l-2.457.334-.031 4.526 2.438-.332c.099-.013.186.035.183.157l-.064 1.462c-.009.082-.04.147-.139.16l-2.418.329-.025 2.93c-.007.102-.041.147-.14.16l-1.922.262c-.099.014-.187-.035-.183-.157l.031-2.89-2.379.323-.025 2.931c-.006.101-.04.146-.139.16l-1.903.259c-.099.013-.186-.035-.183-.157l.031-2.891-2.457.335c-.099.013-.187-.035-.183-.157l.063-1.462c.009-.082.041-.147.14-.16l2.437-.332.031-4.525-2.418.329c-.099.013-.187-.035-.183-.157l.024-1.457c.009-.082.04-.146.139-.16l2.458-.334.016-2.848c.006-.102.041-.147.14-.161l1.902-.259c.099-.013.187.036.183.157l-.022 2.809 2.378-.324.017-2.848c.006-.102.04-.147.139-.16l1.923-.262c.099-.013.186.035.182.157l-.021 2.808Zm-4.638 2.408-.03 4.525 2.378-.324.03-4.525-2.378.324Zm14.223-2.864c.029-.085.085-.113.165-.124l2.021-.275c.119-.016.189.055.126.185l-2.344 4.578 4.174 5.164c.076.111.047.196-.072.212l-2.437.332c-.08.01-.144-.021-.195-.095l-1.186-1.595-1.977-2.516-1.447.197.641 4.414c.016.119-.038.166-.137.18l-2.12.288c-.099.014-.164-.018-.18-.137l-.626-5.041-.72-4.847c-.016-.119.038-.167.137-.181l2.12-.288c.1-.014.164.018.181.137l.472 3.771 1.447-.197 1.957-4.162Zm10.504 2.527-.56-3.82c-.016-.119.038-.166.137-.18l2.101-.286c.099-.013.164.018.18.137l.601 4.863.745 5.026c.016.119-.038.167-.137.18l-2.101.286c-.099.013-.164-.018-.18-.137l-.554-4.365-4.34.59.633 4.355c.016.119-.038.166-.137.18l-2.1.286c-.1.013-.164-.018-.181-.137l-.625-5.042-.72-4.847c-.016-.119.038-.167.137-.18l2.1-.286c.099-.014.164.018.18.137l.481 3.83 4.34-.59Zm6.26 2.882 3.137-8.097c.029-.085.083-.133.162-.143l2.497-.34c.099-.014.164.018.18.137l.601 4.863.745 5.026c.016.119-.038.166-.137.18l-2.061.28c-.099.014-.164-.018-.18-.137l-.652-4.937-.28-2.505-3.125 8.035c-.029.084-.083.132-.163.143l-2.516.342c-.099.014-.164-.018-.181-.136l-.658-5.139-.707-4.748c-.016-.119.038-.166.137-.18l2.081-.283c.099-.013.164.018.18.137l.633 4.799.307 2.703Zm7.055-8.59c-.017-.119.037-.166.136-.18l6.421-.874c.099-.013.167.038.18.137l.189 1.387c.014.1-.038.167-.137.181l-4.161.566.43 3.312.725 5.028c.016.119-.038.167-.137.18l-2.121.289c-.099.013-.164-.018-.18-.137l-.625-5.042-.72-4.847Zm10.75 6.167 3.137-8.097c.028-.085.082-.132.162-.143l2.497-.34c.099-.013.164.018.18.137l.601 4.863.744 5.026c.017.119-.037.167-.136.18l-2.061.28c-.1.014-.164-.018-.181-.136l-.651-4.938-.281-2.505-3.125 8.035c-.029.085-.083.132-.162.143l-2.517.343c-.099.013-.164-.018-.18-.137l-.659-5.138-.706-4.748c-.017-.119.038-.167.137-.181l2.08-.283c.1-.013.164.018.181.137l.632 4.799.308 2.703Z" fill="#1B1B1B"/></g><g filter="url(#g)"><rect x="483.402" y="319" width="102" height="51" rx="25.5" transform="rotate(9.484 483.402 319)" fill="#fff" shape-rendering="crispEdges"/><path d="m512.241 345.068 2.407.402c.098.017.167.089.128.204l-.454 1.384c-.033.076-.083.128-.181.112l-2.446-.409-1.37 4.313 2.427.406c.098.016.167.089.128.204l-.494 1.377c-.033.076-.082.128-.181.112l-2.406-.402-.893 2.791c-.036.095-.082.128-.18.112l-1.914-.32c-.099-.016-.168-.089-.128-.204l.885-2.751-2.367-.396-.892 2.791c-.036.096-.082.128-.181.112l-1.894-.316c-.098-.017-.167-.089-.128-.204l.886-2.752-2.446-.409c-.099-.016-.168-.088-.128-.204l.493-1.377c.033-.076.083-.128.181-.112l2.427.406 1.369-4.314-2.407-.402c-.098-.016-.167-.089-.128-.204l.454-1.384c.033-.075.083-.128.181-.111l2.446.408.86-2.715c.036-.096.082-.129.18-.112l1.894.316c.099.017.168.089.128.204l-.852 2.676 2.367.396.859-2.716c.036-.095.082-.128.181-.112l1.914.32c.098.017.167.089.128.204l-.853 2.676Zm-5.143.925-1.369 4.314 2.367.395 1.37-4.313-2.368-.396Zm12.556 8.83 4.004-6.976c.033-.075.119-.102.197-.088l2.604.435c.099.016.152.065.132.184l-.87 4.964-.775 4.879c-.019.119-.085.148-.184.132l-1.972-.33c-.099-.016-.152-.066-.132-.184l.781-4.554.402-2.163.119-.71-4.011 7.015c-.033.076-.118.102-.197.089l-1.381-.231c-.079-.013-.151-.066-.158-.148l-1.555-8.046-.119.832-.3 2.16-.742 4.56c-.019.118-.085.148-.184.131l-1.598-.267c-.098-.016-.151-.065-.131-.184l.873-4.862.791-4.978c.02-.119.086-.148.184-.132l2.565.429c.079.013.151.066.157.148l1.5 7.895Zm11.063 4.768c-3.215-.537-4.684-2.912-4.147-6.127.537-3.216 2.708-5.043 5.923-4.506 3.196.534 4.642 2.925 4.105 6.14-.534 3.196-2.685 5.027-5.881 4.493Zm.267-1.598c1.716.287 2.753-.818 3.161-3.264.405-2.426-.222-3.89-1.938-4.176-1.759-.274-2.805.89-3.21 3.316-.409 2.446.251 3.834 1.987 4.124Zm15.612-6.436c.099.017.148.086.132.185l-.785 4.695-.507 3.646 1.163.194c.099.017.148.086.132.184l-.636 3.808c-.017.098-.086.147-.184.131l-1.756-.293c-.099-.017-.151-.066-.131-.184l.323-2.299-6.707-1.12-.442 2.278c-.02.119-.085.148-.184.132l-1.795-.3c-.099-.017-.148-.086-.132-.184l.636-3.808c.017-.098.086-.147.185-.131l.67.112c.622-.444 1.066-1.282 1.402-2.442.369-1.237.869-3.383 1.311-5.662.016-.098.085-.148.184-.131l7.121 1.189Zm-3.528 8.13.61-3.649.468-3.166-3.136-.524c-.336 1.525-.709 3.146-.995 4.132-.336 1.161-.721 1.887-1.188 2.499l4.241.708Zm12.207-5.342.132-1.154c.019-.118.085-.148.184-.131l2.091.349c.098.017.151.066.131.184l-.873 4.863-.771 4.981c-.02.118-.086.148-.184.132l-2.072-.347c-.098-.016-.151-.065-.131-.184l.247-1.236c-.858.891-2.023 1.305-3.384 1.077-2.821-.471-3.918-3.006-3.424-5.965.491-2.94 2.504-5.037 5.227-4.582 1.341.224 2.301.912 2.827 2.013Zm-3.728 7.022c1.598.267 2.726-.781 3.141-3.145.422-2.404-.262-3.897-1.856-4.183-1.733-.31-2.812.929-3.181 3.139-.392 2.347.216 3.929 1.896 4.189Z" fill="#1B1B1B"/></g><g filter="url(#h)"><rect x="175" y="400" width="271" height="51" rx="25.5" fill="#fff" shape-rendering="crispEdges"/><path d="M207.74 420.96h2.44c.1 0 .18.06.16.18l-.22 1.44c-.02.08-.06.14-.16.14h-2.48l-.64 4.48h2.46c.1 0 .18.06.16.18l-.26 1.44c-.02.08-.06.14-.16.14h-2.44l-.42 2.9c-.02.1-.06.14-.16.14h-1.94c-.1 0-.18-.06-.16-.18l.42-2.86h-2.4l-.42 2.9c-.02.1-.06.14-.16.14h-1.92c-.1 0-.18-.06-.16-.18l.42-2.86h-2.48c-.1 0-.18-.06-.16-.18l.26-1.44c.02-.08.06-.14.16-.14h2.46l.64-4.48h-2.44c-.1 0-.18-.06-.16-.18l.22-1.44c.02-.08.06-.14.16-.14h2.48l.4-2.82c.02-.1.06-.14.16-.14h1.92c.1 0 .18.06.16.18l-.4 2.78h2.4l.4-2.82c.02-.1.06-.14.16-.14h1.94c.1 0 .18.06.16.18l-.4 2.78Zm-4.92 1.76-.64 4.48h2.4l.64-4.48h-2.4Zm12.879 9.52c-3.2 0-5.04-2.1-5.04-5.36 0-3.26 1.84-5.42 5.08-5.42 2.6 0 4.24 1.46 4.46 3.68.02.1-.04.16-.14.16h-1.92c-.1 0-.14-.04-.16-.14-.24-1.36-1.1-2.06-2.24-2.06-1.78.02-2.62 1.32-2.62 3.76 0 2.5.86 3.74 2.62 3.76 1.3.02 2.2-.84 2.32-2.36.02-.1.08-.16.18-.16h1.96c.1 0 .16.06.14.14-.2 2.34-1.96 4-4.64 4Zm5.376-10.38c0-.12.06-.16.16-.16h8.7c.1 0 .16.04.16.16l-.04 4.9.04 5.08c0 .12-.06.16-.16.16h-2.14c-.1 0-.16-.04-.16-.16l.06-5.08-.02-3.34h-4.16l-.02 3.34.04 5.08c0 .12-.06.16-.16.16h-2.14c-.1 0-.16-.04-.16-.16l.06-5.08-.06-4.9Zm14.957 10.38c-3.26 0-5.1-2.1-5.1-5.36 0-3.26 1.84-5.42 5.1-5.42 3.24 0 5.06 2.12 5.06 5.38 0 3.24-1.82 5.4-5.06 5.4Zm0-1.62c1.74 0 2.58-1.26 2.58-3.74 0-2.46-.86-3.8-2.6-3.8-1.78.02-2.62 1.34-2.62 3.8 0 2.48.88 3.74 2.64 3.74Zm11.423-9.12c2.84 0 4.36 2.32 4.36 5.32 0 2.98-1.64 5.38-4.4 5.38-1.34 0-2.38-.52-3.08-1.48l.04 4.52c0 .12-.06.16-.16.16h-2.14c-.1 0-.16-.04-.16-.16l.06-7.6-.06-5.78c0-.12.06-.16.16-.16h2.1c.1 0 .16.04.16.16l-.04 1.26c.7-1.02 1.78-1.62 3.16-1.62Zm-.7 9.06c1.76 0 2.62-1.38 2.62-3.6 0-2.38-.86-3.8-2.56-3.8-1.62 0-2.56 1.22-2.58 3.6-.02 2.42.9 3.8 2.52 3.8Zm4.838-8.7c0-.1.06-.16.16-.16h9.04c.1 0 .16.06.16.16v1.4c0 .1-.06.16-.16.16h-3.32l-.02 3.34.04 5.08c0 .12-.06.16-.16.16h-2.14c-.1 0-.16-.04-.16-.16l.06-5.08-.04-3.34h-3.3c-.1 0-.16-.06-.16-.16v-1.4Zm12.389 7.56 4.2-7.6c.04-.08.1-.12.18-.12h2.52c.1 0 .16.04.16.16l-.06 4.9.06 5.08c0 .12-.06.16-.16.16h-2.08c-.1 0-.16-.04-.16-.16l.02-4.98.06-2.52-4.18 7.54c-.04.08-.1.12-.18.12h-2.54c-.1 0-.16-.04-.16-.16l.04-5.18-.06-4.8c0-.12.06-.16.16-.16h2.1c.1 0 .16.04.16.16l-.02 4.84-.06 2.72Zm14.728-2.94v.02c1.72.38 2.44 1.24 2.44 2.6 0 2.54-2.74 2.9-4.38 2.9h-4.48c-.1 0-.16-.04-.16-.16l.06-5.08-.04-4.9c0-.12.06-.16.16-.16h4.42c2.62 0 4.12.8 4.12 2.54 0 1.24-.84 1.94-2.14 2.24Zm-2-3.18h-2.18l-.02 2.54h2.2c1.08 0 1.72-.4 1.72-1.28 0-.84-.68-1.26-1.72-1.26Zm-2.2 4.1.02 3h2.2c1.2 0 1.98-.46 1.98-1.5s-.88-1.5-1.98-1.5h-2.22Zm14.146-1.68-.04-3.86c0-.12.06-.16.16-.16h2.12c.1 0 .16.04.16.16l-.06 4.9.06 5.08c0 .12-.06.16-.16.16h-2.12c-.1 0-.16-.04-.16-.16l.04-4.4h-4.38l.04 4.4c0 .12-.06.16-.16.16h-2.12c-.1 0-.16-.04-.16-.16l.06-5.08-.06-4.9c0-.12.06-.16.16-.16h2.12c.1 0 .16.04.16.16l-.04 3.86h4.38Zm5.794-4.04c.1 0 .16.04.16.16l-.04 3.52h1.5c3.02 0 4.6 1.04 4.6 3.3 0 2.28-1.6 3.34-4.6 3.34h-1.48v.02h-2.3c-.1 0-.16-.04-.16-.16l.06-5.02-.04-5c0-.12.06-.16.16-.16h2.14Zm6.96 5.26-.06-5.08c0-.12.06-.16.16-.16h2.14c.1 0 .16.04.16.16l-.04 5.08.04 4.9c0 .12-.06.16-.16.16h-2.14c-.1 0-.16-.04-.16-.16l.06-4.9Zm-6.86.02.02 3.44h1.52c1.36 0 2.14-.5 2.14-1.68 0-1.12-.62-1.76-2.14-1.76h-1.54Zm15.233 3.66c1.26 0 2.08-.66 2.38-2.02.02-.1.08-.14.16-.14h2c.1 0 .18.06.16.16-.3 2.02-1.98 3.62-4.74 3.62-3.32 0-5.1-2.22-5.1-5.36 0-3.24 1.88-5.42 5.02-5.42 3.2 0 5 2.14 5.06 5.64 0 .1-.06.16-.16.16h-7.52c.1 2.26 1 3.36 2.74 3.36Zm-.1-7.56c-1.46 0-2.3.92-2.56 2.64h5c-.08-1.4-.86-2.64-2.44-2.64Zm16.523-.04-.06-1.16c0-.12.06-.16.16-.16h2.12c.1 0 .16.04.16.16l-.06 4.94.06 5.04c0 .12-.06.16-.16.16h-2.1c-.1 0-.16-.04-.16-.16l.04-1.26c-.7 1.02-1.78 1.62-3.16 1.62-2.86 0-4.36-2.32-4.36-5.32 0-2.98 1.64-5.38 4.4-5.38 1.36 0 2.42.52 3.12 1.52Zm-2.52 7.54c1.62 0 2.56-1.22 2.58-3.62.02-2.44-.9-3.8-2.52-3.82-1.76-.02-2.62 1.38-2.62 3.62 0 2.38.86 3.84 2.56 3.82Zm12.563-4.08v.02c1.72.38 2.44 1.24 2.44 2.6 0 2.54-2.74 2.9-4.38 2.9h-4.48c-.1 0-.16-.04-.16-.16l.06-5.08-.04-4.9c0-.12.06-.16.16-.16h4.42c2.62 0 4.12.8 4.12 2.54 0 1.24-.84 1.94-2.14 2.24Zm-2-3.18h-2.18l-.02 2.54h2.2c1.08 0 1.72-.4 1.72-1.28 0-.84-.68-1.26-1.72-1.26Zm-2.2 4.1.02 3h2.2c1.2 0 1.98-.46 1.98-1.5s-.88-1.5-1.98-1.5h-2.22Zm6.771-5.54c0-.1.06-.16.16-.16h9.04c.1 0 .16.06.16.16v1.4c0 .1-.06.16-.16.16h-3.32l-.02 3.34.04 5.08c0 .12-.06.16-.16.16h-2.14c-.1 0-.16-.04-.16-.16l.06-5.08-.04-3.34h-3.3c-.1 0-.16-.06-.16-.16v-1.4Zm14.244 10.38c-3.26 0-5.1-2.1-5.1-5.36 0-3.26 1.84-5.42 5.1-5.42 3.24 0 5.06 2.12 5.06 5.38 0 3.24-1.82 5.4-5.06 5.4Zm0-1.62c1.74 0 2.58-1.26 2.58-3.74 0-2.46-.86-3.8-2.6-3.8-1.78.02-2.62 1.34-2.62 3.8 0 2.48.88 3.74 2.64 3.74Zm11.622-1.26 2.8-7.54c.02-.08.1-.12.18-.12h2.64c.1 0 .16.04.16.16l-.04 5.04.04 4.94c0 .12-.06.16-.16.16h-2c-.1 0-.16-.04-.16-.16l.02-4.62.04-2.2v-.72l-2.8 7.58c-.02.08-.1.12-.18.12h-1.4c-.08 0-.16-.04-.18-.12l-2.86-7.68.02.84.06 2.18.02 4.62c0 .12-.06.16-.16.16h-1.62c-.1 0-.16-.04-.16-.16l.06-4.94-.04-5.04c0-.12.06-.16.16-.16h2.6c.08 0 .16.04.18.12l2.78 7.54Zm11.698 2.88c-3.26 0-5.1-2.1-5.1-5.36 0-3.26 1.84-5.42 5.1-5.42 3.24 0 5.06 2.12 5.06 5.38 0 3.24-1.82 5.4-5.06 5.4Zm0-1.62c1.74 0 2.58-1.26 2.58-3.74 0-2.46-.86-3.8-2.6-3.8-1.78.02-2.62 1.34-2.62 3.8 0 2.48.88 3.74 2.64 3.74Zm11.559-8.52c2.9 0 4.28 2.2 4.28 4.92 0 3.16-1.88 5.2-5 5.2-3.18 0-4.96-2.18-4.96-6.38 0-4.08 1.38-6.64 4.62-7.26 1.18-.22 3.24-.32 4.58-.56.12-.02.18.04.18.14v1.54c0 .08-.04.16-.14.18-1.32.26-3.32.36-4.3.56-1.96.38-2.72 1.7-2.94 3.86.66-1.38 1.88-2.2 3.68-2.2Zm-.7 8.48c1.62 0 2.52-1.22 2.52-3.38 0-2.18-.88-3.46-2.48-3.46s-2.58 1.24-2.58 3.46c0 2.1.9 3.38 2.54 3.38Zm8.145-1.16 4.2-7.6c.04-.08.1-.12.18-.12h2.52c.1 0 .16.04.16.16l-.06 4.9.06 5.08c0 .12-.06.16-.16.16h-2.08c-.1 0-.16-.04-.16-.16l.02-4.98.06-2.52-4.18 7.54c-.04.08-.1.12-.18.12h-2.54c-.1 0-.16-.04-.16-.16l.04-5.18-.06-4.8c0-.12.06-.16.16-.16h2.1c.1 0 .16.04.16.16l-.02 4.84-.06 2.72Zm17.349-7.72c.1 0 .16.04.16.16l-.02 5.06.06 4.92c0 .12-.06.16-.16.16h-2.12c-.1 0-.16-.04-.16-.16l.02-4.92-.06-3.5h-3.18c-.08 1.58-.2 3.94-.32 5.26-.22 2.18-.76 3.52-2.8 3.52-.42 0-.72-.06-.94-.14-.08-.02-.12-.1-.12-.18v-1.3c0-.1.06-.16.18-.14.12.02.26.04.38.04.8 0 1.12-.46 1.26-2.06.14-1.46.26-4.4.32-6.56 0-.1.06-.16.16-.16h7.34Zm3.627 7.72 4.2-7.6c.04-.08.1-.12.18-.12h2.52c.1 0 .16.04.16.16l-.06 4.9.06 5.08c0 .12-.06.16-.16.16h-2.08c-.1 0-.16-.04-.16-.16l.02-4.98.06-2.52-4.18 7.54c-.04.08-.1.12-.18.12h-2.54c-.1 0-.16-.04-.16-.16l.04-5.18-.06-4.8c0-.12.06-.16.16-.16h2.1c.1 0 .16.04.16.16l-.02 4.84-.06 2.72Z" fill="#1B1B1B"/></g><g filter="url(#i)"><circle cx="282.5" cy="35.5" r="28.5" fill="#fff"/></g><path d="M283.001 32.4a3.598 3.598 0 0 0-3.6 3.6 3.597 3.597 0 0 0 3.6 3.6 3.6 3.6 0 1 0 0-7.2Zm0-2.4a6 6 0 1 1 0 12.001 6 6 0 0 1 0-12.001Zm7.8-.3a1.501 1.501 0 1 1-3.002 0 1.501 1.501 0 0 1 3.002 0Zm-7.8-3.3c-2.969 0-3.453.008-4.835.07-.94.044-1.572.17-2.157.398a3.47 3.47 0 0 0-1.296.844 3.486 3.486 0 0 0-.845 1.296c-.228.588-.354 1.218-.397 2.157-.063 1.325-.071 1.788-.071 4.835 0 2.97.008 3.454.07 4.835.044.94.17 1.572.397 2.156.204.522.444.898.842 1.296.405.403.78.645 1.296.844.593.229 1.224.356 2.16.4 1.325.062 1.788.069 4.835.069 2.97 0 3.454-.008 4.835-.07.938-.044 1.569-.17 2.156-.397a3.48 3.48 0 0 0 1.296-.843c.405-.404.646-.78.845-1.296.228-.59.355-1.222.398-2.16.063-1.324.07-1.788.07-4.834 0-2.969-.008-3.454-.07-4.835-.044-.938-.171-1.572-.398-2.157a3.474 3.474 0 0 0-.844-1.296 3.478 3.478 0 0 0-1.296-.845c-.588-.228-1.219-.354-2.157-.397-1.324-.063-1.787-.07-4.835-.07m0-2.4c3.26 0 3.667.012 4.948.072 1.276.06 2.148.26 2.912.558a5.848 5.848 0 0 1 2.126 1.384 5.874 5.874 0 0 1 1.384 2.126c.296.764.498 1.636.558 2.914.056 1.279.072 1.686.072 4.946s-.012 3.667-.072 4.946c-.06 1.28-.262 2.148-.558 2.914a5.874 5.874 0 0 1-1.384 2.126 5.874 5.874 0 0 1-2.126 1.384c-.764.296-1.636.498-2.912.558-1.281.056-1.688.072-4.948.072-3.26 0-3.667-.012-4.948-.072-1.276-.06-2.146-.262-2.912-.558a5.874 5.874 0 0 1-2.126-1.384 5.874 5.874 0 0 1-1.384-2.126c-.298-.764-.498-1.636-.558-2.914C271.014 39.667 271 39.26 271 36s.012-3.667.072-4.946c.06-1.28.26-2.148.558-2.914a5.874 5.874 0 0 1 1.384-2.126 5.874 5.874 0 0 1 2.126-1.384c.764-.298 1.634-.498 2.912-.558 1.282-.056 1.689-.072 4.949-.072" fill="#FF6500"/><defs><filter id="a" x="81.6" y="72.6" width="207.565" height="111.863" filterUnits="userSpaceOnUse" color-interpolation-filters="sRGB"><feFlood flood-opacity="0" result="BackgroundImageFix"/><feColorMatrix in="SourceAlpha" values="0 0 0 0 0 0 0 0 0 0 0 0 0 0 0 0 0 0 127 0" result="hardAlpha"/><feOffset dy="12"/><feGaussianBlur stdDeviation="9.2"/><feComposite in2="hardAlpha" operator="out"/><feColorMatrix values="0 0 0 0 0.6625 0 0 0 0 0.6625 0 0 0 0 0.6625 0 0 0 0.21 0"/><feBlend in2="BackgroundImageFix" result="effect1_dropShadow_2184_235"/><feBlend in="SourceGraphic" in2="effect1_dropShadow_2184_235" result="shape"/></filter><filter id="b" x="319.6" y="72.6" width="145.8" height="87.8" filterUnits="userSpaceOnUse" color-interpolation-filters="sRGB"><feFlood flood-opacity="0" result="BackgroundImageFix"/><feColorMatrix in="SourceAlpha" values="0 0 0 0 0 0 0 0 0 0 0 0 0 0 0 0 0 0 127 0" result="hardAlpha"/><feOffset dy="12"/><feGaussianBlur stdDeviation="9.2"/><feComposite in2="hardAlpha" operator="out"/><feColorMatrix values="0 0 0 0 0.6625 0 0 0 0 0.6625 0 0 0 0 0.6625 0 0 0 0.21 0"/><feBlend in2="BackgroundImageFix" result="effect1_dropShadow_2184_235"/><feBlend in="SourceGraphic" in2="effect1_dropShadow_2184_235" result="shape"/></filter><filter id="c" x="209.6" y="157.6" width="236.419" height="134.065" filterUnits="userSpaceOnUse" color-interpolation-filters="sRGB"><feFlood flood-opacity="0" result="BackgroundImageFix"/><feColorMatrix in="SourceAlpha" values="0 0 0 0 0 0 0 0 0 0 0 0 0 0 0 0 0 0 127 0" result="hardAlpha"/><feOffset dy="12"/><feGaussianBlur stdDeviation="9.2"/><feComposite in2="hardAlpha" operator="out"/><feColorMatrix values="0 0 0 0 0.6625 0 0 0 0 0.6625 0 0 0 0 0.6625 0 0 0 0.21 0"/><feBlend in2="BackgroundImageFix" result="effect1_dropShadow_2184_235"/><feBlend in="SourceGraphic" in2="effect1_dropShadow_2184_235" result="shape"/></filter><filter id="d" x="122.6" y="265.6" width="210.8" height="87.8" filterUnits="userSpaceOnUse" color-interpolation-filters="sRGB"><feFlood flood-opacity="0" result="BackgroundImageFix"/><feColorMatrix in="SourceAlpha" values="0 0 0 0 0 0 0 0 0 0 0 0 0 0 0 0 0 0 127 0" result="hardAlpha"/><feOffset dy="12"/><feGaussianBlur stdDeviation="9.2"/><feComposite in2="hardAlpha" operator="out"/><feColorMatrix values="0 0 0 0 0.6625 0 0 0 0 0.6625 0 0 0 0 0.6625 0 0 0 0.21 0"/><feBlend in2="BackgroundImageFix" result="effect1_dropShadow_2184_235"/><feBlend in="SourceGraphic" in2="effect1_dropShadow_2184_235" result="shape"/></filter><filter id="e" x=".6" y="185.6" width="166.477" height="89.537" filterUnits="userSpaceOnUse" color-interpolation-filters="sRGB"><feFlood flood-opacity="0" result="BackgroundImageFix"/><feColorMatrix in="SourceAlpha" values="0 0 0 0 0 0 0 0 0 0 0 0 0 0 0 0 0 0 127 0" result="hardAlpha"/><feOffset dy="12"/><feGaussianBlur stdDeviation="9.2"/><feComposite in2="hardAlpha" operator="out"/><feColorMatrix values="0 0 0 0 0.6625 0 0 0 0 0.6625 0 0 0 0 0.6625 0 0 0 0.21 0"/><feBlend in2="BackgroundImageFix" result="effect1_dropShadow_2184_235"/><feBlend in="SourceGraphic" in2="effect1_dropShadow_2184_235" result="shape"/></filter><filter id="f" x="432.6" y="132.6" width="148.708" height="101.627" filterUnits="userSpaceOnUse" color-interpolation-filters="sRGB"><feFlood flood-opacity="0" result="BackgroundImageFix"/><feColorMatrix in="SourceAlpha" values="0 0 0 0 0 0 0 0 0 0 0 0 0 0 0 0 0 0 127 0" result="hardAlpha"/><feOffset dy="12"/><feGaussianBlur stdDeviation="9.2"/><feComposite in2="hardAlpha" operator="out"/><feColorMatrix values="0 0 0 0 0.6625 0 0 0 0 0.6625 0 0 0 0 0.6625 0 0 0 0.21 0"/><feBlend in2="BackgroundImageFix" result="effect1_dropShadow_2184_235"/><feBlend in="SourceGraphic" in2="effect1_dropShadow_2184_235" result="shape"/></filter><filter id="g" x="456.599" y="312.6" width="145.809" height="103.909" filterUnits="userSpaceOnUse" color-interpolation-filters="sRGB"><feFlood flood-opacity="0" result="BackgroundImageFix"/><feColorMatrix in="SourceAlpha" values="0 0 0 0 0 0 0 0 0 0 0 0 0 0 0 0 0 0 127 0" result="hardAlpha"/><feOffset dy="12"/><feGaussianBlur stdDeviation="9.2"/><feComposite in2="hardAlpha" operator="out"/><feColorMatrix values="0 0 0 0 0.6625 0 0 0 0 0.6625 0 0 0 0 0.6625 0 0 0 0.21 0"/><feBlend in2="BackgroundImageFix" result="effect1_dropShadow_2184_235"/><feBlend in="SourceGraphic" in2="effect1_dropShadow_2184_235" result="shape"/></filter><filter id="h" x="156.6" y="393.6" width="307.8" height="87.8" filterUnits="userSpaceOnUse" color-interpolation-filters="sRGB"><feFlood flood-opacity="0" result="BackgroundImageFix"/><feColorMatrix in="SourceAlpha" values="0 0 0 0 0 0 0 0 0 0 0 0 0 0 0 0 0 0 127 0" result="hardAlpha"/><feOffset dy="12"/><feGaussianBlur stdDeviation="9.2"/><feComposite in2="hardAlpha" operator="out"/><feColorMatrix values="0 0 0 0 0.6625 0 0 0 0 0.6625 0 0 0 0 0.6625 0 0 0 0.21 0"/><feBlend in2="BackgroundImageFix" result="effect1_dropShadow_2184_235"/><feBlend in="SourceGraphic" in2="effect1_dropShadow_2184_235" result="shape"/></filter><filter id="i" x="235.6" y=".6" width="93.8" height="93.8" filterUnits="userSpaceOnUse" color-interpolation-filters="sRGB"><feFlood flood-opacity="0" result="BackgroundImageFix"/><feColorMatrix in="SourceAlpha" values="0 0 0 0 0 0 0 0 0 0 0 0 0 0 0 0 0 0 127 0" result="hardAlpha"/><feOffset dy="12"/><feGaussianBlur stdDeviation="9.2"/><feComposite in2="hardAlpha" operator="out"/><feColorMatrix values="0 0 0 0 0.6625 0 0 0 0 0.6625 0 0 0 0 0.6625 0 0 0 0.21 0"/><feBlend in2="BackgroundImageFix" result="effect1_dropShadow_2184_235"/><feBlend in="SourceGraphic" in2="effect1_dropShadow_2184_235" result="shape"/></filter></defs></svg>