<svg width="303" height="213" fill="none" xmlns="http://www.w3.org/2000/svg"><g filter="url(#a)"><rect x="16" y="24.03" width="55.502" height="54.709" rx="13.479" transform="rotate(-16.788 16 24.03)" fill="#fff"/></g><g clip-path="url(#b)"><path d="m51.5 47.715-.06.111-.12-.057c-5.191-2.469-8.623-4.101-9.371-6.581-.518-1.716.38-3.392 2.097-3.91 1.321-.398 2.867.072 3.674 1.102l1.596-.482c.102-1.304 1.13-2.55 2.452-2.95 1.716-.517 3.392.382 3.91 2.098.748 2.48-1.209 5.738-4.178 10.669Zm-.25-14.482c-1.493.45-2.716 1.578-3.322 2.95a5.39 5.39 0 0 0-4.4-.62c-2.643.797-4.096 3.491-3.296 6.143.976 3.234 4.694 5.006 10.321 7.68l1.586.757.903-1.508c3.21-5.34 5.327-8.872 4.352-12.107-.8-2.651-3.5-4.093-6.144-3.295Z" fill="#FF6500"/></g><g filter="url(#c)"><rect x="156.559" y="15.519" width="55.502" height="54.709" rx="13.479" transform="rotate(30.68 156.559 15.519)" fill="#fff"/></g><g clip-path="url(#d)"><path d="m163.104 57.69-.123.032-.039-.128c-1.691-5.494-2.808-9.127-1.486-11.355.915-1.541 2.757-2.011 4.298-1.097 1.188.704 1.886 2.161 1.673 3.452l1.434.85c1.03-.805 2.644-.89 3.831-.186 1.541.915 2.012 2.757 1.097 4.298-1.322 2.228-5.045 2.989-10.685 4.134Zm10.502-9.973a5.385 5.385 0 0 0-4.419-.455c-.26-1.477-1.177-2.866-2.518-3.661-2.374-1.409-5.341-.658-6.755 1.724-1.724 2.906-.516 6.842 1.318 12.797l.514 1.68 1.721-.353c6.106-1.245 10.139-2.072 11.864-4.978 1.413-2.382.649-5.346-1.725-6.754Z" fill="#FF6500"/></g><g filter="url(#e)"><rect x="185.453" y="1" width="38.678" height="38.125" rx="9.393" transform="rotate(30.68 185.453 1)" fill="#fff"/></g><g clip-path="url(#f)"><path d="m190.015 30.388-.086.022-.027-.088c-1.178-3.83-1.957-6.361-1.036-7.913.638-1.075 1.922-1.402 2.996-.765.827.49 1.314 1.506 1.165 2.405l1 .593c.718-.561 1.842-.62 2.669-.13 1.075.638 1.402 1.921.765 2.996-.921 1.552-3.516 2.082-7.446 2.88Zm7.319-6.95a3.756 3.756 0 0 0-3.08-.317 3.756 3.756 0 0 0-1.755-2.551 3.398 3.398 0 0 0-4.707 1.201c-1.201 2.025-.36 4.769.918 8.918l.358 1.172 1.2-.247c4.255-.868 7.066-1.444 8.267-3.469a3.398 3.398 0 0 0-1.201-4.707Z" fill="#FF6500"/></g><g filter="url(#g)"><rect x="205.984" y="22.939" width="42.852" height="42.24" rx="10.407" transform="rotate(10.479 205.984 22.939)" fill="#fff"/></g><g clip-path="url(#h)"><path d="m221.972 51.751-.08.056-.063-.082c-2.689-3.53-4.467-5.865-4.104-7.832.252-1.36 1.462-2.193 2.822-1.941 1.048.194 1.943 1.063 2.133 2.055l1.265.234c.532-.858 1.679-1.35 2.727-1.156 1.36.251 2.192 1.46 1.941 2.822-.364 1.966-2.859 3.51-6.641 5.844Zm4.951-10.027a4.162 4.162 0 0 0-3.324.849 4.16 4.16 0 0 0-2.8-1.982c-2.096-.388-4.046.948-4.435 3.05-.474 2.566 1.451 5.096 4.367 8.922l.821 1.08 1.153-.715c4.092-2.53 6.794-4.204 7.269-6.77a3.766 3.766 0 0 0-3.051-4.434Z" fill="#FF6500"/></g><g filter="url(#i)"><rect x="111.684" y="18" width="42.852" height="42.24" rx="10.407" transform="rotate(10.479 111.684 18)" fill="#fff"/></g><g clip-path="url(#j)"><path d="m127.671 46.813-.08.055-.062-.082c-2.69-3.53-4.468-5.865-4.104-7.831.251-1.361 1.461-2.193 2.822-1.941 1.048.193 1.942 1.063 2.132 2.055l1.266.234c.531-.859 1.678-1.35 2.726-1.157 1.361.252 2.193 1.461 1.941 2.822-.364 1.967-2.859 3.51-6.641 5.845Zm4.951-10.028a4.159 4.159 0 0 0-3.323.85 4.163 4.163 0 0 0-2.801-1.982 3.765 3.765 0 0 0-4.434 3.05c-.475 2.565 1.45 5.096 4.366 8.922l.821 1.08 1.153-.715c4.092-2.53 6.794-4.205 7.269-6.77.389-2.103-.955-4.047-3.051-4.435Z" fill="#FF6500"/></g><g filter="url(#k)"><rect x="71.133" y="14.437" width="37.213" height="36.682" rx="9.038" transform="rotate(.332 71.133 14.437)" fill="#fff"/></g><path d="m89.207 36.62-.06.06-.067-.06c-2.839-2.607-4.716-4.33-4.706-6.067.007-1.202.914-2.098 2.116-2.091.925.005 1.823.611 2.137 1.43l1.117.007c.324-.816 1.228-1.411 2.154-1.406 1.202.007 2.098.914 2.09 2.115-.01 1.737-1.906 3.439-4.781 6.012Zm2.698-9.329a3.614 3.614 0 0 0-2.712 1.234 3.614 3.614 0 0 0-2.697-1.265 3.27 3.27 0 0 0-3.324 3.286c-.013 2.265 2.02 4.134 5.098 6.958l.867.799.876-.789c3.11-2.788 5.165-4.633 5.178-6.899a3.27 3.27 0 0 0-3.286-3.324Z" fill="#FF6500"/><g filter="url(#l)"><rect x="70.023" y="36" width="61.492" height="60.614" rx="14.934" transform="rotate(10.479 70.023 36)" fill="#fff"/></g><path d="m92.966 77.345-.116.08-.09-.118c-3.859-5.066-6.41-8.416-5.888-11.238.36-1.953 2.096-3.147 4.05-2.785 1.503.278 2.787 1.525 3.059 2.949l1.816.336c.763-1.233 2.409-1.938 3.912-1.66 1.953.361 3.147 2.097 2.786 4.05-.522 2.822-4.103 5.037-9.53 8.386Zm7.104-14.389c-1.699-.314-3.475.175-4.77 1.218-.834-1.437-2.319-2.53-4.017-2.843-3.008-.557-5.806 1.36-6.364 4.377-.681 3.681 2.08 7.312 6.266 12.802l1.177 1.551 1.655-1.027c5.872-3.63 9.75-6.033 10.431-9.714.558-3.017-1.37-5.808-4.378-6.364Z" fill="#FF6500"/><g filter="url(#m)"><rect x="110" y="60" width="74.895" height="73.825" rx="18.189" fill="#fff"/></g><path d="m146.633 104.435-.121.121-.133-.121c-5.745-5.213-9.542-8.66-9.542-12.155 0-2.419 1.814-4.233 4.233-4.233 1.862 0 3.676 1.21 4.317 2.855h2.25c.641-1.645 2.455-2.855 4.318-2.855 2.419 0 4.233 1.814 4.233 4.233 0 3.495-3.798 6.942-9.555 12.155Zm5.322-18.807c-2.105 0-4.124.98-5.443 2.516-1.318-1.536-3.338-2.516-5.442-2.516-3.725 0-6.652 2.915-6.652 6.652 0 4.56 4.112 8.297 10.341 13.945l1.753 1.596 1.754-1.596c6.228-5.648 10.341-9.385 10.341-13.945 0-3.737-2.927-6.652-6.652-6.652Z" fill="#FF6500"/><g filter="url(#n)"><rect x="51.118" y="54" width="71.257" height="70.239" rx="17.305" transform="rotate(26.297 51.118 54)" fill="#fff"/></g><g clip-path="url(#o)"><path d="m63.92 107.989-.157.042-.052-.163c-2.254-7.027-3.743-11.674-2.08-14.554 1.15-1.993 3.508-2.625 5.5-1.474 1.535.886 2.455 2.745 2.2 4.406l1.854 1.07c1.31-1.05 3.38-1.184 4.915-.298 1.994 1.15 2.625 3.508 1.475 5.502-1.663 2.879-6.432 3.913-13.655 5.469Zm13.331-12.964c-1.734-1.001-3.864-1.155-5.68-.516-.356-1.893-1.555-3.66-3.288-4.662-3.07-1.772-6.868-.763-8.646 2.316-2.169 3.757-.558 8.793 1.887 16.409l.685 2.15 2.205-.481c7.819-1.691 12.985-2.814 15.154-6.571 1.778-3.079.752-6.873-2.317-8.645Z" fill="#FF6500"/></g><g filter="url(#p)"><rect x="198" y="68.204" width="71.002" height="69.988" rx="17.243" transform="rotate(-19.931 198 68.204)" fill="#fff"/></g><g clip-path="url(#q)"><path d="m246.212 96.157-.065.148-.159-.06c-6.881-2.594-11.431-4.31-12.649-7.39-.843-2.133.125-4.365 2.257-5.208 1.642-.649 3.663-.215 4.802 1.012l1.983-.784c-.008-1.673 1.17-3.372 2.812-4.02 2.132-.844 4.364.123 5.207 2.256 1.218 3.082-.929 7.444-4.188 14.046Zm-1.862-18.435c-1.855.733-3.295 2.3-3.922 4.114-1.697-.895-3.819-1.055-5.675-.322-3.284 1.299-4.849 4.888-3.546 8.183 1.589 4.02 6.516 5.882 13.976 8.691l2.102.796.99-2.018c3.523-7.15 5.846-11.878 4.258-15.898-1.303-3.295-4.899-4.845-8.183-3.546Z" fill="#FF6500"/></g><g filter="url(#r)"><rect x="185.073" y="96.21" width="71.695" height="70.671" rx="17.412" transform="rotate(18.256 185.073 96.21)" fill="#fff"/></g><g clip-path="url(#s)"><path d="m205.888 148.492-.144.077-.089-.147c-3.842-6.354-6.382-10.556-5.425-13.762.663-2.219 2.824-3.386 5.042-2.724 1.709.51 3.042 2.116 3.179 3.801l2.064.615c1.038-1.333 3.033-1.945 4.742-1.435 2.218.662 3.386 2.823 2.723 5.041-.957 3.207-5.384 5.328-12.092 8.534Zm10.031-15.794c-1.93-.576-4.051-.231-5.681.817-.789-1.77-2.373-3.221-4.303-3.798-3.417-1.02-6.9.853-7.923 4.281-1.249 4.182 1.5 8.736 5.666 15.622l1.172 1.945 2.046-.985c7.259-3.475 12.055-5.777 13.303-9.959 1.023-3.428-.863-6.903-4.28-7.923Z" fill="#FF6500"/></g><defs><filter id="a" x=".652" y="4.823" width="99.633" height="99.104" filterUnits="userSpaceOnUse" color-interpolation-filters="sRGB"><feFlood flood-opacity="0" result="BackgroundImageFix"/><feColorMatrix in="SourceAlpha" values="0 0 0 0 0 0 0 0 0 0 0 0 0 0 0 0 0 0 127 0" result="hardAlpha"/><feOffset dy="12.172"/><feGaussianBlur stdDeviation="9.332"/><feComposite in2="hardAlpha" operator="out"/><feColorMatrix values="0 0 0 0 0.6625 0 0 0 0 0.6625 0 0 0 0 0.6625 0 0 0 0.09 0"/><feBlend in2="BackgroundImageFix" result="effect1_dropShadow_2184_234"/><feBlend in="SourceGraphic" in2="effect1_dropShadow_2184_234" result="shape"/></filter><filter id="c" x="119.043" y="15.433" width="94.849" height="94.571" filterUnits="userSpaceOnUse" color-interpolation-filters="sRGB"><feFlood flood-opacity="0" result="BackgroundImageFix"/><feColorMatrix in="SourceAlpha" values="0 0 0 0 0 0 0 0 0 0 0 0 0 0 0 0 0 0 127 0" result="hardAlpha"/><feOffset dy="9.515"/><feGaussianBlur stdDeviation="7.294"/><feComposite in2="hardAlpha" operator="out"/><feColorMatrix values="0 0 0 0 0.6625 0 0 0 0 0.6625 0 0 0 0 0.6625 0 0 0 0.21 0"/><feBlend in2="BackgroundImageFix" result="effect1_dropShadow_2184_234"/><feBlend in="SourceGraphic" in2="effect1_dropShadow_2184_234" result="shape"/></filter><filter id="e" x="159.31" y=".94" width="66.097" height="65.904" filterUnits="userSpaceOnUse" color-interpolation-filters="sRGB"><feFlood flood-opacity="0" result="BackgroundImageFix"/><feColorMatrix in="SourceAlpha" values="0 0 0 0 0 0 0 0 0 0 0 0 0 0 0 0 0 0 127 0" result="hardAlpha"/><feOffset dy="6.63"/><feGaussianBlur stdDeviation="5.083"/><feComposite in2="hardAlpha" operator="out"/><feColorMatrix values="0 0 0 0 0.6625 0 0 0 0 0.6625 0 0 0 0 0.6625 0 0 0 0.21 0"/><feBlend in2="BackgroundImageFix" result="effect1_dropShadow_2184_234"/><feBlend in="SourceGraphic" in2="effect1_dropShadow_2184_234" result="shape"/></filter><filter id="g" x="188.755" y="20.738" width="68.914" height="68.423" filterUnits="userSpaceOnUse" color-interpolation-filters="sRGB"><feFlood flood-opacity="0" result="BackgroundImageFix"/><feColorMatrix in="SourceAlpha" values="0 0 0 0 0 0 0 0 0 0 0 0 0 0 0 0 0 0 127 0" result="hardAlpha"/><feOffset dy="7.346"/><feGaussianBlur stdDeviation="5.632"/><feComposite in2="hardAlpha" operator="out"/><feColorMatrix values="0 0 0 0 0.6625 0 0 0 0 0.6625 0 0 0 0 0.6625 0 0 0 0.21 0"/><feBlend in2="BackgroundImageFix" result="effect1_dropShadow_2184_234"/><feBlend in="SourceGraphic" in2="effect1_dropShadow_2184_234" result="shape"/></filter><filter id="i" x="94.455" y="15.799" width="68.914" height="68.423" filterUnits="userSpaceOnUse" color-interpolation-filters="sRGB"><feFlood flood-opacity="0" result="BackgroundImageFix"/><feColorMatrix in="SourceAlpha" values="0 0 0 0 0 0 0 0 0 0 0 0 0 0 0 0 0 0 127 0" result="hardAlpha"/><feOffset dy="7.346"/><feGaussianBlur stdDeviation="5.632"/><feComposite in2="hardAlpha" operator="out"/><feColorMatrix values="0 0 0 0 0.6625 0 0 0 0 0.6625 0 0 0 0 0.6625 0 0 0 0.21 0"/><feBlend in2="BackgroundImageFix" result="effect1_dropShadow_2184_234"/><feBlend in="SourceGraphic" in2="effect1_dropShadow_2184_234" result="shape"/></filter><filter id="k" x="61.191" y="11.086" width="56.885" height="56.356" filterUnits="userSpaceOnUse" color-interpolation-filters="sRGB"><feFlood flood-opacity="0" result="BackgroundImageFix"/><feColorMatrix in="SourceAlpha" values="0 0 0 0 0 0 0 0 0 0 0 0 0 0 0 0 0 0 127 0" result="hardAlpha"/><feOffset dy="6.379"/><feGaussianBlur stdDeviation="4.891"/><feComposite in2="hardAlpha" operator="out"/><feColorMatrix values="0 0 0 0 0.6625 0 0 0 0 0.6625 0 0 0 0 0.6625 0 0 0 0.21 0"/><feBlend in2="BackgroundImageFix" result="effect1_dropShadow_2184_234"/><feBlend in="SourceGraphic" in2="effect1_dropShadow_2184_234" result="shape"/></filter><filter id="l" x="42.8" y="31.973" width="103.889" height="103.185" filterUnits="userSpaceOnUse" color-interpolation-filters="sRGB"><feFlood flood-opacity="0" result="BackgroundImageFix"/><feColorMatrix in="SourceAlpha" values="0 0 0 0 0 0 0 0 0 0 0 0 0 0 0 0 0 0 127 0" result="hardAlpha"/><feOffset dy="12.172"/><feGaussianBlur stdDeviation="9.332"/><feComposite in2="hardAlpha" operator="out"/><feColorMatrix values="0 0 0 0 0.6625 0 0 0 0 0.6625 0 0 0 0 0.6625 0 0 0 0.09 0"/><feBlend in2="BackgroundImageFix" result="effect1_dropShadow_2184_234"/><feBlend in="SourceGraphic" in2="effect1_dropShadow_2184_234" result="shape"/></filter><filter id="m" x="91.337" y="53.508" width="112.222" height="111.152" filterUnits="userSpaceOnUse" color-interpolation-filters="sRGB"><feFlood flood-opacity="0" result="BackgroundImageFix"/><feColorMatrix in="SourceAlpha" values="0 0 0 0 0 0 0 0 0 0 0 0 0 0 0 0 0 0 127 0" result="hardAlpha"/><feOffset dy="12.172"/><feGaussianBlur stdDeviation="9.332"/><feComposite in2="hardAlpha" operator="out"/><feColorMatrix values="0 0 0 0 0.6625 0 0 0 0 0.6625 0 0 0 0 0.6625 0 0 0 0.09 0"/><feBlend in2="BackgroundImageFix" result="effect1_dropShadow_2184_234"/><feBlend in="SourceGraphic" in2="effect1_dropShadow_2184_234" result="shape"/></filter><filter id="n" x="7.209" y="53.38" width="120.583" height="120.121" filterUnits="userSpaceOnUse" color-interpolation-filters="sRGB"><feFlood flood-opacity="0" result="BackgroundImageFix"/><feColorMatrix in="SourceAlpha" values="0 0 0 0 0 0 0 0 0 0 0 0 0 0 0 0 0 0 127 0" result="hardAlpha"/><feOffset dy="12.172"/><feGaussianBlur stdDeviation="9.332"/><feComposite in2="hardAlpha" operator="out"/><feColorMatrix values="0 0 0 0 0.6625 0 0 0 0 0.6625 0 0 0 0 0.6625 0 0 0 0.09 0"/><feBlend in2="BackgroundImageFix" result="effect1_dropShadow_2184_234"/><feBlend in="SourceGraphic" in2="effect1_dropShadow_2184_234" result="shape"/></filter><filter id="p" x="184.177" y="42.349" width="118.254" height="117.646" filterUnits="userSpaceOnUse" color-interpolation-filters="sRGB"><feFlood flood-opacity="0" result="BackgroundImageFix"/><feColorMatrix in="SourceAlpha" values="0 0 0 0 0 0 0 0 0 0 0 0 0 0 0 0 0 0 127 0" result="hardAlpha"/><feOffset dy="12.172"/><feGaussianBlur stdDeviation="9.332"/><feComposite in2="hardAlpha" operator="out"/><feColorMatrix values="0 0 0 0 0.6625 0 0 0 0 0.6625 0 0 0 0 0.6625 0 0 0 0.09 0"/><feBlend in2="BackgroundImageFix" result="effect1_dropShadow_2184_234"/><feBlend in="SourceGraphic" in2="effect1_dropShadow_2184_234" result="shape"/></filter><filter id="r" x="148.844" y="94.292" width="118.405" height="117.753" filterUnits="userSpaceOnUse" color-interpolation-filters="sRGB"><feFlood flood-opacity="0" result="BackgroundImageFix"/><feColorMatrix in="SourceAlpha" values="0 0 0 0 0 0 0 0 0 0 0 0 0 0 0 0 0 0 127 0" result="hardAlpha"/><feOffset dy="12.172"/><feGaussianBlur stdDeviation="9.332"/><feComposite in2="hardAlpha" operator="out"/><feColorMatrix values="0 0 0 0 0.6625 0 0 0 0 0.6625 0 0 0 0 0.6625 0 0 0 0.09 0"/><feBlend in2="BackgroundImageFix" result="effect1_dropShadow_2184_234"/><feBlend in="SourceGraphic" in2="effect1_dropShadow_2184_234" result="shape"/></filter><clipPath id="b"><path fill="#fff" transform="rotate(-16.788 136.52 -105.593)" d="M0 0h21.51v21.51H0z"/></clipPath><clipPath id="d"><path fill="#fff" transform="rotate(30.68 12.127 314.674)" d="M0 0h21.51v21.51H0z"/></clipPath><clipPath id="f"><path fill="#fff" transform="rotate(30.68 64.516 353.547)" d="M0 0h14.99v14.99H0z"/></clipPath><clipPath id="h"><path fill="#fff" transform="rotate(10.479 -97.01 1196.942)" d="M0 0h16.608v16.608H0z"/></clipPath><clipPath id="j"><path fill="#fff" transform="rotate(10.479 -117.232 680.294)" d="M0 0h16.608v16.608H0z"/></clipPath><clipPath id="o"><path fill="#fff" transform="rotate(30 -122.758 157.965)" d="M0 0h27.616v27.616H0z"/></clipPath><clipPath id="q"><path fill="#fff" transform="rotate(-21.566 326.643 -551.24)" d="M0 0h27.518v27.518H0z"/></clipPath><clipPath id="s"><path fill="#fff" transform="rotate(16.621 -324.824 741.785)" d="M0 0h27.786v27.786H0z"/></clipPath></defs></svg>