<svg width="292" height="201" fill="none" xmlns="http://www.w3.org/2000/svg"><path d="m54.022 103.272 30.413-22.344a13.141 13.141 0 0 0 5.36-10.59V31.237c0-7.258 5.884-13.142 13.142-13.142h74.468c7.257 0 13.141 5.884 13.141 13.142v38.927c0 4.278-2.082 8.289-5.581 10.75l-61.53 43.274c-9.899 6.962-5.922 22.47 6.105 23.81L147.5 150l90.666 15.282c.861.145 1.706.376 2.521.688l11.813 4.53c7.485 2.079 14.166-5.217 11.436-12.49l-29.585-78.83" stroke="#E6E6E6" stroke-width=".973"/><g filter="url(#a)"><rect x="48.426" y="50.528" width="80.309" height="24.823" rx="12.411" transform="rotate(-8.586 48.426 50.528)" fill="#fff" shape-rendering="crispEdges"/><path d="m65.628 58.083 1.175-.177c.048-.008.09.015.09.075l-.002.709c-.003.04-.018.071-.066.079l-1.194.18.018 2.202 1.183-.178c.049-.008.092.015.09.075l-.02.712c-.004.04-.019.071-.067.079l-1.174.177.009 1.426c-.003.05-.02.072-.067.079l-.934.141c-.048.007-.09-.016-.09-.075l-.006-1.407-1.155.174.009 1.427c-.002.05-.019.071-.067.079l-.924.14c-.048.006-.09-.017-.09-.076l-.006-1.407-1.193.18c-.048.008-.091-.015-.09-.075l.02-.712c.004-.04.019-.071.067-.078l1.184-.18-.018-2.202-1.174.177c-.048.008-.09-.015-.09-.075l.001-.709c.004-.04.019-.071.067-.079l1.194-.18-.013-1.386c.002-.05.019-.072.067-.079l.924-.14c.048-.007.091.016.09.075l.01 1.367 1.155-.174-.013-1.386c.003-.05.019-.072.067-.08l.934-.14c.048-.007.09.016.09.075l.01 1.367Zm-2.24 1.204.018 2.203 1.155-.174-.018-2.203-1.155.174Zm10.492.444c.218 1.444-.395 2.6-2.257 2.98l.23 1.461c.01.058-.017.081-.065.089l-1 .15c-.049.008-.08-.007-.09-.065l-.21-1.464c-1.873.184-2.808-.728-3.025-2.162-.216-1.434.413-2.612 2.256-2.99l-.262-1.604c-.008-.057.018-.08.066-.088l1-.151c.049-.008.08.007.09.065l.232 1.609c1.958-.207 2.816.717 3.035 2.17Zm-5.262.814c.16 1.06.623 1.649 1.764 1.575l-.285-2.014-.263-1.615c-1.044.257-1.377.986-1.216 2.054Zm2.334-2.213.229 1.58.318 2.04c1.09-.273 1.383-1.007 1.23-2.027-.162-1.069-.694-1.658-1.777-1.593Zm6.095 3.58c-1.57.236-2.607-.64-2.844-2.21-.237-1.569.492-2.742 2.06-2.979 1.56-.235 2.59.653 2.827 2.222.235 1.559-.484 2.73-2.043 2.966Zm-.118-.78c.837-.127 1.15-.794.97-1.988-.179-1.184-.69-1.766-1.528-1.64-.855.14-1.163.836-.984 2.02.18 1.193.695 1.735 1.542 1.608Zm1.692-4.568c-.007-.048.017-.081.065-.089l4.35-.657c.049-.007.082.018.09.066l.101.674c.007.048-.017.081-.065.088l-1.598.242.233 1.608.389 2.442c.008.058-.018.082-.066.089l-1.03.155c-.048.008-.08-.007-.088-.065l-.34-2.45-.263-1.604-1.588.24c-.048.008-.081-.017-.088-.065l-.102-.674Zm7.61 3.96c-1.57.237-2.608-.64-2.845-2.209-.237-1.568.492-2.742 2.06-2.978 1.56-.236 2.59.652 2.827 2.221.236 1.56-.483 2.731-2.043 2.967Zm-.118-.78c.837-.126 1.15-.793.97-1.987-.18-1.183-.69-1.766-1.528-1.64-.855.14-1.164.836-.985 2.02.18 1.193.696 1.736 1.543 1.608Zm2.166-4.638c-.009-.058.017-.082.065-.089l3.119-.47c.048-.008.081.017.089.065l.101.673c.007.049-.017.082-.065.089l-2.021.305.233 1.61.388 2.441c.009.058-.017.081-.065.089l-1.03.155c-.048.007-.08-.007-.089-.065l-.34-2.45-.385-2.353Zm6.24-1.12c1.367-.206 2.267.8 2.485 2.244.216 1.434-.398 2.708-1.727 2.909-.645.097-1.183-.078-1.59-.489l.348 2.173c.009.057-.017.081-.065.088l-1.03.156c-.048.007-.08-.008-.089-.066l-.523-3.661-.45-2.778c-.008-.058.018-.081.066-.088l1.011-.153c.048-.007.08.008.089.065l.072.61c.263-.542.739-.91 1.403-1.01Zm.322 4.412c.847-.128 1.16-.855.999-1.924-.173-1.145-.69-1.766-1.508-1.642-.78.117-1.144.773-.98 1.92.166 1.166.709 1.763 1.489 1.645Zm5.814-4.59-.113-.554c-.009-.058.017-.081.065-.088l1.021-.155c.048-.007.08.008.088.066l.33 2.382.396 2.42c.008.059-.018.082-.066.09l-1.01.152c-.049.007-.08-.008-.089-.065l-.072-.61c-.263.542-.739.91-1.403 1.01-1.377.207-2.267-.8-2.485-2.244-.217-1.434.398-2.708 1.726-2.909.655-.099 1.203.075 1.612.505Zm-.665 3.812c.78-.118 1.144-.773.979-1.93-.168-1.175-.709-1.763-1.49-1.655-.849.118-1.161.854-.998 1.933.173 1.145.693 1.785 1.51 1.652Zm8.904-3.176c.218 1.444-.395 2.6-2.257 2.98l.23 1.461c.009.058-.017.082-.065.089l-1.001.15c-.048.008-.08-.007-.089-.064l-.211-1.465c-1.872.184-2.807-.728-3.024-2.162-.216-1.434.413-2.612 2.256-2.989l-.262-1.604c-.009-.058.017-.082.065-.09l1.001-.15c.049-.008.08.007.089.065l.233 1.609c1.958-.207 2.816.717 3.035 2.17Zm-5.262.815c.16 1.058.623 1.648 1.764 1.574l-.285-2.014-.263-1.614c-1.044.256-1.377.985-1.216 2.054Zm2.334-2.214.229 1.58.317 2.04c1.091-.273 1.384-1.007 1.23-2.027-.161-1.068-.693-1.658-1.776-1.593Zm4.639 2.41 1.47-3.962c.013-.041.039-.065.077-.07l1.213-.184c.048-.007.08.008.089.066l.327 2.362.398 2.44c.009.058-.017.082-.065.09l-1.001.15c-.048.008-.08-.007-.089-.065l-.352-2.398-.154-1.217-1.464 3.932c-.014.042-.04.065-.078.07l-1.223.186c-.048.007-.079-.008-.088-.066l-.357-2.496-.378-2.305c-.009-.058.017-.082.065-.089l1.011-.153c.048-.007.08.008.089.066l.342 2.33.168 1.314Zm5.48-4.627 1.992-.3c.048-.008.08.007.089.065l.337 2.361.388 2.442c.009.058-.017.081-.065.089l-1.021.154c-.048.007-.08-.008-.088-.066l-.24-1.716-.943.143-.72 1.88c-.014.042-.04.065-.078.071l-1.03.156c-.058.008-.084-.037-.063-.09l.863-1.98c-.773-.1-1.25-.52-1.372-1.329-.159-1.05.516-1.663 1.951-1.88Zm1.284 2.248-.254-1.615-.943.142c-.635.096-.935.456-.861.947.081.54.48.764 1.105.67l.953-.144Z" fill="#FF6500"/></g><g filter="url(#b)"><rect x="164.262" y="38.539" width="53.052" height="24.823" rx="12.411" fill="#fff" shape-rendering="crispEdges"/><path d="M180.015 48.576h1.188c.049 0 .088.03.078.088l-.107.7c-.01.04-.029.069-.078.069h-1.207l-.312 2.18h1.198c.048 0 .087.03.078.088l-.127.7c-.01.04-.029.07-.078.07h-1.187l-.205 1.41c-.01.05-.029.069-.078.069h-.944c-.049 0-.088-.03-.078-.088l.205-1.392h-1.169l-.204 1.412c-.01.048-.029.068-.078.068h-.934c-.049 0-.088-.03-.078-.088l.204-1.392h-1.207c-.049 0-.087-.03-.078-.087l.127-.701c.01-.04.029-.069.078-.069h1.197l.312-2.18h-1.188c-.049 0-.088-.03-.078-.088l.107-.7c.01-.04.029-.069.078-.069h1.207l.195-1.372c.01-.049.029-.068.078-.068h.934c.049 0 .088.029.078.087l-.195 1.353h1.168l.195-1.372c.01-.049.029-.068.078-.068h.944c.049 0 .088.029.078.087l-.195 1.353Zm-2.394.857-.312 2.18h1.168l.312-2.18h-1.168Zm6.268 4.633c-1.557 0-2.453-1.022-2.453-2.608 0-1.587.896-2.638 2.473-2.638 1.265 0 2.063.71 2.17 1.79.01.05-.019.079-.068.079h-.934c-.049 0-.068-.02-.078-.068-.117-.662-.535-1.003-1.09-1.003-.867.01-1.276.642-1.276 1.83 0 1.217.419 1.82 1.276 1.83.632.01 1.07-.409 1.129-1.149.01-.048.039-.078.087-.078h.954c.049 0 .078.03.069.069-.098 1.139-.954 1.947-2.259 1.947Zm2.617-5.052c0-.058.029-.078.078-.078h4.234c.049 0 .078.02.078.078l-.019 2.385.019 2.473c0 .058-.029.078-.078.078h-1.041c-.049 0-.078-.02-.078-.078l.029-2.473-.01-1.625h-2.024l-.01 1.625.019 2.473c0 .058-.029.078-.078.078h-1.041c-.049 0-.078-.02-.078-.078l.029-2.473-.029-2.385Zm7.28 5.052c-1.587 0-2.482-1.022-2.482-2.608 0-1.587.895-2.638 2.482-2.638 1.577 0 2.463 1.032 2.463 2.618 0 1.577-.886 2.628-2.463 2.628Zm0-.788c.847 0 1.256-.613 1.256-1.82 0-1.198-.419-1.85-1.266-1.85-.866.01-1.275.652-1.275 1.85 0 1.207.428 1.82 1.285 1.82Zm5.559-4.439c1.383 0 2.123 1.13 2.123 2.59 0 1.45-.799 2.618-2.142 2.618-.652 0-1.158-.253-1.499-.72l.019 2.2c0 .058-.029.078-.077.078h-1.042c-.049 0-.078-.02-.078-.078l.029-3.7-.029-2.813c0-.058.029-.078.078-.078h1.022c.049 0 .078.02.078.078l-.02.614c.341-.497.867-.789 1.538-.789Zm-.34 4.41c.856 0 1.275-.672 1.275-1.752 0-1.159-.419-1.85-1.246-1.85-.789 0-1.246.594-1.256 1.752-.009 1.178.438 1.85 1.227 1.85Zm2.355-4.235c0-.048.029-.078.077-.078h4.4c.049 0 .078.03.078.078v.682c0 .049-.029.078-.078.078h-1.616l-.009 1.625.019 2.473c0 .058-.029.078-.078.078h-1.041c-.049 0-.078-.02-.078-.078l.029-2.473-.019-1.625h-1.607c-.048 0-.077-.03-.077-.078v-.682Z" fill="#FF6500"/></g><g filter="url(#c)"><rect x="116.881" y="79.91" width="93.937" height="24.823" rx="12.411" transform="rotate(14.357 116.881 79.91)" fill="#fff" shape-rendering="crispEdges"/><path d="m129.597 93.526 1.151.295c.047.012.077.05.054.104l-.278.653c-.019.035-.045.058-.092.046l-1.17-.3-.842 2.036 1.16.297c.047.012.077.05.054.104l-.297.648c-.019.035-.045.058-.092.046l-1.151-.294-.548 1.317c-.021.044-.045.058-.092.046l-.915-.234c-.047-.012-.077-.05-.054-.104l.544-1.298-1.132-.29-.548 1.317c-.022.045-.045.059-.092.047l-.906-.232c-.047-.012-.077-.05-.053-.104l.543-1.298-1.17-.3c-.047-.011-.077-.05-.053-.103l.296-.648c.019-.035.045-.059.092-.047l1.16.297.843-2.035-1.151-.294c-.047-.012-.077-.05-.053-.105l.277-.652c.019-.035.045-.059.093-.047l1.169.3.529-1.282c.021-.045.045-.059.092-.047l.905.232c.048.012.078.05.054.104l-.524 1.263 1.132.29.529-1.282c.021-.044.045-.059.092-.046l.915.234c.047.012.077.05.053.104l-.524 1.262Zm-2.532.236-.842 2.036 1.131.29.843-2.036-1.132-.29Zm6.938 1.314c.029-.033.059-.035.097-.025l.962.246c.057.014.075.06.023.106l-1.896 1.635.937 3.094c.014.063-.015.096-.071.082l-1.16-.297c-.038-.01-.061-.036-.071-.078l-.242-.937-.431-1.497-.688-.176-.52 2.108c-.014.057-.048.068-.095.056l-1.009-.258c-.047-.012-.07-.038-.056-.095l.642-2.388.563-2.318c.014-.056.047-.068.094-.056l1.009.258c.048.013.071.039.057.095l-.478 1.787.689.176 1.644-1.518Zm1.734 4.272 2.898-3.076c.028-.033.061-.045.099-.035l1.188.304c.048.012.071.038.057.095l-.62 2.303-.585 2.402c-.014.057-.048.069-.095.057l-.98-.251c-.048-.013-.071-.039-.057-.095l.611-2.346.332-1.18-2.881 3.05c-.028.033-.061.044-.099.035l-1.198-.307c-.047-.012-.07-.038-.056-.095l.644-2.437.551-2.27c.015-.057.048-.069.095-.057l.99.254c.047.012.071.038.056.094l-.593 2.28-.357 1.275Zm7.486.057.447-1.825c.014-.056.047-.068.094-.056l1 .256c.047.012.071.038.056.095l-.619 2.303-.585 2.403c-.015.056-.048.068-.095.056l-1-.256c-.047-.012-.07-.038-.056-.095l.55-2.07-2.065-.528-.512 2.079c-.015.057-.048.068-.095.056l-1-.255c-.047-.013-.07-.039-.056-.095l.642-2.388.563-2.318c.014-.056.047-.068.094-.056l1 .256c.047.012.071.038.056.094l-.485 1.816 2.066.528Zm3.133 4.078c-1.537-.393-2.151-1.606-1.758-3.143.394-1.537 1.522-2.333 3.059-1.94 1.528.391 2.13 1.61 1.737 3.148-.391 1.527-1.51 2.326-3.038 1.935Zm.195-.764c.821.21 1.369-.283 1.668-1.452.297-1.16.053-1.895-.767-2.105-.842-.206-1.397.315-1.694 1.475-.299 1.169-.036 1.87.793 2.082Zm5.634.839 2.898-3.076c.028-.033.061-.045.099-.035l1.188.304c.047.012.071.038.056.095l-.619 2.303-.585 2.402c-.015.057-.048.069-.095.057l-.981-.251c-.047-.013-.07-.039-.056-.095l.611-2.346.332-1.181-2.881 3.051c-.028.033-.061.044-.099.035l-1.198-.307c-.047-.012-.07-.038-.056-.095l.644-2.437.551-2.27c.015-.057.048-.069.095-.057l.99.254c.047.012.071.038.056.094l-.593 2.28-.357 1.275Zm7.45 3.324c-1.509-.386-2.123-1.598-1.729-3.136.393-1.537 1.521-2.333 3.049-1.942 1.226.314 1.823 1.2 1.659 2.273-.003.05-.038.071-.085.059l-.906-.232c-.047-.012-.061-.036-.058-.085.051-.67-.27-1.104-.808-1.242-.842-.205-1.395.306-1.689 1.457-.302 1.179-.046 1.867.782 2.089.61.166 1.138-.131 1.378-.833.022-.045.057-.066.104-.053l.925.236c.047.012.068.048.049.083-.377 1.079-1.407 1.649-2.671 1.326Zm5.041.476c.594.152 1.06-.06 1.366-.665.021-.045.054-.056.092-.047l.943.242c.047.012.078.05.056.095-.385.916-1.37 1.467-2.672 1.134-1.565-.4-2.136-1.662-1.757-3.142.391-1.528 1.54-2.329 3.021-1.95 1.509.386 2.099 1.612 1.705 3.27-.012.047-.048.068-.095.056l-3.546-.908c-.225 1.078.066 1.705.887 1.915Zm.865-3.576c-.688-.177-1.195.156-1.526.935l2.358.604c.131-.67-.087-1.349-.832-1.539Zm5.557.638c1.339.343 1.775 1.62 1.413 3.035-.359 1.405-1.422 2.339-2.724 2.006-.631-.162-1.059-.533-1.273-1.07l-.527 2.136c-.014.057-.048.068-.095.056l-1.009-.258c-.047-.012-.07-.038-.056-.095l.946-3.576.669-2.733c.014-.056.048-.068.095-.056l.99.254c.047.012.071.038.056.094l-.171.59c.453-.397 1.035-.549 1.686-.383Zm-1.424 4.188c.83.212 1.402-.335 1.67-1.382.287-1.122.053-1.895-.748-2.1-.764-.196-1.355.266-1.651 1.386-.302 1.138-.035 1.9.729 2.096Zm4.015.454 2.897-3.076c.029-.033.062-.045.1-.035l1.188.304c.047.012.071.038.056.095l-.62 2.303-.584 2.403c-.015.056-.048.068-.095.056l-.981-.251c-.047-.012-.07-.038-.056-.095l.611-2.346.332-1.181-2.881 3.051c-.029.033-.062.044-.099.035l-1.198-.307c-.047-.012-.071-.038-.056-.094l.644-2.438.551-2.271c.014-.056.048-.068.095-.056l.99.254c.047.012.07.038.056.094l-.594 2.28-.356 1.275Zm8.038-1.158.111-.554c.015-.056.048-.068.095-.056l1 .256c.047.012.07.038.056.095l-.625 2.322-.58 2.383c-.014.057-.047.069-.095.057l-.99-.254c-.047-.012-.07-.038-.056-.095l.171-.589c-.453.396-1.035.549-1.685.383-1.349-.346-1.776-1.621-1.414-3.035.36-1.405 1.422-2.339 2.724-2.006.641.164 1.078.537 1.288 1.093Zm-2.099 3.251c.764.196 1.355-.266 1.654-1.395.304-1.148.034-1.9-.727-2.105-.828-.222-1.402.334-1.673 1.39-.287 1.123-.058 1.915.746 2.11Zm8.238-2.342c.047.012.071.038.056.094l-.62 2.384-.566 2.327c-.014.057-.047.068-.094.056l-1-.256c-.047-.012-.071-.038-.056-.095l.603-2.317.394-1.658-1.499-.383c-.229.735-.57 1.833-.786 2.441-.367 1.002-.783 1.568-1.745 1.322a1.342 1.342 0 0 1-.426-.179c-.036-.02-.045-.062-.035-.1l.157-.613c.012-.047.047-.068.102-.044.054.024.117.05.174.065.377.096.584-.082.843-.82.242-.671.653-2.043.942-3.054.012-.047.048-.068.095-.056l3.461.886Zm1.703.426c.048.012.071.038.057.094l-.444 1.655.707.181c1.424.365 2.044 1.046 1.771 2.112-.275 1.075-1.158 1.381-2.572 1.019l-.698-.178-.002.009-1.085-.278c-.047-.012-.071-.038-.056-.094l.634-2.36.585-2.363c.014-.056.047-.068.094-.056l1.009.259Zm2.647 3.32.585-2.403c.015-.056.048-.068.095-.056l1.009.258c.047.012.071.039.056.095l-.632 2.391-.572 2.315c-.015.056-.048.068-.095.056l-1.009-.258c-.047-.012-.071-.038-.056-.095l.619-2.303Zm-3.237-.819-.405 1.625.716.183c.642.164 1.07.023 1.212-.534.135-.528-.08-.904-.796-1.088l-.727-.186Z" fill="#FF6500"/></g><g filter="url(#d)"><rect x="9" y="94.385" width="62.787" height="24.823" rx="12.411" transform="rotate(-.774 9 94.385)" fill="#fff" shape-rendering="crispEdges"/><path d="m24.755 104.212 1.187-.016c.049-.001.088.028.08.086l-.098.702c-.01.039-.029.069-.078.07l-1.206.016-.282 2.184 1.197-.016c.048 0 .088.028.079.087l-.117.702c-.01.039-.029.069-.077.069l-1.188.016-.185 1.415c-.01.048-.028.068-.077.069l-.944.013c-.049 0-.088-.029-.08-.087l.186-1.395-1.168.016-.185 1.414c-.009.049-.028.069-.077.069l-.934.013c-.049.001-.088-.028-.08-.087l.186-1.394-1.207.016c-.048.001-.088-.028-.079-.086l.117-.703c.01-.039.029-.069.077-.069L21 107.3l.282-2.185-1.188.016c-.049.001-.088-.028-.079-.086l.098-.703c.009-.039.028-.068.076-.069l1.207-.016.177-1.375c.009-.049.028-.069.077-.069l.934-.013c.049-.001.088.028.079.087l-.176 1.355 1.168-.016.176-1.375c.009-.048.028-.068.077-.069l.944-.013c.049 0 .088.028.079.087l-.177 1.356Zm-2.383.888-.282 2.185 1.168-.016.282-2.184-1.168.015Zm7.04-.542c.02-.04.048-.05.087-.05l.993-.014c.058 0 .088.038.05.097l-1.403 2.073 1.711 2.742c.03.058.011.097-.047.098l-1.197.016c-.04 0-.069-.019-.089-.057l-.478-.841-.807-1.332-.71.009.048 2.171c.001.058-.028.078-.076.078l-1.042.015c-.049 0-.078-.019-.079-.077l-.004-2.473-.061-2.384c-.001-.059.028-.079.076-.079l1.042-.014c.049-.001.078.018.079.077l.005 1.849.71-.009 1.192-1.895Zm4.294-.204c1.383-.019 2.138 1.1 2.157 2.56.02 1.45-.762 2.629-2.106 2.647-.652.009-1.161-.237-1.508-.7l.049 2.2c0 .058-.028.078-.077.079l-1.041.014c-.05 0-.079-.019-.08-.077l-.02-3.699-.067-2.813c-.001-.058.028-.078.076-.079l1.023-.014c.048 0 .078.019.078.077l-.01.614c.333-.501.855-.8 1.526-.809Zm-.28 4.413c.856-.011 1.265-.688 1.25-1.769-.015-1.158-.443-1.844-1.27-1.832-.788.01-1.238.61-1.232 1.769.006 1.178.463 1.843 1.251 1.832Zm6.384-3.756-.037-.564c0-.059.028-.078.077-.079l1.032-.014c.048-.001.078.018.079.077l.003 2.404.062 2.453c.001.058-.028.078-.077.079l-1.022.014c-.048 0-.078-.019-.078-.077l.01-.614c-.333.501-.855.8-1.526.809-1.392.019-2.138-1.1-2.157-2.56-.02-1.45.762-2.629 2.106-2.647.662-.009 1.18.237 1.528.719Zm-1.177 3.686c.789-.011 1.238-.61 1.232-1.779-.006-1.187-.463-1.843-1.252-1.842-.856.002-1.266.689-1.25 1.779.015 1.158.443 1.863 1.27 1.842Zm5.25.747c-1.558.021-2.468-.989-2.489-2.575-.021-1.587.86-2.65 2.437-2.672 1.265-.017 2.073.683 2.194 1.762.01.049-.018.078-.067.079l-.934.012c-.049.001-.068-.018-.079-.067-.126-.66-.549-.995-1.103-.987-.867.021-1.267.659-1.25 1.847.016 1.216.442 1.814 1.299 1.812.633.002 1.065-.423 1.114-1.163.009-.049.037-.079.086-.08l.954-.012c.049-.001.078.028.069.067-.082 1.14-.928 1.959-2.232 1.977Zm4.98-.067c-1.586.021-2.495-.989-2.517-2.575-.021-1.587.86-2.65 2.447-2.672 1.577-.021 2.476.999 2.498 2.585.021 1.577-.85 2.64-2.427 2.662Zm-.01-.789c.847-.011 1.247-.63 1.231-1.837-.016-1.197-.444-1.844-1.29-1.832-.866.021-1.267.669-1.25 1.867.016 1.206.452 1.814 1.309 1.802Zm2.297-4.295c0-.048.028-.078.077-.079l4.4-.059c.048-.001.078.028.078.077l.01.681c0 .049-.029.078-.077.079l-1.616.022.012 1.625.053 2.472c0 .059-.028.079-.077.079l-1.041.014c-.049.001-.078-.018-.08-.076l-.004-2.473-.04-1.625-1.607.021c-.049.001-.078-.028-.079-.076l-.009-.682Zm8.117.455-.036-.564c-.001-.058.028-.078.076-.079l1.032-.014c.049 0 .078.019.08.077l.002 2.405.063 2.452c0 .059-.028.078-.077.079l-1.022.014c-.049.001-.078-.019-.079-.077l.011-.613c-.334.501-.855.8-1.527.809-1.392.019-2.137-1.101-2.157-2.561-.02-1.45.763-2.629 2.106-2.647.662-.009 1.181.237 1.529.719Zm-1.176 3.686c.788-.01 1.237-.61 1.231-1.778-.006-1.188-.463-1.844-1.251-1.843-.857.002-1.266.689-1.251 1.779.015 1.158.443 1.863 1.27 1.842Z" fill="#FF6500"/></g><g filter="url(#e)"><rect x="219.262" y="74.698" width="51.592" height="24.823" rx="12.411" transform="rotate(-7.75 219.262 74.698)" fill="#fff" shape-rendering="crispEdges"/><path d="m235.997 82.551 1.176-.16c.049-.007.091.017.089.076l-.011.71c-.005.04-.02.07-.068.077l-1.196.163-.015 2.203 1.187-.162c.048-.006.09.017.089.076l-.031.712c-.005.04-.02.071-.068.078l-1.177.16-.012 1.426c-.003.05-.02.072-.068.078l-.936.128c-.048.006-.091-.017-.089-.077l.015-1.407-1.157.158-.013 1.426c-.003.05-.019.072-.068.078l-.926.126c-.048.007-.09-.017-.089-.076l.015-1.407-1.196.163c-.048.006-.091-.017-.089-.077l.031-.711c.004-.04.02-.072.068-.078l1.186-.162.015-2.202-1.177.16c-.048.007-.09-.017-.089-.076l.012-.71c.004-.04.02-.07.068-.077l1.196-.163.008-1.386c.003-.05.02-.072.068-.078l.926-.126c.048-.007.091.017.089.076l-.011 1.367 1.158-.158.008-1.386c.003-.05.019-.071.068-.078l.935-.127c.048-.007.091.017.089.076l-.01 1.367Zm-2.258 1.172-.014 2.202 1.157-.157.015-2.203-1.158.158Zm6.923-1.394c.014-.041.041-.055.08-.06l.984-.134c.058-.008.092.027.061.09l-1.141 2.228 2.032 2.514c.037.053.023.095-.035.103l-1.186.161c-.039.005-.071-.01-.095-.046l-.577-.776-.963-1.225-.704.096.312 2.148c.008.058-.018.081-.066.088l-1.033.14c-.048.007-.079-.009-.087-.066l-.305-2.454-.35-2.36c-.008-.057.018-.08.067-.087l1.032-.14c.048-.007.079.008.087.066l.23 1.835.704-.095.953-2.026Zm5.113 1.23-.273-1.86c-.008-.057.018-.08.067-.087l1.022-.14c.048-.006.08.01.088.068l.292 2.367.363 2.446c.008.058-.019.08-.067.087l-1.022.14c-.049.006-.08-.01-.088-.067l-.27-2.125-2.112.288.308 2.119c.008.058-.018.081-.067.088l-1.022.139c-.048.006-.08-.009-.088-.067l-.304-2.454-.351-2.359c-.007-.058.019-.081.067-.088l1.023-.139c.048-.006.079.01.087.067l.234 1.864 2.113-.287Zm3.046 1.403 1.527-3.941c.014-.042.04-.065.079-.07l1.215-.165c.049-.007.08.008.088.066l.293 2.367.362 2.446c.008.058-.018.081-.067.088l-1.003.136c-.048.007-.08-.008-.087-.066l-.318-2.403-.136-1.22-1.521 3.911c-.014.041-.041.065-.079.07l-1.225.167c-.048.006-.08-.01-.088-.067l-.32-2.5-.344-2.312c-.008-.058.018-.081.066-.087l1.013-.138c.048-.007.08.008.088.066l.308 2.336.149 1.316Zm3.434-4.181c-.008-.058.018-.081.067-.088l3.125-.425c.048-.007.081.018.087.067l.092.675c.007.048-.018.08-.066.087l-2.026.276.21 1.612.352 2.448c.008.057-.018.08-.066.087l-1.033.14c-.048.007-.079-.008-.087-.066l-.305-2.454-.35-2.36Zm5.232 3.001 1.527-3.94c.014-.042.04-.065.079-.07l1.215-.166c.048-.006.08.01.088.067l.293 2.367.362 2.446c.008.058-.019.081-.067.088l-1.003.136c-.048.007-.08-.008-.088-.066l-.317-2.404-.136-1.219-1.521 3.91c-.014.042-.041.065-.079.07l-1.225.167c-.048.007-.08-.009-.088-.066l-.321-2.501-.344-2.311c-.007-.058.019-.081.067-.088l1.013-.138c.048-.006.08.01.088.067l.308 2.336.149 1.315Z" fill="#FF6500"/></g><g filter="url(#f)"><rect x="235.033" y="155.351" width="49.645" height="24.823" rx="12.411" transform="rotate(9.484 235.033 155.351)" fill="#fff" shape-rendering="crispEdges"/><path d="m248.716 167.813 1.172.196c.048.008.081.043.062.099l-.221.674c-.016.037-.04.062-.088.054l-1.191-.199-.666 2.1 1.181.197c.048.008.081.043.062.099l-.24.671c-.016.037-.04.062-.088.054l-1.172-.196-.434 1.359c-.017.046-.04.062-.088.054l-.931-.155c-.048-.008-.082-.043-.062-.099l.43-1.34-1.152-.192-.434 1.358c-.017.047-.04.063-.088.055l-.922-.154c-.048-.008-.081-.044-.062-.1l.431-1.339-1.191-.199c-.048-.008-.081-.043-.062-.099l.24-.67c.016-.037.04-.063.088-.055l1.181.197.667-2.099-1.171-.196c-.048-.008-.082-.043-.063-.099l.221-.674c.016-.036.04-.062.088-.054l1.191.199.418-1.322c.018-.046.04-.062.088-.054l.922.154c.048.008.081.043.062.099l-.415 1.303 1.152.192.419-1.322c.017-.046.04-.062.088-.054l.931.156c.048.008.081.043.062.099l-.415 1.302Zm-2.503.451-.666 2.099 1.152.193.666-2.1-1.152-.192Zm6.111 4.297 1.949-3.395c.016-.037.058-.05.096-.043l1.268.212c.048.008.073.032.064.089l-.424 2.417-.377 2.374c-.009.058-.041.072-.089.064l-.961-.16c-.048-.008-.073-.032-.064-.09l.381-2.216.195-1.053.058-.346-1.952 3.415c-.016.036-.058.049-.096.043l-.672-.112c-.039-.007-.074-.032-.077-.072l-.757-3.917-.058.405-.146 1.051-.361 2.22c-.009.058-.041.072-.089.064l-.778-.13c-.048-.008-.074-.032-.064-.09l.425-2.366.385-2.423c.009-.058.041-.072.089-.064l1.249.208c.038.007.073.033.076.073l.73 3.842Zm5.385 2.321c-1.565-.262-2.28-1.417-2.018-2.982.261-1.565 1.317-2.455 2.883-2.193 1.555.26 2.259 1.423 1.997 2.988-.26 1.556-1.307 2.447-2.862 2.187Zm.13-.778c.835.14 1.34-.398 1.538-1.588.198-1.181-.108-1.894-.943-2.033-.856-.133-1.365.433-1.563 1.614-.198 1.191.123 1.866.968 2.007Zm7.599-3.132c.048.008.072.041.063.089l-.381 2.286-.247 1.774.566.095c.048.008.072.042.064.09l-.309 1.853c-.008.048-.042.072-.09.064l-.855-.143c-.048-.008-.073-.032-.064-.09l.158-1.118-3.265-.546-.215 1.109c-.009.058-.041.072-.089.064l-.874-.146c-.048-.008-.072-.041-.064-.089l.31-1.853c.008-.048.041-.072.089-.064l.327.054c.302-.216.518-.624.682-1.189.179-.601.423-1.646.638-2.755.008-.048.041-.072.089-.064l3.467.579Zm-1.718 3.957.297-1.776.228-1.541-1.527-.256c-.163.743-.344 1.532-.484 2.012-.163.565-.35.918-.578 1.216l2.064.345Zm5.942-2.6.064-.562c.009-.057.041-.072.089-.064l1.018.17c.048.008.074.032.064.09l-.425 2.367-.375 2.424c-.01.057-.042.072-.09.064l-1.008-.169c-.048-.008-.074-.032-.064-.089l.12-.602c-.418.434-.984.635-1.647.524-1.373-.229-1.907-1.463-1.666-2.903.239-1.431 1.219-2.451 2.544-2.23.653.109 1.12.444 1.376.98Zm-1.815 3.417c.778.13 1.327-.38 1.529-1.53.205-1.17-.127-1.897-.903-2.036-.844-.151-1.369.452-1.549 1.527-.19 1.143.105 1.913.923 2.039Z" fill="#FF6500"/></g><g filter="url(#g)"><circle cx="137.25" cy="17.366" r="13.871" fill="#fff"/></g><path d="M137.496 15.857a1.75 1.75 0 0 0-1.239 2.991 1.75 1.75 0 1 0 2.477-2.478 1.75 1.75 0 0 0-1.238-.513Zm0-1.168a2.918 2.918 0 0 1 2.92 2.92 2.92 2.92 0 1 1-2.92-2.92Zm3.796-.146a.73.73 0 1 1-1.46 0 .73.73 0 0 1 1.46 0Zm-3.796-1.606c-1.445 0-1.681.004-2.354.034-.458.021-.765.082-1.05.194a1.698 1.698 0 0 0-.631.41 1.701 1.701 0 0 0-.411.63c-.111.287-.172.594-.193 1.051-.03.645-.035.87-.035 2.353 0 1.446.005 1.681.034 2.353.022.458.083.765.194 1.05.099.254.216.437.41.63.196.197.379.314.63.411.289.112.596.174 1.052.195.645.03.87.034 2.353.034 1.445 0 1.681-.004 2.353-.034.457-.022.764-.083 1.05-.194.238-.087.454-.228.63-.41a1.68 1.68 0 0 0 .412-.63c.111-.288.173-.595.194-1.052.03-.644.033-.87.033-2.353 0-1.445-.004-1.68-.033-2.353-.022-.457-.084-.765-.194-1.05a1.703 1.703 0 0 0-.411-.63 1.692 1.692 0 0 0-.631-.412c-.286-.111-.593-.172-1.05-.193-.644-.03-.87-.034-2.353-.034m0-1.168c1.587 0 1.785.005 2.408.035.621.029 1.045.126 1.418.271.385.149.71.35 1.034.674.298.291.527.645.674 1.035.144.372.242.796.271 1.418.028.622.036.82.036 2.407 0 1.587-.006 1.785-.036 2.408-.029.622-.127 1.045-.271 1.418-.147.39-.376.743-.674 1.035a2.857 2.857 0 0 1-1.034.673c-.373.144-.797.243-1.418.272-.623.027-.821.035-2.408.035s-1.785-.006-2.408-.035c-.622-.03-1.045-.128-1.418-.272a2.861 2.861 0 0 1-1.035-.673 2.855 2.855 0 0 1-.673-1.035c-.145-.372-.242-.796-.272-1.418-.028-.623-.035-.82-.035-2.408 0-1.587.006-1.785.035-2.407.03-.623.127-1.046.272-1.418.146-.39.376-.744.673-1.035a2.862 2.862 0 0 1 1.035-.674c.372-.145.796-.242 1.418-.271.624-.028.822-.035 2.409-.035" fill="#FF6500"/><defs><filter id="a" x="39.47" y="35.423" width="101.026" height="54.446" filterUnits="userSpaceOnUse" color-interpolation-filters="sRGB"><feFlood flood-opacity="0" result="BackgroundImageFix"/><feColorMatrix in="SourceAlpha" values="0 0 0 0 0 0 0 0 0 0 0 0 0 0 0 0 0 0 127 0" result="hardAlpha"/><feOffset dy="5.841"/><feGaussianBlur stdDeviation="4.478"/><feComposite in2="hardAlpha" operator="out"/><feColorMatrix values="0 0 0 0 0.6625 0 0 0 0 0.6625 0 0 0 0 0.6625 0 0 0 0.21 0"/><feBlend in2="BackgroundImageFix" result="effect1_dropShadow_2133_3087"/><feBlend in="SourceGraphic" in2="effect1_dropShadow_2133_3087" result="shape"/></filter><filter id="b" x="155.306" y="35.424" width="70.964" height="42.734" filterUnits="userSpaceOnUse" color-interpolation-filters="sRGB"><feFlood flood-opacity="0" result="BackgroundImageFix"/><feColorMatrix in="SourceAlpha" values="0 0 0 0 0 0 0 0 0 0 0 0 0 0 0 0 0 0 127 0" result="hardAlpha"/><feOffset dy="5.841"/><feGaussianBlur stdDeviation="4.478"/><feComposite in2="hardAlpha" operator="out"/><feColorMatrix values="0 0 0 0 0.6625 0 0 0 0 0.6625 0 0 0 0 0.6625 0 0 0 0.21 0"/><feBlend in2="BackgroundImageFix" result="effect1_dropShadow_2133_3087"/><feBlend in="SourceGraphic" in2="effect1_dropShadow_2133_3087" result="shape"/></filter><filter id="c" x="101.77" y="76.795" width="115.069" height="65.252" filterUnits="userSpaceOnUse" color-interpolation-filters="sRGB"><feFlood flood-opacity="0" result="BackgroundImageFix"/><feColorMatrix in="SourceAlpha" values="0 0 0 0 0 0 0 0 0 0 0 0 0 0 0 0 0 0 127 0" result="hardAlpha"/><feOffset dy="5.841"/><feGaussianBlur stdDeviation="4.478"/><feComposite in2="hardAlpha" operator="out"/><feColorMatrix values="0 0 0 0 0.6625 0 0 0 0 0.6625 0 0 0 0 0.6625 0 0 0 0.21 0"/><feBlend in2="BackgroundImageFix" result="effect1_dropShadow_2133_3087"/><feBlend in="SourceGraphic" in2="effect1_dropShadow_2133_3087" result="shape"/></filter><filter id="d" x=".044" y="90.423" width="81.028" height="43.579" filterUnits="userSpaceOnUse" color-interpolation-filters="sRGB"><feFlood flood-opacity="0" result="BackgroundImageFix"/><feColorMatrix in="SourceAlpha" values="0 0 0 0 0 0 0 0 0 0 0 0 0 0 0 0 0 0 127 0" result="hardAlpha"/><feOffset dy="5.841"/><feGaussianBlur stdDeviation="4.478"/><feComposite in2="hardAlpha" operator="out"/><feColorMatrix values="0 0 0 0 0.6625 0 0 0 0 0.6625 0 0 0 0 0.6625 0 0 0 0.21 0"/><feBlend in2="BackgroundImageFix" result="effect1_dropShadow_2133_3087"/><feBlend in="SourceGraphic" in2="effect1_dropShadow_2133_3087" result="shape"/></filter><filter id="e" x="210.306" y="64.626" width="72.379" height="49.464" filterUnits="userSpaceOnUse" color-interpolation-filters="sRGB"><feFlood flood-opacity="0" result="BackgroundImageFix"/><feColorMatrix in="SourceAlpha" values="0 0 0 0 0 0 0 0 0 0 0 0 0 0 0 0 0 0 127 0" result="hardAlpha"/><feOffset dy="5.841"/><feGaussianBlur stdDeviation="4.478"/><feComposite in2="hardAlpha" operator="out"/><feColorMatrix values="0 0 0 0 0.6625 0 0 0 0 0.6625 0 0 0 0 0.6625 0 0 0 0.21 0"/><feBlend in2="BackgroundImageFix" result="effect1_dropShadow_2133_3087"/><feBlend in="SourceGraphic" in2="effect1_dropShadow_2133_3087" result="shape"/></filter><filter id="f" x="221.988" y="152.236" width="70.968" height="50.575" filterUnits="userSpaceOnUse" color-interpolation-filters="sRGB"><feFlood flood-opacity="0" result="BackgroundImageFix"/><feColorMatrix in="SourceAlpha" values="0 0 0 0 0 0 0 0 0 0 0 0 0 0 0 0 0 0 127 0" result="hardAlpha"/><feOffset dy="5.841"/><feGaussianBlur stdDeviation="4.478"/><feComposite in2="hardAlpha" operator="out"/><feColorMatrix values="0 0 0 0 0.6625 0 0 0 0 0.6625 0 0 0 0 0.6625 0 0 0 0.21 0"/><feBlend in2="BackgroundImageFix" result="effect1_dropShadow_2133_3087"/><feBlend in="SourceGraphic" in2="effect1_dropShadow_2133_3087" result="shape"/></filter><filter id="g" x="114.423" y=".379" width="45.654" height="45.654" filterUnits="userSpaceOnUse" color-interpolation-filters="sRGB"><feFlood flood-opacity="0" result="BackgroundImageFix"/><feColorMatrix in="SourceAlpha" values="0 0 0 0 0 0 0 0 0 0 0 0 0 0 0 0 0 0 127 0" result="hardAlpha"/><feOffset dy="5.841"/><feGaussianBlur stdDeviation="4.478"/><feComposite in2="hardAlpha" operator="out"/><feColorMatrix values="0 0 0 0 0.6625 0 0 0 0 0.6625 0 0 0 0 0.6625 0 0 0 0.21 0"/><feBlend in2="BackgroundImageFix" result="effect1_dropShadow_2133_3087"/><feBlend in="SourceGraphic" in2="effect1_dropShadow_2133_3087" result="shape"/></filter></defs></svg>