<svg width="282" height="263" fill="none" xmlns="http://www.w3.org/2000/svg"><path d="M230 114c-2.577 7.259-9.278 14-20.619 14H180M57 114c2.577 7.259 9.278 14 20.619 14H107m122.5 13.5c-2.5-7-9-13.5-20-13.5H150m-92.5 13.5c2.5-7 9-13.5 20-13.5H137" stroke="#C2C2C2"/><g filter="url(#a)"><rect x="21" y="139" width="62" height="62" rx="17" fill="#fff"/><rect x="21.5" y="139.5" width="61" height="61" rx="16.5" stroke="#EBE9F7"/></g><g filter="url(#b)"><rect x="110" y="8" width="62" height="62" rx="17" fill="#fff"/><rect x="110.5" y="8.5" width="61" height="61" rx="16.5" stroke="#EBE9F7"/></g><g filter="url(#c)"><rect x="110" y="185" width="62" height="62" rx="17" fill="#fff"/><rect x="110.5" y="185.5" width="61" height="61" rx="16.5" stroke="#EBE9F7"/></g><g filter="url(#d)"><rect x="199" y="139" width="62" height="62" rx="17" fill="#fff"/><rect x="199.5" y="139.5" width="61" height="61" rx="16.5" stroke="#EBE9F7"/></g><path d="M0 185h282v77H0v-77Z" fill="url(#e)"/><path d="M282 86H0V9h282v77Z" fill="url(#f)"/><g filter="url(#g)"><rect x="21" y="54" width="62" height="62" rx="17" fill="#fff"/><rect x="21.5" y="54.5" width="61" height="61" rx="16.5" stroke="#EBE9F7"/></g><g filter="url(#h)"><rect x="199" y="54" width="62" height="62" rx="17" fill="#fff"/><rect x="199.5" y="54.5" width="61" height="61" rx="16.5" stroke="#EBE9F7"/></g><path d="M52.94 179.956a9.963 9.963 0 0 0 6.13-2.885c3.906-3.905 3.906-10.237 0-14.142-3.904-3.905-10.236-3.905-14.141 0-3.905 3.905-3.905 10.237 0 14.142a9.983 9.983 0 0 0 7.687 2.91.76.76 0 0 0 .325-.025Zm-9.363-11.102a8.458 8.458 0 0 1 1.905-4.31L50.94 170l-1.088 1.088c-1.052-.85-2.224-1.308-3.341-1.608-.65-.174-1.296-.3-1.887-.413l-.016-.004a35.62 35.62 0 0 1-1.03-.209m-.07 1.52c.267.055.534.108.8.16l.015.002c.603.117 1.202.233 1.799.393.953.256 1.86.616 2.662 1.228l-3.3 3.3a8.473 8.473 0 0 1-1.975-5.083Zm6.34 2.84c.675.862 1.04 1.806 1.297 2.773.125.47.22.928.318 1.392l.084.395c.05.24.105.48.165.721a8.47 8.47 0 0 1-5.168-1.977l3.304-3.304Zm3.393 5.196a16.154 16.154 0 0 1-.228-.95l-.077-.367c-.098-.469-.205-.98-.341-1.492-.301-1.128-.762-2.337-1.68-3.454L52 171.061l5.457 5.457a8.459 8.459 0 0 1-4.217 1.892m-.18-8.41 1.212-1.211c1.114.942 2.28 1.46 3.365 1.826.447.152.897.282 1.31.403l.46.134c.35.106.672.208.965.321a8.453 8.453 0 0 1-1.854 3.984L53.06 170Zm6.777-.285-.502-.147a30.242 30.242 0 0 1-1.217-.374c-.944-.32-1.888-.74-2.781-1.47l3.18-3.181a8.471 8.471 0 0 1 1.983 5.382 17.353 17.353 0 0 0-.663-.21Zm-2.38-6.233-3.181 3.181c-.73-.893-1.151-1.837-1.47-2.781a27.967 27.967 0 0 1-.374-1.218l-.148-.501a18.105 18.105 0 0 0-.21-.663 8.463 8.463 0 0 1 5.383 1.982Zm-6.073.88c.367 1.085.884 2.252 1.827 3.366L52 168.94l-5.457-5.458a8.447 8.447 0 0 1 3.984-1.854c.113.293.215.613.32.964l.135.46c.12.414.25.863.402 1.31Z" fill="#FF6500"/><path stroke="#C2C2C2" d="M140.5 185V70"/><rect x="110" y="97" width="62" height="62" rx="17" fill="#1E1A35"/><path d="M141.001 124.4a3.598 3.598 0 0 0-3.6 3.6 3.599 3.599 0 1 0 3.6-3.6Zm0-2.4a6.002 6.002 0 0 1 4.243 10.243A6.002 6.002 0 0 1 135.001 128a6 6 0 0 1 6-6Zm7.8-.3a1.503 1.503 0 0 1-1.5 1.5 1.499 1.499 0 0 1-1.06-2.561 1.499 1.499 0 0 1 2.56 1.061Zm-7.8-3.3c-2.969 0-3.453.008-4.835.07-.94.044-1.572.17-2.157.398a3.47 3.47 0 0 0-1.296.844 3.485 3.485 0 0 0-.845 1.296c-.228.588-.354 1.218-.397 2.157-.063 1.325-.071 1.788-.071 4.835 0 2.97.008 3.454.07 4.835.044.939.17 1.572.397 2.156.204.522.444.898.842 1.296.405.403.78.645 1.296.844.593.229 1.224.356 2.16.399 1.325.063 1.788.07 4.835.07 2.97 0 3.454-.008 4.835-.07.938-.044 1.569-.17 2.156-.397a3.48 3.48 0 0 0 1.296-.843 3.45 3.45 0 0 0 .845-1.296c.228-.591.355-1.222.398-2.16.063-1.324.07-1.788.07-4.834 0-2.969-.008-3.454-.07-4.835-.044-.938-.171-1.572-.398-2.157a3.47 3.47 0 0 0-.844-1.296 3.472 3.472 0 0 0-1.296-.845c-.588-.228-1.219-.354-2.157-.397-1.324-.063-1.787-.07-4.835-.07m0-2.4c3.26 0 3.667.012 4.948.072 1.276.06 2.148.26 2.912.558a5.851 5.851 0 0 1 2.126 1.384 5.867 5.867 0 0 1 1.384 2.126c.296.764.498 1.636.558 2.914.056 1.279.072 1.686.072 4.946s-.012 3.667-.072 4.946c-.06 1.28-.262 2.148-.558 2.914a5.867 5.867 0 0 1-1.384 2.126 5.867 5.867 0 0 1-2.126 1.384c-.764.296-1.636.498-2.912.558-1.281.056-1.688.072-4.948.072-3.26 0-3.667-.012-4.948-.072-1.276-.06-2.146-.262-2.912-.558a5.867 5.867 0 0 1-2.126-1.384 5.867 5.867 0 0 1-1.384-2.126c-.298-.764-.498-1.636-.558-2.914-.058-1.279-.072-1.686-.072-4.946s.012-3.667.072-4.946c.06-1.28.26-2.148.558-2.914a5.867 5.867 0 0 1 1.384-2.126 5.867 5.867 0 0 1 2.126-1.384c.764-.298 1.634-.498 2.912-.558 1.282-.056 1.689-.072 4.949-.072" fill="#FF6500"/><g clip-path="url(#i)"><path d="M57.714 76.786V82.5a4.617 4.617 0 0 1-4.216 4.624.734.734 0 0 1-.55-.185.716.716 0 0 1-.234-.529V77.5a1.788 1.788 0 0 1 1.786-1.786h.714V75h-6.428v.714h.714a1.788 1.788 0 0 1 1.786 1.786v8.91a.716.716 0 0 1-.784.714 4.618 4.618 0 0 1-4.216-4.624v-5.714A1.788 1.788 0 0 0 44.5 75H42v.714h1.071a1.788 1.788 0 0 1 1.786 1.786v5a6.068 6.068 0 0 0 5.743 6.063.717.717 0 0 1 .686.714V92.5a1.788 1.788 0 0 1-1.786 1.786h-.714V95h6.428v-.714H54.5a1.788 1.788 0 0 1-1.786-1.786v-3.224a.718.718 0 0 1 .686-.715 6.068 6.068 0 0 0 5.743-6.061v-5a1.788 1.788 0 0 1 1.786-1.786H62V75h-2.5a1.788 1.788 0 0 0-1.786 1.786Z" fill="#FF6500"/></g><path fill-rule="evenodd" clip-rule="evenodd" d="M229.656 80.145v.98h-6.75a2.53 2.53 0 0 0-2.531 2.531v10.97h-.844a.842.842 0 0 0-.843.843.84.84 0 0 0 .843.844h21.938a.842.842 0 0 0 .843-.844.84.84 0 0 0-.843-.844h-.844V83.656a2.529 2.529 0 0 0-2.531-2.531h-6.75v-.98a2.666 2.666 0 0 0 1.817-2.525c0-.451-.179-1.089-.459-1.753-.559-1.32-1.49-2.788-1.49-2.788a.839.839 0 0 0-.712-.391.841.841 0 0 0-.712.391s-.931 1.468-1.49 2.788c-.28.664-.459 1.302-.459 1.753 0 1.174.762 2.171 1.817 2.525Zm9.282 9.868-4.224-2.822a.845.845 0 0 0-1.01.054l-1.984 1.659a2.53 2.53 0 0 1-3.248 0l-1.963-1.643a.843.843 0 0 0-1.023-.045l-3.424 2.386v5.023h16.876v-4.612Zm0-2.029v-4.328a.853.853 0 0 0-.247-.597.832.832 0 0 0-.597-.246h-15.188a.84.84 0 0 0-.844.843v3.89l2.458-1.714a2.534 2.534 0 0 1 3.072.135l1.963 1.642a.845.845 0 0 0 1.083 0l1.983-1.658a2.533 2.533 0 0 1 3.03-.163l3.287 2.196Zm-8.438-12.78c.138.255.283.532.417.812.286.596.557 1.202.557 1.604a.976.976 0 0 1-.974.974.976.976 0 0 1-.974-.974c0-.402.271-1.008.557-1.604.134-.28.279-.557.417-.811Z" fill="#FF6500"/><path d="m230.369 162.632-.811-.81a5.732 5.732 0 1 0-8.107 8.107l8.918 8.918 8.918-8.918a5.732 5.732 0 1 0-8.107-8.107l-.811.81Zm4.768 6.863h6.84m-23.217 0h5.828m0 0 2.023-4.817" stroke="#FF6500" stroke-width="1.445" stroke-miterlimit="10" stroke-linecap="round" stroke-linejoin="round"/><path d="m226.611 164.678 3.661 7.225 3.035-5.298m1.83 2.89-1.83-2.891" stroke="#FF6500" stroke-width="1.445" stroke-miterlimit="10" stroke-linecap="round" stroke-linejoin="round"/><defs><filter id="a" x="9.8" y="131.8" width="84.4" height="84.4" filterUnits="userSpaceOnUse" color-interpolation-filters="sRGB"><feFlood flood-opacity="0" result="BackgroundImageFix"/><feColorMatrix in="SourceAlpha" values="0 0 0 0 0 0 0 0 0 0 0 0 0 0 0 0 0 0 127 0" result="hardAlpha"/><feOffset dy="4"/><feGaussianBlur stdDeviation="5.6"/><feComposite in2="hardAlpha" operator="out"/><feColorMatrix values="0 0 0 0 0.941176 0 0 0 0 0.941176 0 0 0 0 0.94902 0 0 0 1 0"/><feBlend in2="BackgroundImageFix" result="effect1_dropShadow_2184_245"/><feBlend in="SourceGraphic" in2="effect1_dropShadow_2184_245" result="shape"/></filter><filter id="b" x="98.8" y=".8" width="84.4" height="84.4" filterUnits="userSpaceOnUse" color-interpolation-filters="sRGB"><feFlood flood-opacity="0" result="BackgroundImageFix"/><feColorMatrix in="SourceAlpha" values="0 0 0 0 0 0 0 0 0 0 0 0 0 0 0 0 0 0 127 0" result="hardAlpha"/><feOffset dy="4"/><feGaussianBlur stdDeviation="5.6"/><feComposite in2="hardAlpha" operator="out"/><feColorMatrix values="0 0 0 0 0.941176 0 0 0 0 0.941176 0 0 0 0 0.94902 0 0 0 1 0"/><feBlend in2="BackgroundImageFix" result="effect1_dropShadow_2184_245"/><feBlend in="SourceGraphic" in2="effect1_dropShadow_2184_245" result="shape"/></filter><filter id="c" x="98.8" y="177.8" width="84.4" height="84.4" filterUnits="userSpaceOnUse" color-interpolation-filters="sRGB"><feFlood flood-opacity="0" result="BackgroundImageFix"/><feColorMatrix in="SourceAlpha" values="0 0 0 0 0 0 0 0 0 0 0 0 0 0 0 0 0 0 127 0" result="hardAlpha"/><feOffset dy="4"/><feGaussianBlur stdDeviation="5.6"/><feComposite in2="hardAlpha" operator="out"/><feColorMatrix values="0 0 0 0 0.941176 0 0 0 0 0.941176 0 0 0 0 0.94902 0 0 0 1 0"/><feBlend in2="BackgroundImageFix" result="effect1_dropShadow_2184_245"/><feBlend in="SourceGraphic" in2="effect1_dropShadow_2184_245" result="shape"/></filter><filter id="d" x="187.8" y="131.8" width="84.4" height="84.4" filterUnits="userSpaceOnUse" color-interpolation-filters="sRGB"><feFlood flood-opacity="0" result="BackgroundImageFix"/><feColorMatrix in="SourceAlpha" values="0 0 0 0 0 0 0 0 0 0 0 0 0 0 0 0 0 0 127 0" result="hardAlpha"/><feOffset dy="4"/><feGaussianBlur stdDeviation="5.6"/><feComposite in2="hardAlpha" operator="out"/><feColorMatrix values="0 0 0 0 0.941176 0 0 0 0 0.941176 0 0 0 0 0.94902 0 0 0 1 0"/><feBlend in2="BackgroundImageFix" result="effect1_dropShadow_2184_245"/><feBlend in="SourceGraphic" in2="effect1_dropShadow_2184_245" result="shape"/></filter><filter id="g" x="9.8" y="46.8" width="84.4" height="84.4" filterUnits="userSpaceOnUse" color-interpolation-filters="sRGB"><feFlood flood-opacity="0" result="BackgroundImageFix"/><feColorMatrix in="SourceAlpha" values="0 0 0 0 0 0 0 0 0 0 0 0 0 0 0 0 0 0 127 0" result="hardAlpha"/><feOffset dy="4"/><feGaussianBlur stdDeviation="5.6"/><feComposite in2="hardAlpha" operator="out"/><feColorMatrix values="0 0 0 0 0.941176 0 0 0 0 0.941176 0 0 0 0 0.94902 0 0 0 1 0"/><feBlend in2="BackgroundImageFix" result="effect1_dropShadow_2184_245"/><feBlend in="SourceGraphic" in2="effect1_dropShadow_2184_245" result="shape"/></filter><filter id="h" x="187.8" y="46.8" width="84.4" height="84.4" filterUnits="userSpaceOnUse" color-interpolation-filters="sRGB"><feFlood flood-opacity="0" result="BackgroundImageFix"/><feColorMatrix in="SourceAlpha" values="0 0 0 0 0 0 0 0 0 0 0 0 0 0 0 0 0 0 127 0" result="hardAlpha"/><feOffset dy="4"/><feGaussianBlur stdDeviation="5.6"/><feComposite in2="hardAlpha" operator="out"/><feColorMatrix values="0 0 0 0 0.941176 0 0 0 0 0.941176 0 0 0 0 0.94902 0 0 0 1 0"/><feBlend in2="BackgroundImageFix" result="effect1_dropShadow_2184_245"/><feBlend in="SourceGraphic" in2="effect1_dropShadow_2184_245" result="shape"/></filter><linearGradient id="e" x1="118.588" y1="202.062" x2="115.957" y2="244.377" gradientUnits="userSpaceOnUse"><stop stop-color="#FBFAFF" stop-opacity="0"/><stop offset=".395" stop-color="#FBFAFF" stop-opacity=".64"/><stop offset=".77" stop-color="#FBFAFF"/><stop offset="1" stop-color="#FBFAFF"/></linearGradient><linearGradient id="f" x1="163.412" y1="68.938" x2="166.043" y2="26.623" gradientUnits="userSpaceOnUse"><stop stop-color="#FBFAFF" stop-opacity="0"/><stop offset=".395" stop-color="#FBFAFF" stop-opacity=".64"/><stop offset=".77" stop-color="#FBFAFF"/><stop offset="1" stop-color="#FBFAFF"/></linearGradient><clipPath id="i"><path fill="#fff" transform="translate(42 75)" d="M0 0h20v20H0z"/></clipPath></defs></svg>