<svg width="322" height="153" fill="none" xmlns="http://www.w3.org/2000/svg"><path d="M280.297 75.965c0 19.836-13.067 37.879-34.374 50.99-21.298 13.107-50.754 21.231-83.319 21.231-32.565 0-62.021-8.124-83.319-21.231-21.306-13.111-34.373-31.154-34.373-50.99 0-19.836 13.067-37.878 34.373-50.99 21.298-13.106 50.754-21.23 83.319-21.23 32.565 0 62.021 8.124 83.319 21.23 21.307 13.112 34.374 31.154 34.374 50.99Zm-210.24-.535h194.727M162.605 3.21v145.51" stroke="#DFDFDF" stroke-width="1.07"/><g filter="url(#a)"><rect x="19.77" y="39.588" width="74.895" height="73.825" rx="18.189" fill="#fff"/></g><g filter="url(#b)"><rect x="123.553" y="39.588" width="74.895" height="73.825" rx="18.189" fill="#fff"/></g><g filter="url(#c)"><rect x="227.336" y="39.588" width="74.895" height="73.825" rx="18.189" fill="#fff"/></g><circle cx="162.606" cy="149.255" r="3.745" fill="#FF6500"/><circle cx="162.606" cy="3.745" r="3.745" fill="#FF6500"/><path d="M44.511 92.383c-2.327 0-4.108-1.267-4.108-3.37 0-1.316.754-2.359 2.166-2.792-1.187-.434-1.83-1.38-1.813-2.504.032-1.894 1.412-2.985 3.755-2.985 2.36 0 3.74 1.091 3.772 2.985.016 1.075-.642 2.038-1.846 2.504 1.428.433 2.199 1.476 2.199 2.792 0 2.103-1.782 3.37-4.125 3.37Zm0-6.708c1.156 0 1.862-.786 1.862-1.765 0-1.14-.738-1.862-1.862-1.862-1.123 0-1.846.722-1.862 1.862 0 1.027.723 1.765 1.862 1.765Zm0 5.36c1.316 0 2.199-.866 2.199-2.07-.016-1.236-.835-2.054-2.199-2.054-1.348 0-2.183.818-2.183 2.054-.016 1.204.883 2.07 2.183 2.07Zm11.584-10.094c.08 0 .128.048.128.128v6.82h1.092c.08 0 .128.049.128.13v1.219c0 .08-.048.128-.128.128h-1.092v2.697c0 .08-.048.128-.128.128h-1.701c-.08 0-.129-.048-.129-.129v-2.696h-4.99c-.081 0-.13-.048-.13-.128v-1.445c0-.064.017-.096.049-.16l4.333-6.612c.032-.064.08-.08.145-.08h2.423Zm-1.83 3.498.065-2.07-3.58 5.52h3.515v-3.45Zm7.418 7.96c-2.36 0-3.627-1.267-3.82-3.161-.016-.08.032-.129.113-.129h1.685c.08 0 .128.049.128.129.08 1.123.754 1.797 1.878 1.797 1.3 0 2.102-.995 2.102-2.792 0-1.733-.674-2.68-2.038-2.68-1.011 0-1.685.513-1.894 1.444-.032.08-.08.112-.144.112h-1.477c-.08 0-.112-.032-.112-.128l.385-5.922c0-.08.064-.129.145-.129h6.371c.08 0 .128.049.128.129v1.22c0 .08-.048.128-.128.128h-4.783l-.224 2.632c.594-.594 1.364-.883 2.31-.883 1.99 0 3.532 1.541 3.532 3.932 0 2.648-1.686 4.302-4.157 4.302Zm9.504-8.41a.198.198 0 0 1 .16-.08h1.846c.112 0 .128.08.064.161l-2.584 2.825 3.001 5.12c.048.08.016.16-.08.16h-1.958c-.064 0-.112-.032-.144-.096l-.77-1.413-1.397-2.407-.915 1.075.032 2.712c0 .097-.048.129-.128.129h-1.67c-.08 0-.128-.032-.128-.129l.065-5.456-.065-5.521c0-.096.049-.129.129-.129h1.669c.08 0 .128.033.128.129l-.048 5.473v.706l2.793-3.258Zm77.744 8.09c-.016.08-.048.112-.128.112h-1.798c-.08 0-.144-.048-.128-.145.562-3.45 1.589-6.885 3.13-9.629h-4.831c-.08 0-.129-.048-.129-.128v-1.22c0-.08.049-.129.129-.129h6.821c.08 0 .128.049.128.129v1.3a.47.47 0 0 1-.032.144c-1.412 2.841-2.632 6.019-3.162 9.566Zm7.696 0c-.016.08-.048.112-.129.112h-1.797c-.08 0-.145-.048-.129-.145.562-3.45 1.589-6.885 3.13-9.629h-4.831c-.08 0-.128-.048-.128-.128v-1.22c0-.08.048-.129.128-.129h6.821c.08 0 .128.049.128.129v1.3a.47.47 0 0 1-.032.144c-1.412 2.841-2.632 6.019-3.161 9.566Zm7.457.32c-2.567 0-4.237-2.102-4.237-5.825 0-3.82 1.67-5.858 4.237-5.858 2.568 0 4.269 2.006 4.269 5.858 0 3.723-1.685 5.826-4.269 5.826Zm.016-1.524c1.397 0 2.215-1.364 2.215-4.301 0-2.921-.818-4.334-2.231-4.334-1.428 0-2.214 1.38-2.214 4.334 0 2.92.834 4.3 2.23 4.3Zm9.668-6.885a.197.197 0 0 1 .16-.08h1.846c.112 0 .128.08.064.16l-2.584 2.825 3.001 5.12c.048.08.016.16-.08.16h-1.958c-.064 0-.112-.032-.144-.096l-.771-1.413-1.396-2.407-.915 1.075.032 2.712c0 .097-.048.129-.128.129h-1.669c-.08 0-.129-.032-.129-.129l.065-5.456-.065-5.521c0-.096.049-.129.129-.129h1.669c.08 0 .128.033.128.129l-.048 5.473v.706l2.793-3.258Zm81.551 6.708c.081 0 .129.048.129.129v1.22c0 .08-.048.128-.129.128h-7.19c-.08 0-.128-.048-.128-.129v-1.38c0-4.413 5.665-3.916 5.665-6.548.032-1.171-.609-1.958-1.877-1.942-1.204.016-1.942.85-1.99 2.456 0 .08-.049.128-.129.128h-1.524c-.081 0-.129-.048-.129-.128.016-2.488 1.316-3.868 3.788-3.884 2.375 0 3.627 1.252 3.675 3.306 0 4.076-5.649 3.707-5.649 6.291v.353h5.488Zm4.446 1.637c-2.375 0-3.675-1.22-3.836-3.563-.016-.08.032-.128.113-.128h1.637c.08 0 .128.048.128.128.048 1.413.69 2.231 2.006 2.215 1.268 0 2.006-.834 2.038-2.134.016-1.38-.786-2.006-2.503-2.006h-.45c-.08 0-.128-.049-.128-.129v-1.027c0-.08.048-.128.128-.128h.45c1.556 0 2.279-.69 2.279-1.718 0-1.043-.739-1.717-1.718-1.717-1.219 0-1.861.658-1.958 2.022 0 .08-.048.129-.128.129h-1.605c-.08 0-.128-.048-.128-.129.128-2.198 1.589-3.37 3.916-3.37 2.086 0 3.547 1.107 3.563 2.873 0 1.396-.835 2.102-1.894 2.455 1.364.321 2.166 1.284 2.166 2.697 0 2.198-1.781 3.53-4.076 3.53Zm8.913.065c-2.568 0-4.237-2.103-4.237-5.826 0-3.82 1.669-5.858 4.237-5.858s4.269 2.006 4.269 5.858c0 3.723-1.685 5.826-4.269 5.826Zm.016-1.525c1.396 0 2.215-1.364 2.215-4.301 0-2.921-.819-4.334-2.231-4.334-1.428 0-2.215 1.38-2.215 4.334 0 2.92.835 4.3 2.231 4.3Zm9.667-6.885a.199.199 0 0 1 .161-.08h1.845c.113 0 .129.08.065.16l-2.584 2.825 3.001 5.12c.048.08.016.16-.08.16h-1.958c-.065 0-.113-.032-.145-.096l-.77-1.413-1.396-2.407-.915 1.075.032 2.712c0 .097-.048.129-.128.129h-1.67c-.08 0-.128-.032-.128-.129l.064-5.456-.064-5.521c0-.096.048-.129.128-.129h1.67c.08 0 .128.033.128.129l-.048 5.473v.706l2.792-3.258Z" fill="#1B1B1B"/><g clip-path="url(#d)" fill-rule="evenodd" clip-rule="evenodd" fill="#FF6500"><path d="M60.07 66.336a2.853 2.853 0 1 1-5.706 0 2.853 2.853 0 0 1 5.706 0Zm-1.427 0a1.427 1.427 0 1 1-2.853 0 1.427 1.427 0 0 1 2.853 0Z"/><path d="M57.218 59.916a8.562 8.562 0 0 1 8.29 6.42 8.562 8.562 0 0 1-16.58 0 8.563 8.563 0 0 1 8.29-6.42Zm0 11.413a7.137 7.137 0 0 1-6.807-4.993 7.137 7.137 0 0 1 13.613 0 7.137 7.137 0 0 1-6.806 4.993Z"/></g><g clip-path="url(#e)" fill-rule="evenodd" clip-rule="evenodd" fill="#FF6500"><path d="M163.855 66.336a2.853 2.853 0 1 1-5.707-.001 2.853 2.853 0 0 1 5.707.001Zm-1.427 0a1.425 1.425 0 0 1-1.426 1.427 1.425 1.425 0 0 1-1.009-2.436 1.425 1.425 0 0 1 2.435 1.01Z"/><path d="M161.001 59.916a8.564 8.564 0 0 1 8.29 6.42 8.564 8.564 0 0 1-16.58 0 8.562 8.562 0 0 1 8.29-6.42Zm0 11.413a7.137 7.137 0 0 1-6.807-4.993 7.137 7.137 0 0 1 13.614 0 7.138 7.138 0 0 1-6.807 4.993Z"/></g><g clip-path="url(#f)" fill-rule="evenodd" clip-rule="evenodd" fill="#FF6500"><path d="M267.636 66.336a2.853 2.853 0 1 1-5.707-.001 2.853 2.853 0 0 1 5.707.001Zm-1.427 0a1.428 1.428 0 0 1-1.426 1.427 1.427 1.427 0 1 1 1.426-1.427Z"/><path d="M264.784 59.916a8.562 8.562 0 0 1 8.29 6.42 8.562 8.562 0 0 1-16.58 0 8.562 8.562 0 0 1 8.29-6.42Zm0 11.413a7.137 7.137 0 0 1-6.807-4.993 7.137 7.137 0 0 1 13.614 0 7.137 7.137 0 0 1-6.807 4.993Z"/></g><defs><clipPath id="d"><path fill="#fff" transform="translate(48.658 57.776)" d="M0 0h17.119v17.119H0z"/></clipPath><clipPath id="e"><path fill="#fff" transform="translate(152.441 57.776)" d="M0 0h17.119v17.119H0z"/></clipPath><clipPath id="f"><path fill="#fff" transform="translate(256.225 57.776)" d="M0 0h17.119v17.119H0z"/></clipPath><filter id="a" x=".083" y="32.74" width="114.269" height="113.199" filterUnits="userSpaceOnUse" color-interpolation-filters="sRGB"><feFlood flood-opacity="0" result="BackgroundImageFix"/><feColorMatrix in="SourceAlpha" values="0 0 0 0 0 0 0 0 0 0 0 0 0 0 0 0 0 0 127 0" result="hardAlpha"/><feOffset dy="12.839"/><feGaussianBlur stdDeviation="9.843"/><feComposite in2="hardAlpha" operator="out"/><feColorMatrix values="0 0 0 0 0.6625 0 0 0 0 0.6625 0 0 0 0 0.6625 0 0 0 0.21 0"/><feBlend in2="BackgroundImageFix" result="effect1_dropShadow_2184_232"/><feBlend in="SourceGraphic" in2="effect1_dropShadow_2184_232" result="shape"/></filter><filter id="b" x="103.866" y="32.74" width="114.269" height="113.199" filterUnits="userSpaceOnUse" color-interpolation-filters="sRGB"><feFlood flood-opacity="0" result="BackgroundImageFix"/><feColorMatrix in="SourceAlpha" values="0 0 0 0 0 0 0 0 0 0 0 0 0 0 0 0 0 0 127 0" result="hardAlpha"/><feOffset dy="12.839"/><feGaussianBlur stdDeviation="9.843"/><feComposite in2="hardAlpha" operator="out"/><feColorMatrix values="0 0 0 0 0.6625 0 0 0 0 0.6625 0 0 0 0 0.6625 0 0 0 0.21 0"/><feBlend in2="BackgroundImageFix" result="effect1_dropShadow_2184_232"/><feBlend in="SourceGraphic" in2="effect1_dropShadow_2184_232" result="shape"/></filter><filter id="c" x="207.649" y="32.74" width="114.269" height="113.199" filterUnits="userSpaceOnUse" color-interpolation-filters="sRGB"><feFlood flood-opacity="0" result="BackgroundImageFix"/><feColorMatrix in="SourceAlpha" values="0 0 0 0 0 0 0 0 0 0 0 0 0 0 0 0 0 0 127 0" result="hardAlpha"/><feOffset dy="12.839"/><feGaussianBlur stdDeviation="9.843"/><feComposite in2="hardAlpha" operator="out"/><feColorMatrix values="0 0 0 0 0.6625 0 0 0 0 0.6625 0 0 0 0 0.6625 0 0 0 0.21 0"/><feBlend in2="BackgroundImageFix" result="effect1_dropShadow_2184_232"/><feBlend in="SourceGraphic" in2="effect1_dropShadow_2184_232" result="shape"/></filter></defs></svg>