<svg width="23" height="21" fill="none" xmlns="http://www.w3.org/2000/svg"><path d="m11.615 17.796-.115.114-.127-.114C5.912 12.863 2.3 9.602 2.3 6.294c0-2.289 1.725-4.005 4.025-4.005 1.771 0 3.496 1.144 4.106 2.7h2.139c.609-1.556 2.334-2.7 4.105-2.7 2.3 0 4.025 1.716 4.025 4.005 0 3.308-3.611 6.57-9.085 11.502ZM16.675 0c-2.001 0-3.921.927-5.175 2.38C10.246.927 8.326 0 6.325 0 2.783 0 0 2.758 0 6.294c0 4.315 3.91 7.851 9.832 13.195L11.5 21l1.668-1.51C19.09 14.144 23 10.608 23 6.293 23 2.758 20.217 0 16.675 0Z" fill="#FF6500"/></svg>