<svg width="20" height="18" fill="none" xmlns="http://www.w3.org/2000/svg"><path d="M20.001 2.48a1.23 1.23 0 0 1-1.228 1.232h-3.082c.174-.45.267-.94.267-1.451 0-.35-.045-.692-.129-1.02h2.944c.68 0 1.228.557 1.228 1.235v.004ZM8.706 3.706c-.042 0-.08.006-.122.006H1.228A1.23 1.23 0 0 1 0 2.48c0-.678.552-1.235 1.228-1.235h7.343c-.083.328-.128.67-.128 1.02 0 .508.093.997.263 1.444v-.003ZM3.098 8.704c0 .428.067.846.189 1.235H1.228a1.233 1.233 0 0 1 0-2.467h2.059a4.14 4.14 0 0 0-.19 1.232Zm16.902 0c0 .682-.551 1.235-1.228 1.235h-8.35a4.142 4.142 0 0 0 .003-2.46h8.347c.68 0 1.228.553 1.228 1.232v-.007Zm.001 6.228c0 .682-.551 1.235-1.228 1.235h-2.944a4.108 4.108 0 0 0-.138-2.473h3.082c.68 0 1.228.556 1.228 1.235v.003Zm-11.558.216c0 .354.045.695.128 1.023H1.228a1.236 1.236 0 0 1 0-2.471h7.356c.042 0 .08 0 .122.007-.17.447-.263.936-.263 1.444v-.003Zm3.755-10.625a2.258 2.258 0 0 0 2.254-2.262A2.258 2.258 0 0 0 12.198 0a2.258 2.258 0 0 0-2.255 2.261 2.258 2.258 0 0 0 2.255 2.262Zm-5.342 6.443A2.258 2.258 0 0 0 9.11 8.705a2.258 2.258 0 0 0-2.254-2.262 2.258 2.258 0 0 0-2.254 2.262 2.258 2.258 0 0 0 2.254 2.261Zm5.342 6.444a2.258 2.258 0 0 0 2.254-2.262 2.258 2.258 0 0 0-2.254-2.261 2.258 2.258 0 0 0-2.255 2.261 2.258 2.258 0 0 0 2.255 2.262Z" fill="#FF6500"/></svg>