<svg width="1477" height="172" fill="none" xmlns="http://www.w3.org/2000/svg"><path d="m99.509 102.036 41.108 63.335c1.115 1.753.637 2.629-1.434 2.629H101.66c-1.275 0-2.151-.478-2.63-1.434l-21.51-35.85-16.49-24.856h-23.9l.717 59.989c0 1.434-.717 2.151-2.151 2.151H2.953c-1.434 0-2.151-.717-2.151-2.151l.956-81.499L.802 2.851C.802 1.417 1.519.7 2.952.7H70.83c21.191 0 37.443 4.461 48.756 13.384 11.472 8.923 17.208 21.988 17.208 39.196 0 12.269-3.266 22.546-9.799 30.831-6.373 8.285-15.535 14.26-27.485 17.925ZM72.263 27.229H37.608l-.717 52.102h36.328c8.285 0 15.057-2.071 20.315-6.214 5.417-4.143 8.126-10.516 8.126-19.12 0-17.845-9.8-26.768-29.397-26.768Zm128.1 119.978c13.065 0 21.032-6.294 23.9-18.881.478-1.275 1.275-1.912 2.39-1.912h30.114c1.753 0 2.47.717 2.151 2.151-1.593 11.95-7.728 22.068-18.403 30.353-10.516 8.126-24.059 12.189-40.63 12.189-20.076 0-35.691-5.895-46.844-17.686-10.994-11.95-16.491-27.485-16.491-46.605 0-19.757 5.577-35.531 16.73-47.322 11.153-11.79 26.449-17.686 45.888-17.686 19.917 0 35.372 6.214 46.366 18.642 11.153 12.269 16.889 29.317 17.208 51.146 0 1.434-.717 2.151-2.151 2.151h-87.952c.637 11.472 3.266 19.917 7.887 25.334 4.621 5.417 11.233 8.126 19.837 8.126Zm-.956-81.738c-14.34 0-22.944 8.524-25.812 25.573h50.429c-.797-7.33-3.266-13.384-7.409-18.164-4.143-4.94-9.879-7.409-17.208-7.409ZM332 147.207c13.065 0 21.032-6.294 23.9-18.881.478-1.275 1.275-1.912 2.39-1.912h30.114c1.753 0 2.47.717 2.151 2.151-1.593 11.95-7.728 22.068-18.403 30.353-10.516 8.126-24.059 12.189-40.63 12.189-20.076 0-35.691-5.895-46.844-17.686-10.994-11.95-16.491-27.485-16.491-46.605 0-19.757 5.577-35.531 16.73-47.322 11.153-11.79 26.449-17.686 45.888-17.686 19.917 0 35.372 6.214 46.366 18.642 11.153 12.269 16.889 29.317 17.208 51.146 0 1.434-.717 2.151-2.151 2.151h-87.952c.637 11.472 3.266 19.917 7.887 25.334 4.621 5.417 11.233 8.126 19.837 8.126Zm-.956-81.738c-14.34 0-22.944 8.524-25.812 25.573h50.429c-.797-7.33-3.266-13.384-7.409-18.164-4.143-4.94-9.879-7.409-17.208-7.409ZM438.303 84.35l.956 81.499c0 1.434-.717 2.151-2.151 2.151h-31.309c-1.434 0-2.151-.717-2.151-2.151l.956-81.499-.956-81.499c0-1.434.717-2.151 2.151-2.151h31.309c1.434 0 2.151.717 2.151 2.151l-.956 81.499Zm70.284 86.518c-18.164 0-32.583-3.585-43.259-10.755-10.516-7.329-16.092-17.766-16.73-31.309 0-1.434.717-2.151 2.151-2.151h30.592c1.434 0 2.151.717 2.151 2.151.956 13.225 9.879 19.837 26.768 19.837 14.5 0 21.749-5.019 21.749-15.057 0-4.143-2.788-7.25-8.365-9.321-5.417-2.071-12.109-3.585-20.076-4.541-7.807-.956-15.694-2.39-23.661-4.302-7.966-1.912-14.738-5.656-20.315-11.233-5.417-5.736-8.126-13.384-8.126-22.944 0-12.587 4.701-22.227 14.101-28.919 9.56-6.851 22.785-10.277 39.674-10.277 16.571 0 29.796 3.346 39.674 10.038 9.879 6.533 15.376 16.093 16.491 28.68.16 1.434-.478 2.151-1.912 2.151h-29.397c-1.115 0-1.832-.637-2.151-1.912-2.071-11.472-9.799-17.208-23.183-17.208-12.746 0-19.12 4.94-19.12 14.818 0 4.143 2.709 7.25 8.126 9.321 5.577 1.912 12.269 3.346 20.076 4.302a178.346 178.346 0 0 1 23.9 4.063c7.967 1.753 14.659 5.497 20.076 11.233 5.577 5.577 8.365 13.225 8.365 22.944 0 12.587-5.337 22.466-16.013 29.636-10.675 7.17-24.537 10.755-41.586 10.755Zm169.448 0c-18.164 0-32.584-3.585-43.259-10.755-10.516-7.329-16.093-17.766-16.73-31.309 0-1.434.717-2.151 2.151-2.151h30.592c1.434 0 2.151.717 2.151 2.151.956 13.225 9.878 19.837 26.768 19.837 14.499 0 21.749-5.019 21.749-15.057 0-4.143-2.789-7.25-8.365-9.321-5.418-2.071-12.11-3.585-20.076-4.541-7.808-.956-15.695-2.39-23.661-4.302-7.967-1.912-14.739-5.656-20.315-11.233-5.418-5.736-8.126-13.384-8.126-22.944 0-12.587 4.7-22.227 14.101-28.919 9.56-6.851 22.784-10.277 39.674-10.277 16.57 0 29.795 3.346 39.674 10.038 9.878 6.533 15.375 16.093 16.491 28.68.159 1.434-.478 2.151-1.912 2.151h-29.397c-1.116 0-1.833-.637-2.151-1.912-2.072-11.472-9.799-17.208-23.183-17.208-12.747 0-19.12 4.94-19.12 14.818 0 4.143 2.708 7.25 8.126 9.321 5.576 1.912 12.268 3.346 20.076 4.302a178.4 178.4 0 0 1 23.9 4.063c7.966 1.753 14.658 5.497 20.076 11.233 5.576 5.577 8.365 13.225 8.365 22.944 0 12.587-5.338 22.466-16.013 29.636-10.676 7.17-24.538 10.755-41.586 10.755Zm126.107.239c-19.598 0-34.973-5.736-46.127-17.208-11.153-11.631-16.73-27.326-16.73-47.083 0-19.757 5.577-35.531 16.73-47.322 11.313-11.79 26.928-17.686 46.844-17.686 15.615 0 28.282 4.063 38.001 12.189 9.879 8.126 15.535 18.96 16.969 32.504.319 1.434-.318 2.151-1.912 2.151h-29.158c-1.115 0-1.832-.637-2.151-1.912-1.274-6.851-3.903-12.03-7.887-15.535-3.824-3.505-8.444-5.258-13.862-5.258-17.845.16-26.768 13.703-26.768 40.63 0 14.021 2.151 24.298 6.453 30.831 4.462 6.373 11.233 9.64 20.315 9.799 6.214.159 11.393-1.912 15.535-6.214 4.143-4.302 6.533-10.357 7.17-18.164.16-1.434.956-2.151 2.39-2.151h29.636c1.594 0 2.231.637 1.912 1.912-1.274 14.181-7.17 25.812-17.686 34.894-10.516 9.082-23.74 13.623-39.674 13.623ZM956.245 58.06l-.478-10.994c0-1.434.638-2.151 1.912-2.151h32.026c1.434 0 2.151.717 2.151 2.151l-.717 59.511.717 59.272c0 1.434-.717 2.151-2.151 2.151h-31.787c-1.434 0-2.151-.717-2.151-2.151l.478-12.189c-9.082 11.153-21.191 16.73-36.328 16.73-16.889 0-30.034-5.895-39.435-17.686-9.241-11.95-13.862-27.246-13.862-45.888 0-18.323 4.94-33.62 14.818-45.888 9.879-12.269 22.944-18.403 39.196-18.403 15.137 0 27.007 5.178 35.611 15.535Zm-26.29 88.43c17.686 0 26.689-13.065 27.007-39.196.16-13.065-2.071-23.103-6.692-30.114-4.461-7.01-10.994-10.596-19.598-10.755-18.323-.478-27.485 12.348-27.485 38.479 0 13.703 2.311 24.139 6.931 31.309 4.621 7.011 11.233 10.436 19.837 10.277Zm109.365-30.831.48 50.19c0 1.434-.72 2.151-2.15 2.151h-32.51c-1.43 0-2.15-.717-2.15-2.151l.72-56.882-.24-61.901c0-1.434.72-2.151 2.15-2.151h30.35c1.44 0 2.16.717 2.16 2.151l-.72 13.384c9.56-12.269 22.78-18.403 39.67-18.403 13.07 0 23.42 4.222 31.07 12.667 7.81 8.445 11.71 20.156 11.71 35.133v25.812l.72 50.19c0 1.434-.72 2.151-2.15 2.151h-32.03c-1.43 0-2.15-.717-2.15-2.151l.48-50.19V90.325c0-6.533-1.75-11.79-5.26-15.774-3.5-4.143-7.96-6.214-13.38-6.214-7.17 0-13.47 3.346-18.88 10.038-5.26 6.533-7.89 15.933-7.89 28.202v9.082Zm127.67 0 .48 50.19c0 1.434-.72 2.151-2.15 2.151h-32.51c-1.43 0-2.15-.717-2.15-2.151l.72-56.882-.24-61.901c0-1.434.72-2.151 2.15-2.151h30.35c1.44 0 2.15.717 2.15 2.151l-.71 13.384c9.56-12.269 22.78-18.403 39.67-18.403 13.07 0 23.42 4.222 31.07 12.667 7.81 8.445 11.71 20.156 11.71 35.133v25.812l.72 50.19c0 1.434-.72 2.151-2.15 2.151h-32.03c-1.43 0-2.15-.717-2.15-2.151l.48-50.19V90.325c0-6.533-1.75-11.79-5.26-15.774-3.5-4.143-7.97-6.214-13.38-6.214-7.17 0-13.47 3.346-18.88 10.038-5.26 6.533-7.89 15.933-7.89 28.202v9.082Zm152.29 31.548c13.06 0 21.03-6.294 23.9-18.881.47-1.275 1.27-1.912 2.39-1.912h30.11c1.75 0 2.47.717 2.15 2.151-1.59 11.95-7.73 22.068-18.4 30.353-10.52 8.126-24.06 12.189-40.63 12.189-20.08 0-35.69-5.895-46.85-17.686-10.99-11.95-16.49-27.485-16.49-46.605 0-19.757 5.58-35.531 16.73-47.322 11.16-11.79 26.45-17.686 45.89-17.686 19.92 0 35.37 6.214 46.37 18.642 11.15 12.269 16.89 29.317 17.2 51.146 0 1.434-.71 2.151-2.15 2.151h-87.95c.64 11.472 3.27 19.917 7.89 25.334 4.62 5.417 11.23 8.126 19.84 8.126Zm-.96-81.738c-14.34 0-22.94 8.524-25.81 25.573h50.43c-.8-7.33-3.27-13.384-7.41-18.164-4.15-4.94-9.88-7.409-17.21-7.409Zm107.26 47.8v52.58c0 1.434-.72 2.151-2.15 2.151h-31.55c-1.44 0-2.15-.717-2.15-2.151l.95-59.511-.95-59.272c0-1.434.71-2.151 2.15-2.151h31.55c1.43 0 2.15.717 2.15 2.151l-.96 18.642c9.56-14.5 24.22-21.749 43.98-21.749 1.59 0 3.5.16 5.73.478 1.28.319 1.92 1.115 1.92 2.39v22.227c0 1.434-.72 2.151-2.16 2.151-.95-.16-2.46-.239-4.54-.239-13.22 0-23.9 3.665-32.02 10.994-8.13 7.17-12.11 17.606-11.95 31.309Z" fill="url(#a)" fill-opacity=".85"/><defs><linearGradient id="a" x1="768.411" y1="71" x2="768.411" y2="194" gradientUnits="userSpaceOnUse"><stop stop-color="#131312"/><stop offset="1" stop-color="#131312" stop-opacity="0"/></linearGradient></defs></svg>